<svg width="48" height="48" viewBox="0 0 48 48" fill="none" xmlns="http://www.w3.org/2000/svg">
<circle cx="24" cy="24" r="24" fill="#1A1D1F"/>
<path fill-rule="evenodd" clip-rule="evenodd" d="M21.4889 17.0542C21.376 16.5272 20.624 16.5272 20.5111 17.0542L19.3166 22.6286C19.0202 24.0118 17.7978 25 16.3832 25H15C14.4477 25 14 24.5523 14 24C14 23.4477 14.4477 23 15 23H16.3832C16.8547 23 17.2622 22.6706 17.361 22.2096L18.5555 16.6351C19.1201 14.0002 22.8799 14.0002 23.4445 16.6351L26.5111 30.9459C26.624 31.4729 27.376 31.4728 27.4889 30.9459L28.6834 25.3714C28.9798 23.9882 30.2022 23 31.6168 23H33C33.5523 23 34 23.4477 34 24C34 24.5523 33.5523 25 33 25H31.6168C31.1453 25 30.7378 25.3294 30.639 25.7905L29.4445 31.3649C28.8799 33.9999 25.1201 33.9998 24.5555 31.3649L21.4889 17.0542Z" fill="#FCFCFC"/>
</svg>
