<svg width="40" height="40" viewBox="0 0 40 40" fill="none" xmlns="http://www.w3.org/2000/svg">
<path d="M0.80445 25.6143C-0.3061 21.818 -0.26599 17.7778 0.919705 14.0043C2.1054 10.2309 4.38343 6.8937 7.46574 4.41484C10.5481 1.93598 14.2962 0.426725 18.2363 0.077926C22.1764 -0.270873 26.1314 0.556451 29.6013 2.45527C33.0712 4.3541 35.9001 7.23915 37.7303 10.7456C39.5605 14.2521 40.3098 18.2225 39.8835 22.1548C39.4572 26.0871 37.8743 29.8047 35.3352 32.8375C32.796 35.8703 29.4145 38.0821 25.6183 39.1932C23.0974 39.9319 20.4556 40.1666 17.8439 39.8839C15.2323 39.6011 12.7019 38.8066 10.3975 37.5455C8.09302 36.2845 6.05968 34.5817 4.41367 32.5344C2.76765 30.4872 1.54121 28.1357 0.80445 25.6143Z" fill="url(#paint0_linear_98397_1753)"/>
<path d="M13.6458 20.5L10.8262 23.3196L7.99951 20.5L10.8191 17.6804L13.6458 20.5ZM20.4995 13.6463L25.3362 18.483L28.1558 15.6634L20.4995 8L12.8362 15.6634L15.6558 18.483L20.4995 13.6463ZM30.1728 17.6804L27.3532 20.5L30.1728 23.3196L32.9924 20.5L30.1728 17.6804ZM20.4995 27.3537L15.6629 22.517L12.8433 25.3366L20.4995 33L28.1558 25.3366L25.3362 22.517L20.4995 27.3537ZM20.4995 23.3196L23.3191 20.5L20.4995 17.6804L17.6728 20.5L20.4995 23.3196Z" fill="#F0B90B"/>
<defs>
<linearGradient id="paint0_linear_98397_1753" x1="41.0149" y1="40.8336" x2="-9.60424" y2="-12.1554" gradientUnits="userSpaceOnUse">
<stop stop-color="#242424"/>
<stop offset="1" stop-color="#9B9B9B" stop-opacity="0.94"/>
</linearGradient>
</defs>
</svg>
