<svg width="38" height="38" viewBox="0 0 38 38" fill="none" xmlns="http://www.w3.org/2000/svg">
<ellipse cx="18.7439" cy="18.75" rx="18.7439" ry="18.75" fill="white"/>
<path d="M18.7495 1.96593C9.48269 1.96593 1.97087 9.48018 1.97087 18.75C1.96788 20.9562 2.40123 23.1412 3.24598 25.1792C4.09072 27.2172 5.33017 29.0679 6.89293 30.6247L6.92438 30.6561C6.9912 30.7235 7.059 30.7893 7.1268 30.8527C7.97898 31.6719 8.91504 32.3991 9.91948 33.0221C9.99613 33.0713 10.0738 33.117 10.1514 33.1632L10.2044 33.1951C10.2786 33.2394 10.3518 33.2831 10.429 33.3263C12.9202 34.7532 15.737 35.5135 18.6075 35.5341H18.8203C21.6076 35.5268 24.3488 34.8218 26.7939 33.4831C26.8961 33.4271 26.9975 33.3699 27.0981 33.3116C27.1162 33.3018 27.1339 33.291 27.1521 33.2806C27.2258 33.238 27.2992 33.1948 27.3722 33.1509C28.3902 32.5403 29.3407 31.8235 30.2076 31.0125L30.2931 30.9314L30.4553 30.7756L30.4582 30.7726L30.4902 30.7416C32.0879 29.1806 33.3568 27.3153 34.2221 25.2557C35.0874 23.1962 35.5315 20.9841 35.5282 18.75C35.5282 9.48018 28.0159 1.96593 18.7495 1.96593ZM18.7495 4.45938e-06C22.4738 -0.0025648 26.1144 1.10513 29.2065 3.18168C32.2986 5.25822 34.702 8.20942 36.1098 11.6585C37.5176 15.1076 37.8659 18.8981 37.1104 22.5461C36.3548 26.1942 34.5296 29.5342 31.8678 32.1399L31.832 32.1748V32.1773L31.8177 32.191L31.6575 32.3449L31.5494 32.4476C30.5815 33.3531 29.5206 34.1538 28.3843 34.8362C28.2974 34.8883 28.2183 34.9345 28.1426 34.9787L28.1343 34.9836H28.1298H28.1269L28.0714 35.0156C27.9648 35.077 27.8547 35.1389 27.7432 35.2004C25.0118 36.6981 21.9493 37.4887 18.8345 37.5H18.583C17.147 37.4875 15.7172 37.3111 14.3212 36.9741C12.6154 36.5602 10.9766 35.9075 9.45321 35.0352C9.35986 34.9817 9.28223 34.9369 9.20755 34.8927L9.13926 34.8514C9.05279 34.8023 8.96779 34.7482 8.88524 34.6966C7.7645 34.001 6.71995 33.1896 5.76879 32.2756C5.69755 32.2068 5.62139 32.1325 5.54131 32.0524L5.50151 32.0121C2.87651 29.3915 1.08793 26.0506 0.362247 22.4124C-0.363441 18.7743 0.00640106 15.0026 1.42495 11.5748C2.84349 8.14711 5.24694 5.21752 8.33096 3.15703C11.415 1.09655 15.0409 -0.00216877 18.7495 4.45938e-06Z" fill="#9054DB"/>
<path d="M18.6343 33.2818L18.536 33.2773V33.2852C18.536 33.2852 18.5689 33.2847 18.6343 33.2818Z" fill="white"/>
<path d="M11.6192 30.2253C11.6192 30.2253 10.725 31.7243 10.1399 33.1963C10.2141 33.2405 10.2873 33.2843 10.3644 33.3275C12.8529 34.7464 15.6626 35.5053 18.5268 35.5323C21.391 35.5593 24.2146 34.8535 26.7293 33.4818C26.8499 33.4163 26.9693 33.3488 27.0875 33.2793C26.9593 32.9486 26.8134 32.6149 26.6645 32.2964C26.6443 32.2531 26.6237 32.2099 26.6036 32.1671C26.5141 31.9789 26.4242 31.7965 26.3368 31.6235L26.3009 31.5533C26.1584 31.2736 26.0238 31.022 25.9079 30.816C25.8985 30.7988 25.8892 30.7816 25.8798 30.7669C25.6966 30.4342 25.5742 30.2292 25.5742 30.2292C25.5742 30.2292 25.0829 28.3616 27.1465 28.4599C27.4179 28.4778 27.6847 28.5387 27.937 28.6403C27.0634 27.9782 26.1751 27.4066 25.5251 27.2312C23.8546 26.78 19.3246 27.9286 18.5975 28.1193C17.8664 27.9281 13.3374 26.78 11.6698 27.2312C11.0198 27.4066 10.1315 27.9782 9.25794 28.6403C9.50958 28.5375 9.7759 28.4753 10.047 28.4559C12.1106 28.3577 11.6192 30.2253 11.6192 30.2253Z" fill="#DDE6F0"/>
<path d="M25.5748 30.2262C25.5748 30.2262 25.6971 30.4312 25.8804 30.7639C25.8897 30.7801 25.899 30.7973 25.9084 30.813C26.0224 31.0204 26.157 31.2721 26.3014 31.5503L26.3373 31.6205C26.3802 31.7051 26.4233 31.7914 26.4665 31.8796C26.5122 31.9724 26.5584 32.0678 26.6041 32.1641C26.6242 32.2069 26.6449 32.2501 26.665 32.2934C26.7318 32.4369 26.7981 32.5834 26.8615 32.7313C26.8812 32.7765 26.9008 32.8217 26.92 32.8674C26.9392 32.9131 26.9549 32.949 26.9716 32.9903C27.0112 33.0863 27.0497 33.182 27.087 33.2773C27.091 33.2876 27.0954 33.298 27.0988 33.3083C27.1283 33.382 27.1558 33.4557 27.1824 33.529C27.1917 33.5545 27.201 33.5781 27.2099 33.6056C27.2285 33.6571 27.2462 33.7082 27.2629 33.759L27.6069 33.5083C27.5796 33.446 27.5467 33.3863 27.5086 33.3299C27.4665 33.2676 27.4209 33.2077 27.372 33.1505C28.39 32.5401 29.3405 31.8234 30.2074 31.0126L30.2929 30.9315L30.4551 30.7757L30.458 30.7727L30.4241 30.7418C30.2001 30.5353 29.9244 30.2857 29.6159 30.0159C29.1162 29.5794 28.5306 29.0889 27.9375 28.6397C27.6853 28.5373 27.4185 28.4756 27.147 28.4569C25.0834 28.3586 25.5748 30.2262 25.5748 30.2262Z" fill="#4D4D55"/>
<path d="M6.85887 30.6563C6.92569 30.7236 6.99349 30.7895 7.0613 30.8529C7.99372 31.7494 9.02643 32.5354 10.1389 33.1953C10.7241 31.7208 11.6183 30.2243 11.6183 30.2243C11.6183 30.2243 12.1096 28.3566 10.0461 28.4549C9.77469 28.4729 9.50787 28.5338 9.25554 28.6353C8.34414 29.3273 7.44944 30.1161 6.85887 30.6563Z" fill="#4D4D55"/>
<path d="M22.392 35.1235C22.3917 35.1283 22.3917 35.133 22.392 35.1378C22.4021 35.3073 22.4382 35.4742 22.4991 35.6327C23.2724 36.714 24.4024 35.731 24.4024 35.731C24.4024 35.731 26.1221 36.3699 26.5151 34.8463C26.5151 34.8463 28.0235 34.8463 27.6452 33.6118C27.6349 33.5783 27.6226 33.5455 27.6083 33.5135C27.581 33.4511 27.5481 33.3914 27.5101 33.335C27.468 33.271 27.4222 33.2095 27.373 33.1507C27.2303 32.9805 27.0568 32.8388 26.8615 32.733C25.7688 32.1432 24.2988 32.8219 24.2359 32.8254C24.1651 32.8313 22.332 33.7386 22.392 35.1235Z" fill="#4D4D55"/>
<path d="M10.6598 34.8456C10.6598 34.8456 9.15148 34.8456 9.5298 33.611C9.56067 33.512 9.60604 33.418 9.66442 33.3323C10.6883 31.8087 12.8629 32.8222 12.9396 32.8261C13.0162 32.83 15.3014 33.9653 14.6759 35.6319C13.9026 36.7132 12.7725 35.7302 12.7725 35.7302C12.7725 35.7302 11.0529 36.3692 10.6598 34.8456Z" fill="#4D4D55"/>
<path d="M26.583 31.8952L26.583 31.8953L26.5813 31.8959C22.6937 33.2742 16.7351 34.3097 10.9183 31.8951C7.48915 30.5377 6.14912 28.3983 5.85755 26.3451C5.56782 24.3048 6.31451 22.3577 7.05503 21.362C7.05549 21.3565 7.05597 21.3516 7.05643 21.3469C7.05766 21.3341 7.0587 21.3233 7.0587 21.3104V21.2967L7.06572 21.2849C9.03052 17.9773 11.0449 14.835 12.5688 12.8385C13.3293 11.8421 13.9721 11.1251 14.4278 10.8184C14.5423 10.7414 14.6477 10.6883 14.7426 10.6639C14.838 10.6395 14.9266 10.6434 15.0015 10.6863C15.076 10.7291 15.1282 10.8055 15.1617 10.9078C15.1895 10.9927 15.2055 11.0985 15.2101 11.225C16.761 10.4637 18.0871 10.2604 19.2525 10.3519C20.4044 10.4424 21.3961 10.8207 22.2885 11.2271C22.2982 9.96133 22.5423 8.49445 22.911 7.37578C23.099 6.80544 23.3206 6.32178 23.5627 6.00128C23.8027 5.68356 24.0778 5.50846 24.3685 5.60539C24.6373 5.69504 25.0984 5.98712 25.6506 6.55485C26.2039 7.12382 26.8515 7.97251 27.4921 9.18034C28.7725 11.5941 30.0257 15.4426 30.4447 21.362L30.4595 21.3817L30.4598 21.382C31.2 22.3888 31.9393 24.3389 31.6392 26.3774C31.3384 28.4209 29.9944 30.545 26.583 31.8952Z" fill="white" stroke="#4D4D55" stroke-width="0.1" stroke-miterlimit="10"/>
<path d="M7.10865 21.3596C8.74475 20.6223 11.8592 19.3199 13.8049 19.461C13.8049 19.461 16.4438 12.8604 18.6528 12.4009C20.8637 12.8604 23.5011 19.461 23.5011 19.461C25.5386 19.3135 28.861 20.6971 30.4209 21.4117L30.3973 21.3802C29.5621 9.53552 25.3858 5.99686 24.3541 5.65282C23.3223 5.30878 22.3396 8.74915 22.3396 11.3049C20.5217 10.4693 18.3108 9.73211 15.1624 11.3049C15.1624 8.74915 14.1798 5.30878 13.148 5.65282C12.1162 5.99686 7.9552 9.57091 7.10865 21.3596Z" fill="#4D4D55"/>
<path d="M23.2728 11.9923C23.2728 11.9923 23.5676 8.30617 24.9433 8.89594C26.319 9.48572 28.3826 14.1548 28.5791 18.1358C26.7121 15.6292 23.2728 11.9923 23.2728 11.9923Z" fill="white"/>
<path d="M14.3315 11.9923C14.3315 11.9923 14.0367 8.30617 12.661 8.89594C11.2853 9.48572 9.22178 14.1548 9.02525 18.1358C10.8923 15.6292 14.3315 11.9923 14.3315 11.9923Z" fill="white"/>
<path d="M12.4118 26.344C12.854 25.6559 13.7875 24.7712 15.2123 23.8866C15.3106 24.9678 16.9835 25.909 18.5533 25.8078C20.1231 25.909 21.796 24.9673 21.8943 23.8866C23.3191 24.7712 24.2526 25.6559 24.6948 26.344C22.0613 21.758 18.6024 22.0715 18.5533 22.0765C18.458 22.0681 15.0281 21.7884 12.4118 26.344Z" fill="#4D4D55"/>
<path d="M24.1441 24.3779C22.6982 24.3779 21.5261 23.2054 21.5261 21.7591C21.5261 20.3128 22.6982 19.1402 24.1441 19.1402C25.59 19.1402 26.7621 20.3128 26.7621 21.7591C26.7621 23.2054 25.59 24.3779 24.1441 24.3779Z" fill="white" stroke="#4D4D55" stroke-width="0.2" stroke-miterlimit="10"/>
<path d="M13.336 24.3779C11.89 24.3779 10.7179 23.2054 10.7179 21.7591C10.7179 20.3128 11.89 19.1402 13.336 19.1402C14.7819 19.1402 15.954 20.3128 15.954 21.7591C15.954 23.2054 14.7819 24.3779 13.336 24.3779Z" fill="white" stroke="#4D4D55" stroke-width="0.2" stroke-miterlimit="10"/>
<path d="M22.6339 22.6086C22.254 22.6086 21.9461 22.3005 21.9461 21.9205C21.9461 21.5405 22.254 21.2324 22.6339 21.2324C23.0138 21.2324 23.3218 21.5405 23.3218 21.9205C23.3218 22.3005 23.0138 22.6086 22.6339 22.6086Z" fill="#007EAA"/>
<path d="M14.8419 22.6086C14.462 22.6086 14.1541 22.3005 14.1541 21.9205C14.1541 21.5405 14.462 21.2324 14.8419 21.2324C15.2218 21.2324 15.5298 21.5405 15.5298 21.9205C15.5298 22.3005 15.2218 22.6086 14.8419 22.6086Z" fill="#007EAA"/>
<path d="M15.3747 29.8543C15.3747 29.8543 18.359 30.9243 21.8214 29.8371C21.8214 29.8371 21.955 29.7983 22.1545 29.7177C22.8472 29.439 24.333 28.6561 23.764 27.2348C23.0831 26.1486 21.983 26.4636 21.4877 26.6813C21.3622 26.7372 21.243 26.8066 21.1325 26.8883C20.7326 27.1831 18.2455 28.3332 16.0881 26.8883C15.9782 26.8065 15.8595 26.7371 15.7344 26.6813C15.2381 26.4636 14.1381 26.1486 13.4571 27.2348C12.726 29.0655 15.3747 29.8543 15.3747 29.8543Z" fill="#4D4D55"/>
<path d="M15.375 29.8551C15.375 29.8551 18.3593 30.9251 21.8217 29.8379C21.8217 29.8379 21.9553 29.7991 22.1548 29.7185C22.1548 29.7185 21.065 28.5522 18.5519 28.6372C16.0388 28.7223 15.375 29.8551 15.375 29.8551Z" fill="#F57878"/>
<path d="M16.8676 23.131C16.8512 22.9009 17.1785 22.6901 17.5986 22.6602C18.0186 22.6303 18.3724 22.7926 18.3888 23.0227C18.4052 23.2529 18.0779 23.4637 17.6578 23.4936C17.2378 23.5235 16.884 23.3612 16.8676 23.131Z" fill="white"/>
<path d="M27.3848 26.9567C25.9059 26.9567 24.7071 26.3626 24.7071 25.6297C24.7071 24.8969 25.9059 24.3027 27.3848 24.3027C28.8636 24.3027 30.0625 24.8969 30.0625 25.6297C30.0625 26.3626 28.8636 26.9567 27.3848 26.9567Z" fill="#FFC2D8"/>
<path d="M9.62259 26.9821C8.14373 26.9821 6.94488 26.388 6.94488 25.6551C6.94488 24.9222 8.14373 24.3281 9.62259 24.3281C11.1014 24.3281 12.3003 24.9222 12.3003 25.6551C12.3003 26.388 11.1014 26.9821 9.62259 26.9821Z" fill="#FFC2D8"/>
</svg>
