<svg width="24" height="24" viewBox="0 0 24 24" fill="none" xmlns="http://www.w3.org/2000/svg">
<path d="M12 24C18.6274 24 24 18.6274 24 12C24 5.37258 18.6274 0 12 0C5.37258 0 0 5.37258 0 12C0 18.6274 5.37258 24 12 24Z" fill="#FF007A"/>
<mask id="mask0_99296_14613" style="mask-type:alpha" maskUnits="userSpaceOnUse" x="0" y="0" width="24" height="24">
<path d="M12 24C18.6274 24 24 18.6274 24 12C24 5.37258 18.6274 0 12 0C5.37258 0 0 5.37258 0 12C0 18.6274 5.37258 24 12 24Z" fill="#FF007A"/>
</mask>
<g mask="url(#mask0_99296_14613)">
</g>
<g clip-path="url(#clip0_99296_14613)">
<path d="M9.23522 5.2339C8.97319 5.19829 8.96071 5.18643 9.08549 5.17456C9.32257 5.13895 9.87158 5.18643 10.2584 5.2695C11.1568 5.47126 11.9678 5.99344 12.8288 6.90727L13.0534 7.1565L13.3778 7.10903C14.7629 6.89541 16.1853 7.06156 17.3707 7.58374C17.6951 7.72616 18.2067 8.01099 18.2691 8.0822C18.294 8.10593 18.3315 8.26022 18.3564 8.4145C18.4438 8.97229 18.4063 9.38767 18.2192 9.7081C18.1194 9.88612 18.1194 9.93359 18.1817 10.0879C18.2317 10.2066 18.3814 10.2896 18.5186 10.2896C18.8181 10.2896 19.1301 9.83865 19.2798 9.20965L19.3422 8.96042L19.4545 9.0791C20.0908 9.75557 20.5899 10.6931 20.6648 11.3577L20.6898 11.5358L20.5775 11.3815C20.3903 11.1085 20.2156 10.9305 19.9785 10.7762C19.5543 10.5033 19.1051 10.4202 17.9197 10.3608C16.8466 10.3015 16.2352 10.2184 15.6363 10.0285C14.6131 9.7081 14.0891 9.29272 12.8787 7.76176C12.3422 7.08529 12.0053 6.71739 11.6684 6.40882C10.9322 5.73235 10.196 5.37631 9.23522 5.2339Z" fill="white"/>
<path d="M18.5319 6.74144C18.5569 6.29046 18.6192 5.99376 18.7565 5.7208C18.8064 5.61399 18.8563 5.51904 18.8688 5.51904C18.8813 5.51904 18.8563 5.60212 18.8189 5.69706C18.7191 5.95816 18.7066 6.32606 18.769 6.74144C18.8563 7.27549 18.8938 7.3467 19.4927 7.92823C19.7672 8.20119 20.0916 8.54536 20.2164 8.68777L20.4285 8.94887L20.2164 8.75898C19.9544 8.52162 19.3554 8.07064 19.2182 8.0113C19.1308 7.96383 19.1184 7.96383 19.056 8.02317C19.0061 8.07064 18.9936 8.14185 18.9936 8.48602C18.9811 9.02008 18.9062 9.35238 18.7191 9.69655C18.6192 9.87457 18.6068 9.83896 18.6941 9.63721C18.7565 9.48292 18.769 9.41172 18.769 8.9014C18.769 7.86889 18.6442 7.61966 17.8831 7.20429C17.6959 7.09747 17.3715 6.94319 17.1843 6.86012C16.9847 6.77704 16.8349 6.70583 16.8474 6.70583C16.8724 6.6821 17.6085 6.88385 17.8955 7.00253C18.3323 7.16868 18.4071 7.18055 18.457 7.16868C18.4945 7.13308 18.5194 7.03814 18.5319 6.74144Z" fill="white"/>
<path d="M9.74716 8.50957C9.2231 7.82123 8.8862 6.75312 8.96107 5.95797L8.98602 5.70874L9.1108 5.73248C9.3354 5.76808 9.72221 5.91049 9.90937 6.01731C10.4085 6.30214 10.6331 6.69378 10.8452 7.66694C10.9076 7.95177 10.9949 8.28407 11.0324 8.39089C11.0948 8.5689 11.3318 8.98428 11.5315 9.24538C11.6687 9.43526 11.5814 9.5302 11.2694 9.50647C10.7953 9.459 10.1589 9.04362 9.74716 8.50957Z" fill="white"/>
<path d="M17.8953 13.672C15.4247 12.7226 14.5513 11.9037 14.5513 10.5151C14.5513 10.3134 14.5637 10.1472 14.5637 10.1472C14.5762 10.1472 14.6636 10.2184 14.7759 10.3015C15.275 10.6813 15.8365 10.8474 17.3962 11.061C18.3071 11.1916 18.8311 11.2865 19.3053 11.4408C20.8151 11.9155 21.7509 12.8887 21.9755 14.206C22.0379 14.5858 22.0005 15.3098 21.9007 15.6895C21.8133 15.9862 21.5638 16.5321 21.5014 16.544C21.4889 16.544 21.4639 16.4847 21.4639 16.3897C21.439 15.8913 21.1769 15.4166 20.7402 15.0487C20.2162 14.6214 19.5424 14.301 17.8953 13.672Z" fill="white"/>
<path d="M16.1479 14.0632C16.123 13.8852 16.0606 13.6597 16.0232 13.5647L15.9608 13.3867L16.0731 13.5173C16.2353 13.6953 16.3601 13.9089 16.4723 14.2056C16.5597 14.4311 16.5597 14.5023 16.5597 14.8702C16.5597 15.2262 16.5472 15.3093 16.4723 15.5111C16.3476 15.8315 16.1978 16.057 15.9483 16.3062C15.4991 16.7453 14.9126 16.9827 14.0766 17.0895C13.9269 17.1014 13.5027 17.137 13.1283 17.1607C12.1925 17.2082 11.5686 17.3031 11.0071 17.493C10.9322 17.5167 10.8574 17.5405 10.8449 17.5286C10.8199 17.5049 11.2068 17.2913 11.5187 17.1488C11.9554 16.9471 12.4046 16.8403 13.3904 16.6741C13.877 16.6029 14.3761 16.508 14.5009 16.4605C15.7362 16.0926 16.3476 15.1788 16.1479 14.0632Z" fill="white"/>
<path d="M17.2841 15.9739C16.9597 15.2974 16.8848 14.6566 17.0595 14.0513C17.0844 13.992 17.1094 13.9326 17.1344 13.9326C17.1593 13.9326 17.2342 13.9682 17.309 14.0157C17.4588 14.1106 17.7707 14.2768 18.5693 14.6922C19.58 15.2143 20.154 15.6179 20.5532 16.0807C20.9026 16.4842 21.1147 16.9471 21.2146 17.5167C21.2769 17.8372 21.2395 18.6086 21.1522 18.929C20.8777 19.9378 20.2538 20.7448 19.3429 21.2076C19.2056 21.2788 19.0933 21.3263 19.0809 21.3263C19.0684 21.3263 19.1183 21.2076 19.1932 21.0652C19.4926 20.46 19.5301 19.8784 19.3055 19.2257C19.1682 18.8222 18.8812 18.3356 18.3073 17.5167C17.621 16.5673 17.4588 16.3181 17.2841 15.9739Z" fill="white"/>
<path d="M7.98713 19.6055C8.91048 18.8697 10.046 18.3475 11.0941 18.1813C11.5433 18.1101 12.2919 18.1339 12.7037 18.2407C13.365 18.4068 13.964 18.7629 14.2759 19.202C14.5754 19.6292 14.7126 19.9971 14.8499 20.816C14.8998 21.1364 14.9622 21.4687 14.9747 21.5399C15.0745 21.9672 15.2741 22.2995 15.5237 22.4775C15.9105 22.7505 16.5843 22.7623 17.2456 22.525C17.3579 22.4894 17.4577 22.4538 17.4577 22.4656C17.4827 22.4894 17.1458 22.703 16.9212 22.8098C16.6092 22.9641 16.3597 23.0116 16.0228 23.0116C15.4239 23.0116 14.9123 22.7149 14.5005 22.1215C14.4132 22.0028 14.2385 21.6586 14.0887 21.3382C13.652 20.3769 13.4274 20.0921 12.9158 19.7716C12.4666 19.4987 11.8927 19.4393 11.4559 19.6411C10.882 19.9022 10.7322 20.6024 11.1315 21.0296C11.2937 21.2076 11.5932 21.3501 11.8427 21.3857C12.3044 21.445 12.7037 21.1008 12.7037 20.6617C12.7037 20.3769 12.5914 20.2107 12.2919 20.0802C11.8927 19.914 11.4559 20.1039 11.4684 20.4718C11.4684 20.6261 11.5433 20.7211 11.7055 20.7923C11.8053 20.8397 11.8053 20.8397 11.7304 20.8279C11.3686 20.7567 11.2812 20.3294 11.5682 20.0565C11.9176 19.7242 12.6538 19.8666 12.9034 20.3294C13.0032 20.5193 13.0157 20.8991 12.9283 21.1364C12.7162 21.6586 12.1173 21.9316 11.5058 21.7773C11.0941 21.6705 10.9194 21.5637 10.4203 21.0771C9.54684 20.2226 9.20995 20.0565 7.96217 19.8784L7.7251 19.8428L7.98713 19.6055Z" fill="white"/>
<path fill-rule="evenodd" clip-rule="evenodd" d="M1.42382 0.51032C4.33113 3.86894 8.81063 9.09081 9.03523 9.37564C9.22239 9.613 9.14753 9.83849 8.83559 10.0046C8.6609 10.0996 8.29904 10.1945 8.12436 10.1945C7.92471 10.1945 7.68764 10.0996 7.52542 9.9453C7.41313 9.83849 6.92649 9.16202 5.82846 7.53612C4.99245 6.28999 4.28122 5.25748 4.26874 5.24561C4.21883 5.22188 4.21883 5.22188 5.74111 7.80908C6.7019 9.43498 7.01384 10.0165 7.01384 10.0877C7.01384 10.242 6.96393 10.3251 6.76428 10.5387C6.42739 10.8947 6.27765 11.2982 6.16535 12.1409C6.04058 13.0784 5.70368 13.743 4.74289 14.8705C4.1814 15.5351 4.09405 15.6538 3.9568 15.9267C3.78211 16.259 3.7322 16.4489 3.70724 16.8762C3.68229 17.3271 3.7322 17.612 3.86945 18.0392C3.99423 18.419 4.13149 18.6682 4.46838 19.1548C4.75537 19.582 4.93006 19.9025 4.93006 20.0212C4.93006 20.1161 4.95501 20.1161 5.40421 20.0212C6.4773 19.7838 7.36321 19.3803 7.84985 18.8818C8.14931 18.5733 8.22418 18.4071 8.22418 17.9799C8.22418 17.7069 8.2117 17.6476 8.13683 17.4814C8.01206 17.2203 7.77498 17.0067 7.26339 16.6744C6.5896 16.2353 6.30261 15.8793 6.22774 15.4045C6.16535 15.001 6.24022 14.7281 6.61455 13.9804C7.00136 13.209 7.10118 12.8885 7.16357 12.1053C7.201 11.6068 7.26339 11.4051 7.41313 11.2508C7.57534 11.0846 7.71259 11.0253 8.0994 10.9778C8.73576 10.8947 9.14753 10.7405 9.47195 10.4438C9.75894 10.1945 9.88371 9.9453 9.89619 9.5774L9.90867 9.30444L9.74646 9.13829C9.16001 8.49742 1.03701 0 0.999578 0C0.987101 0 1.18674 0.22549 1.42382 0.51032ZM5.25448 17.3865C5.39174 17.161 5.31687 16.8762 5.09227 16.7337C4.88015 16.6032 4.55573 16.6625 4.55573 16.8406C4.55573 16.888 4.58068 16.9355 4.65555 16.9592C4.76785 17.0186 4.78033 17.0779 4.69298 17.2085C4.60564 17.339 4.60564 17.4577 4.71794 17.5408C4.89263 17.6713 5.1297 17.6001 5.25448 17.3865Z" fill="white"/>
<path fill-rule="evenodd" clip-rule="evenodd" d="M10.3086 11.144C10.0091 11.2271 9.72216 11.5356 9.63481 11.8442C9.5849 12.0341 9.60986 12.3783 9.6972 12.4851C9.83446 12.6512 9.95923 12.6987 10.3086 12.6987C10.9949 12.6987 11.5813 12.4139 11.6437 12.0697C11.7061 11.7849 11.4441 11.3932 11.0822 11.2152C10.8951 11.1203 10.5083 11.0847 10.3086 11.144ZM11.1072 11.7374C11.207 11.595 11.1696 11.4407 10.9824 11.3339C10.6455 11.1321 10.1339 11.2983 10.1339 11.6068C10.1339 11.7611 10.396 11.9273 10.6455 11.9273C10.8077 11.9273 11.0323 11.8323 11.1072 11.7374Z" fill="white"/>
</g>
<path d="M23.5 12C23.5 18.3513 18.3513 23.5 12 23.5C5.64873 23.5 0.5 18.3513 0.5 12C0.5 5.64873 5.64873 0.5 12 0.5C18.3513 0.5 23.5 5.64873 23.5 12Z" stroke="black" stroke-opacity="0.097"/>
<defs>
<clipPath id="clip0_99296_14613">
<rect width="21" height="23" fill="white" transform="translate(1)"/>
</clipPath>
</defs>
</svg>
