<svg width="38" height="38" viewBox="0 0 38 38" fill="none" xmlns="http://www.w3.org/2000/svg">
<circle cx="19" cy="19" r="19" fill="#F7F7F8"/>
<path d="M17.7049 10.6213L13.4253 12.2336C12.439 12.6024 11.6328 13.7688 11.6328 14.8151V21.1874C11.6328 22.1994 12.3018 23.5287 13.1165 24.1377L16.8044 26.8907C18.0136 27.7998 20.0034 27.7998 21.2126 26.8907L24.9005 24.1377C25.7152 23.5287 26.3842 22.1994 26.3842 21.1874V14.8151C26.3842 13.7602 25.578 12.5938 24.5917 12.2251L20.3121 10.6213C19.5831 10.3554 18.4167 10.3554 17.7049 10.6213Z" stroke="black" stroke-width="1.5" stroke-linecap="round" stroke-linejoin="round"/>
<path d="M18.9999 19.4286C19.9473 19.4286 20.7152 18.6606 20.7152 17.7133C20.7152 16.766 19.9473 15.998 18.9999 15.998C18.0526 15.998 17.2847 16.766 17.2847 17.7133C17.2847 18.6606 18.0526 19.4286 18.9999 19.4286Z" stroke="black" stroke-width="1.5" stroke-miterlimit="10" stroke-linecap="round" stroke-linejoin="round"/>
<path d="M19 19.4297V22.0026" stroke="black" stroke-width="1.5" stroke-miterlimit="10" stroke-linecap="round" stroke-linejoin="round"/>
</svg>
