<svg width="38" height="38" viewBox="0 0 38 38" fill="none" xmlns="http://www.w3.org/2000/svg">
<rect width="38" height="38" rx="19" fill="#D87C30" fill-opacity="0.1"/>
<g clip-path="url(#clip0_103109_9444)">
<path fill-rule="evenodd" clip-rule="evenodd" d="M14.604 26.1964L17.3116 26.8647V25.9908L17.5326 25.7852H19.0798V26.8133V27.533H17.4221L15.3776 26.7105L14.604 26.1964Z" fill="#CDBDB2"/>
<path fill-rule="evenodd" clip-rule="evenodd" d="M23.4453 26.1964L20.793 26.8647V25.9908L20.572 25.7852H19.0248V26.8133V27.533H20.6825L22.727 26.7105L23.4453 26.1964Z" fill="#CDBDB2"/>
<path fill-rule="evenodd" clip-rule="evenodd" d="M17.5325 24.2941L17.3115 25.9906L17.5878 25.7849H20.4611L20.7927 25.9906L20.5716 24.2941L20.1296 24.0371L17.9193 24.0885L17.5325 24.2941Z" fill="#393939"/>
<path fill-rule="evenodd" clip-rule="evenodd" d="M16.041 12.8301L17.3672 15.7089L17.975 24.0882H20.13L20.7931 15.7089L22.0087 12.8301H16.041Z" fill="#F89C35"/>
<path fill-rule="evenodd" clip-rule="evenodd" d="M10.2396 19.1535L8.69238 23.3175L12.5603 23.1119H15.0469V21.3126L14.9364 17.6113L14.3838 18.0226L10.2396 19.1535Z" fill="#F89D35"/>
<path fill-rule="evenodd" clip-rule="evenodd" d="M13.1675 19.6152L17.6985 19.718L17.2012 21.8771L15.0462 21.3631L13.1675 19.6152Z" fill="#D87C30"/>
<path fill-rule="evenodd" clip-rule="evenodd" d="M13.1675 19.668L15.0462 21.313V22.958L13.1675 19.668Z" fill="#EA8D3A"/>
<path fill-rule="evenodd" clip-rule="evenodd" d="M15.0464 21.3633L17.2566 21.8774L17.975 24.0878L17.4777 24.3449L15.0464 23.0083V21.3633Z" fill="#F89D35"/>
<path fill-rule="evenodd" clip-rule="evenodd" d="M15.0461 23.0078L14.604 26.195L17.5326 24.293L15.0461 23.0078Z" fill="#EB8F35"/>
<path fill-rule="evenodd" clip-rule="evenodd" d="M17.6986 19.7188L17.9748 24.0883L17.146 21.8521L17.6986 19.7188Z" fill="#EA8E3A"/>
<path fill-rule="evenodd" clip-rule="evenodd" d="M12.5044 23.0592L15.0462 23.0078L14.6041 26.195L12.5044 23.0592Z" fill="#D87C30"/>
<path fill-rule="evenodd" clip-rule="evenodd" d="M9.90802 27.5844L14.6048 26.1964L12.5051 23.0605L8.69238 23.3176L9.90802 27.5844Z" fill="#EB8F35"/>
<path fill-rule="evenodd" clip-rule="evenodd" d="M17.367 15.709L14.9909 17.5596L13.1675 19.6159L17.6985 19.7701L17.367 15.709Z" fill="#E8821E"/>
<path fill-rule="evenodd" clip-rule="evenodd" d="M14.604 26.195L17.5326 24.293L17.3116 25.938V26.8633L15.3223 26.5035L14.604 26.195Z" fill="#DFCEC3"/>
<path fill-rule="evenodd" clip-rule="evenodd" d="M23.4453 26.195L20.572 24.293L20.793 25.938V26.8633L22.7822 26.5035L23.4453 26.195Z" fill="#DFCEC3"/>
<path fill-rule="evenodd" clip-rule="evenodd" d="M16.483 20.6445L17.0908 21.8269L14.9358 21.3128L16.483 20.6445Z" fill="#393939"/>
<path fill-rule="evenodd" clip-rule="evenodd" d="M9.85205 10.4141L17.3669 15.709L16.096 12.8302L9.85205 10.4141Z" fill="#E88F35"/>
<path fill-rule="evenodd" clip-rule="evenodd" d="M9.85204 10.4141L8.85742 13.2414L9.40999 16.3259L9.02319 16.5315L9.57575 16.9942L9.1337 17.354L9.74152 17.8681L9.35473 18.1765L10.2388 19.2046L14.3831 18.0223C16.4091 16.5144 17.4037 15.7432 17.3669 15.709C17.3301 15.6747 14.8251 13.9097 9.85204 10.4141Z" fill="#8E5A30"/>
<path fill-rule="evenodd" clip-rule="evenodd" d="M27.8102 19.1535L29.3574 23.3175L25.4895 23.1119H23.0029V21.3126L23.1135 17.6113L23.666 18.0226L27.8102 19.1535Z" fill="#F89D35"/>
<path fill-rule="evenodd" clip-rule="evenodd" d="M24.8818 19.6152L20.3508 19.718L20.8481 21.8771L23.0031 21.3631L24.8818 19.6152Z" fill="#D87C30"/>
<path fill-rule="evenodd" clip-rule="evenodd" d="M24.8818 19.668L23.0031 21.313V22.958L24.8818 19.668Z" fill="#EA8D3A"/>
<path fill-rule="evenodd" clip-rule="evenodd" d="M23.0029 21.3633L20.7927 21.8774L20.0743 24.0878L20.5716 24.3449L23.0029 23.0083V21.3633Z" fill="#F89D35"/>
<path fill-rule="evenodd" clip-rule="evenodd" d="M23.0028 23.0078L23.4448 26.195L20.5715 24.3444L23.0028 23.0078Z" fill="#EB8F35"/>
<path fill-rule="evenodd" clip-rule="evenodd" d="M20.3508 19.7188L20.0745 24.0883L20.9033 21.8521L20.3508 19.7188Z" fill="#EA8E3A"/>
<path fill-rule="evenodd" clip-rule="evenodd" d="M25.5449 23.0592L23.0031 23.0078L23.4452 26.195L25.5449 23.0592Z" fill="#D87C30"/>
<path fill-rule="evenodd" clip-rule="evenodd" d="M28.1418 27.5844L23.445 26.1964L25.5447 23.0605L29.3574 23.3176L28.1418 27.5844Z" fill="#EB8F35"/>
<path fill-rule="evenodd" clip-rule="evenodd" d="M20.6824 15.709L23.0584 17.5596L24.8818 19.6159L20.3508 19.7701L20.6824 15.709Z" fill="#E8821E"/>
<path fill-rule="evenodd" clip-rule="evenodd" d="M21.5663 20.6445L20.9585 21.8269L23.1135 21.3128L21.5663 20.6445Z" fill="#393939"/>
<path fill-rule="evenodd" clip-rule="evenodd" d="M28.1973 10.4141L20.6824 15.709L21.9533 12.8302L28.1973 10.4141Z" fill="#E88F35"/>
<path fill-rule="evenodd" clip-rule="evenodd" d="M28.1963 10.4141L29.1909 13.2414L28.6384 16.3259L29.0251 16.5315L28.4726 16.9942L28.9146 17.354L28.3068 17.8681L28.6936 18.1765L27.8095 19.2046L23.6653 18.0223C21.6392 16.5144 20.6446 15.7432 20.6814 15.709C20.7183 15.6747 23.2232 13.9097 28.1963 10.4141Z" fill="#8E5A30"/>
</g>
<defs>
<clipPath id="clip0_103109_9444">
<rect width="20.7273" height="17.2727" fill="white" transform="translate(8.63623 10.3633)"/>
</clipPath>
</defs>
</svg>
