<svg width="64" height="18" viewBox="0 0 64 18" fill="none" xmlns="http://www.w3.org/2000/svg">
<g opacity="0.1">
<path d="M33.3323 24.2461C25.7043 20.1357 15.9807 22.5775 11.5843 29.6847L10.9546 30.7026C8.22475 35.1156 9.85099 40.7789 14.5792 43.3268L25.0075 48.9462C29.7357 51.4941 35.8038 49.9769 38.5336 45.5639L39.1633 44.5459C43.5602 37.4379 40.964 28.3586 33.3323 24.2461Z" fill="white"/>
<path d="M43.3037 26.3632C47.0739 28.3949 51.9113 27.1848 54.0878 23.6663C56.2643 20.1478 54.968 15.6325 51.1982 13.6011C47.4284 11.5697 42.5906 12.7796 40.4141 16.2981C38.2373 19.8169 39.5339 24.3318 43.3037 26.3632Z" fill="white"/>
<path d="M26.3862 17.246C30.156 19.2774 34.9938 18.0676 37.1703 14.5491C39.3468 11.0306 38.0505 6.51531 34.2807 4.48391C30.5109 2.45252 25.6731 3.66239 23.4966 7.18087C21.3201 10.6993 22.616 15.2144 26.3862 17.246Z" fill="white"/>
<path d="M15.2314 8.55325C11.4616 6.52186 6.62377 7.73173 4.44727 11.2502C2.27078 14.7687 3.56707 19.284 7.33687 21.3154C11.1067 23.3468 15.9445 22.1369 18.121 18.6184C20.2975 15.1 19.0016 10.5849 15.2314 8.55325Z" fill="white"/>
</g>
</svg>
