<svg width="47" height="70" viewBox="0 0 47 70" fill="none" xmlns="http://www.w3.org/2000/svg">
<g opacity="0.05">
<path d="M6.24202 31.4045C-3.74721 26.0217 -16.4809 29.2193 -22.2383 38.5265L-23.0629 39.8596C-26.6378 45.6387 -24.5081 53.0552 -18.3163 56.3917L-4.65971 63.7507C1.53216 67.0872 9.47862 65.1004 13.0535 59.3213L13.8781 57.9882C19.6361 48.6799 16.2362 36.7899 6.24202 31.4045Z" fill="white"/>
<path d="M37.1681 40.2884C32.2308 37.6279 25.8959 39.2126 23.0457 43.8203C20.1954 48.4279 21.893 54.341 26.8298 57.0012C31.7665 59.6615 38.102 58.0771 40.9522 53.4694C43.8025 48.8617 42.1049 42.9487 37.1681 40.2884Z" fill="white"/>
<path d="M19.3049 34.176C24.2422 36.8366 30.5771 35.2519 33.4273 30.6442C36.2776 26.0365 34.58 20.1235 29.6432 17.4632C24.7064 14.803 18.371 16.3874 15.5208 20.9951C12.6702 25.6033 14.3681 31.5158 19.3049 34.176Z" fill="white"/>
<path d="M-2.85529 22.2366C2.08149 24.8968 8.41692 23.3124 11.2672 18.7048C14.1174 14.0971 12.4199 8.18403 7.48307 5.52379C2.54628 2.86355 -3.78914 4.44795 -6.6394 9.05562C-9.48965 13.6633 -7.79263 19.576 -2.85529 22.2366Z" fill="white"/>
</g>
</svg>
