<svg width="59" height="28" viewBox="0 0 59 28" fill="none" xmlns="http://www.w3.org/2000/svg">
<g opacity="0.2">
<path d="M32.0856 -2.57851C26.5729 -9.21768 16.3649 -10.4155 9.26372 -5.27913L8.24662 -4.54345C3.83735 -1.35415 3.03047 4.58902 6.44758 8.70434L13.9842 17.7809C17.4013 21.8962 23.7689 22.65 28.1782 19.4607L29.1953 18.725C36.2972 13.588 37.6011 4.06396 32.0856 -2.57851Z" fill="white"/>
<path d="M51.6158 12.3569C48.8911 9.07537 43.8146 8.47506 40.2991 11.0179C36.7836 13.5607 36.14 18.299 38.8645 21.5802C41.5889 24.8613 46.6657 25.462 50.1812 22.9192C53.6967 20.3763 54.3403 15.638 51.6158 12.3569Z" fill="white"/>
<path d="M40.6423 3.01965C43.3671 6.30116 48.4435 6.90148 51.959 4.35864C55.4746 1.81581 56.1181 -2.92251 53.3937 -6.20365C50.6692 -9.4848 45.5925 -10.0855 42.077 -7.54265C38.561 -4.99953 37.9179 -0.2615 40.6423 3.01965Z" fill="white"/>
</g>
</svg>
