<svg width="483" height="509" viewBox="0 0 483 509" fill="none" xmlns="http://www.w3.org/2000/svg">
<path d="M291.591 473.885C285.183 470.751 281.102 463.816 279.124 454.133C277.145 444.442 277.249 431.905 279.291 417.399C283.376 388.381 295.235 351.366 313.886 313.221C332.537 275.076 354.467 242.986 374.86 221.941C385.055 211.421 394.885 203.64 403.749 199.251C412.606 194.866 420.585 193.827 426.993 196.961C433.406 200.096 437.827 207.715 440.371 218.286C442.92 228.881 443.612 242.561 442.464 258.012C440.167 288.919 430.497 327.013 413.44 361.898C399.722 389.955 375.594 420.977 351.79 443.468C339.888 454.714 328.046 463.846 317.606 469.409C312.386 472.191 307.498 474.09 303.115 474.907C298.733 475.724 294.822 475.464 291.591 473.885Z" fill="white" stroke="#1A1A1F"/>
<path d="M298.426 475.653L428.366 196.699L589.301 224.117V475.653H298.426Z" fill="#F8F1FD"/>
<path d="M291.591 473.885C285.183 470.751 281.102 463.816 279.124 454.133C277.145 444.442 277.249 431.905 279.291 417.399C283.376 388.381 295.235 351.366 313.886 313.221C332.537 275.076 354.467 242.986 374.86 221.941C385.055 211.421 394.885 203.64 403.749 199.251C412.606 194.866 420.585 193.827 426.993 196.961C433.406 200.096 437.827 207.715 440.371 218.286C442.92 228.881 443.612 242.561 442.464 258.012C440.167 288.919 430.497 327.013 413.44 361.898C399.722 389.955 375.594 420.977 351.79 443.468C339.888 454.714 328.046 463.846 317.606 469.409C312.386 472.191 307.498 474.09 303.115 474.907C298.733 475.724 294.822 475.464 291.591 473.885Z" fill="white" stroke="#7B40E4"/>
<mask id="mask0_99770_11872" style="mask-type:alpha" maskUnits="userSpaceOnUse" x="41" y="53" width="402" height="422">
<path d="M244.001 71.6963C-226.301 330.399 266.98 461.294 291.809 473.435C316.638 485.575 385.615 417.664 412.989 361.678C447.048 292.021 451.601 209.549 426.772 197.409C401.943 185.269 281.27 -4.52609 244.001 71.6963Z" fill="white"/>
</mask>
<g mask="url(#mask0_99770_11872)">
<path d="M280.667 208.303C300.493 197.855 308.973 174.975 299.608 157.197C290.239 139.422 265.633 131.866 246.746 143.927C240.444 147.953 229.76 175.31 231.31 192.016C233.165 212.023 260.84 218.751 280.667 208.303Z" fill="#1A1A1F"/>
<path d="M393.383 276.053C393.483 276.102 393.589 276.143 393.689 276.195C414.253 286.672 440.277 286.868 455.891 283.477C461.43 298.324 455.195 318.074 423.104 328.731C378.555 343.524 342.664 326.361 335.807 299.584C356.461 301.635 381.103 291.207 393.383 276.053Z" fill="#1A1A1F"/>
<path d="M467.485 255.47C464.216 245.618 458.123 232.603 447.949 219.363C442.399 212.139 449.298 207.465 456.625 213.079C468.503 222.177 480.188 233.724 487.415 251.795C483.953 257.782 474.893 250.198 467.485 255.47Z" fill="#1A1A1F"/>
<path d="M337.949 349.334C340.848 348.799 343.708 348.58 346.497 348.59C349.457 365.985 343.792 386.987 336.075 405.168C321.563 403.937 309.759 395.564 307.53 383.531C304.709 368.278 318.326 352.967 337.949 349.334Z" fill="#1A1A1F"/>
<path d="M268.592 439.474C272.45 439.474 276.611 437.693 278.85 433.22C281.977 426.959 287.852 414.015 292.051 397.612C292.261 396.774 291.755 395.924 290.921 395.708C290.074 395.496 268.773 393.457 276.048 395.708C271.932 411.822 275.272 424.209 272.199 430.354C270.067 434.618 269.497 436.988 266.08 435.993C263.216 435.165 260.308 432.759 260.737 428.498C262.121 414.672 259.809 403.96 257.365 392.62C255.516 384.056 253.606 375.199 253.084 364.236C253.042 363.373 252.269 362.677 251.448 362.748C250.582 362.786 249.915 363.521 249.957 364.384C250.492 375.608 252.427 384.591 254.302 393.277C256.695 404.369 258.956 414.849 257.619 428.183C257.11 433.275 260.089 437.519 265.21 439.001C266.266 439.307 267.416 439.474 268.592 439.474Z" fill="white"/>
<path d="M252.087 366.635C256.724 381.286 269.147 390.514 285.021 395.599C284.503 401.995 282.245 407.941 278.049 412.749C273.272 418.221 266.709 421.442 259.372 422.489C260.035 402.375 253.249 389.985 252.087 366.635Z" fill="#1A1A1F"/>
<path d="M268.592 439.474C272.45 439.474 276.611 437.693 278.85 433.22C281.977 426.959 287.852 414.015 292.051 397.612C292.261 396.774 291.755 395.924 290.921 395.708C290.074 395.496 289.227 396.001 289.011 396.842C284.895 412.955 279.12 425.671 276.048 431.816C273.916 436.08 269.497 436.988 266.08 435.993C263.216 435.165 260.308 432.759 260.737 428.498C262.121 414.672 259.809 403.96 257.365 392.62C255.516 384.056 253.606 375.199 253.084 364.236C253.042 363.373 252.269 362.677 251.448 362.748C250.582 362.786 249.915 363.521 249.957 364.384C250.492 375.608 252.427 384.591 254.302 393.277C256.695 404.369 258.956 414.849 257.619 428.183C257.11 433.275 260.089 437.519 265.21 439.001C266.266 439.307 267.416 439.474 268.592 439.474Z" fill="#1A1A1F"/>
<path d="M404.546 431.499C406.427 431.499 408.243 431.129 409.667 430.343C414.424 427.728 438.528 406.185 440.708 382.841L437.587 382.558C435.519 404.693 412.669 425.119 408.156 427.602C405.551 429.029 400.263 428.327 398.227 426.275C397.586 425.628 396.868 424.527 398.031 422.462C407.876 405.025 406.334 385.946 406.263 385.141L403.142 385.411C403.158 385.601 404.659 404.355 395.306 420.923C393.741 423.696 393.995 426.446 396.002 428.475C397.918 430.414 401.325 431.499 404.546 431.499Z" fill="#1A1A1F"/>
<path d="M442.02 442.889C444.951 442.889 448.474 441.894 452.4 439.294C474.903 424.415 492.859 375.277 496.595 338.284C498.769 316.734 496.041 300.582 488.91 292.566C502.682 262.862 483.103 230.88 457.328 212.197C453.186 209.192 448.703 208.667 446.423 210.934C445.679 211.672 443.55 214.509 447.421 219.91C459.466 235.086 470.262 257.387 467.686 270.765C466.955 274.566 465.122 277.326 462.246 278.972C445.701 288.424 412.605 284.679 394.07 275.017C393.307 274.614 392.357 274.917 391.957 275.683C391.558 276.45 391.858 277.397 392.624 277.796C411.916 287.857 445.885 291.922 463.798 281.693C467.505 279.571 469.847 276.096 470.761 271.361C473.518 257.052 462.365 233.698 449.92 218.026C448.159 215.563 447.991 213.791 448.632 213.153C449.428 212.361 452.159 212.319 455.486 214.732C480.485 232.851 499.5 263.825 485.628 292.17L485.135 293.178L485.928 293.967C492.952 300.991 495.632 316.615 493.477 337.968C489.802 374.404 471.724 422.763 450.674 436.686C444.448 440.799 439.762 440.216 437.447 438.299C435.633 436.795 435.134 434.373 436.139 431.977C446.349 407.648 448.941 392.14 443.849 385.895C442.406 384.121 440.925 382.378 439.45 380.642C429.25 368.626 419.614 357.276 422.264 336.97C422.377 336.113 421.771 335.327 420.915 335.215C420.052 335.089 419.272 335.707 419.156 336.567C416.328 358.246 426.87 370.661 437.063 382.668C438.525 384.391 439.991 386.114 441.421 387.87C445.605 393.01 442.703 408.241 433.253 430.763C431.714 434.425 432.577 438.328 435.446 440.712C436.996 441.99 439.24 442.889 442.02 442.889Z" fill="#1A1A1F"/>
<path d="M297.384 400.36C298.128 400.36 298.788 399.828 298.923 399.072C299.078 398.221 298.511 397.406 297.661 397.255C277.567 393.632 309.495 388.622 307.961 361.211C307.749 357.414 327.516 316.552 327.5 308.758C327.429 278.12 251.321 256.482 238.728 243.982C233.44 238.733 224.081 231.602 214.177 224.053C196.186 210.342 173.796 193.276 172.92 184.686C171.538 171.104 173.986 133.564 183.013 125.087C184.334 123.847 185.693 123.358 187.168 123.609C197.983 125.406 207.89 127.905 219.362 130.801C223.324 131.802 227.456 132.843 231.849 133.915C245.579 137.255 253.002 131.76 260.874 125.947C266.558 121.744 272.436 117.399 281.515 115.148C305.635 109.167 330.531 117.412 349.813 137.764C365.984 154.837 375.041 177.974 370.877 191.582L370.683 192.206L370.993 192.783C386.871 222.301 396.198 268.479 393.405 272.559C384.465 285.578 365.949 295.79 347.33 297.974C333.761 299.565 357.62 256.219 349.813 249.152C339.217 239.558 308.772 269.284 316.611 253.229C318.734 248.884 321.139 243.956 323.378 238.684C324.737 235.483 326.144 232.323 327.5 229.273C332.27 218.561 336.389 209.311 335.816 204.113C335.723 203.253 334.969 202.629 334.087 202.728C333.227 202.822 332.608 203.598 332.702 204.455C333.182 208.809 329.033 218.13 324.64 227.998C323.275 231.064 321.861 234.243 320.495 237.46C318.289 242.659 316.006 247.332 313.796 251.857C305.944 267.931 299.744 280.634 312.089 291.803C320.576 299.484 333.22 302.773 347.694 301.085C367.157 298.802 386.568 288.051 395.985 274.334C400.011 268.472 389.206 220.4 374.052 191.865C378.155 176.982 369.009 153.474 352.087 135.609C332.006 114.414 306.015 105.847 280.762 112.108C271.077 114.51 264.665 119.248 259.012 123.428C251.118 129.261 244.883 133.867 232.593 130.871C228.206 129.802 224.081 128.762 220.129 127.763C208.589 124.852 198.624 122.337 187.68 120.52C185.207 120.111 182.92 120.881 180.868 122.804C170.449 132.588 168.565 172.85 169.802 185.002C170.817 194.944 191.896 211.009 212.28 226.545C222.1 234.03 231.379 241.103 236.522 246.208C248.194 257.789 248.316 310.235 248.381 338.41C248.4 346.249 248.416 352.442 248.632 356.323C249.917 379.296 267.132 394.933 297.103 400.337C297.2 400.353 297.293 400.36 297.384 400.36Z" fill="white"/>
<path d="M395.418 260.615C384.757 270.773 370 273.881 358.525 268.522C342.267 260.93 337.069 237.677 346.918 216.585C352.799 203.989 362.721 195.054 373.221 191.486C382.535 209.644 393.846 243.935 395.418 260.615Z" fill="#1A1A1F"/>
<path d="M297.384 400.36C298.128 400.36 298.788 399.828 298.923 399.072C299.078 398.221 298.511 397.406 297.661 397.255C277.567 393.632 253.292 383.557 251.759 356.146C251.547 352.349 251.531 346.194 251.514 338.4C251.444 307.762 251.321 256.482 238.728 243.982C233.44 238.733 224.081 231.602 214.177 224.053C196.186 210.342 173.796 193.276 172.92 184.686C171.538 171.104 173.986 133.564 183.013 125.087C184.334 123.847 185.693 123.358 187.168 123.609C197.983 125.406 207.89 127.905 219.362 130.801C223.324 131.802 227.456 132.843 231.849 133.915C245.579 137.255 253.002 131.76 260.874 125.947C266.558 121.744 272.436 117.399 281.515 115.148C305.635 109.167 330.531 117.412 349.813 137.764C365.984 154.837 375.041 177.974 370.877 191.582L370.683 192.206L370.993 192.783C386.871 222.301 396.198 268.479 393.405 272.559C384.465 285.578 365.949 295.79 347.33 297.974C333.761 299.565 321.996 296.55 314.189 289.484C303.593 279.89 308.772 269.284 316.611 253.229C318.734 248.884 321.139 243.956 323.378 238.684C324.737 235.483 326.144 232.323 327.5 229.273C332.27 218.561 336.389 209.312 335.816 204.113C335.723 203.253 334.969 202.629 334.087 202.728C333.227 202.822 332.608 203.598 332.702 204.455C333.182 208.809 329.033 218.13 324.64 227.998C323.275 231.064 321.861 234.243 320.495 237.46C318.289 242.659 316.006 247.332 313.796 251.857C305.944 267.931 299.744 280.634 312.089 291.803C320.576 299.484 333.22 302.773 347.694 301.085C367.157 298.802 386.568 288.051 395.985 274.334C400.011 268.472 389.206 220.4 374.052 191.865C378.155 176.982 369.009 153.474 352.087 135.609C332.006 114.414 306.015 105.847 280.762 112.108C271.077 114.51 264.665 119.248 259.012 123.428C251.118 129.261 244.883 133.867 232.593 130.871C228.206 129.802 224.081 128.762 220.129 127.763C208.589 124.852 198.624 122.337 187.68 120.52C185.207 120.111 182.92 120.881 180.868 122.804C170.45 132.588 168.565 172.85 169.802 185.002C170.817 194.944 191.896 211.009 212.28 226.545C222.1 234.03 231.379 241.103 236.522 246.208C248.194 257.789 248.316 310.235 248.381 338.41C248.4 346.249 248.416 352.442 248.632 356.323C249.917 379.297 267.132 394.933 297.103 400.337C297.2 400.353 297.293 400.36 297.384 400.36Z" fill="#1A1A1F"/>
<path d="M338.267 401.584C338.309 401.584 338.351 401.581 338.396 401.578C376.136 398.557 418.002 385.522 431.728 372.527C432.356 371.928 432.382 370.939 431.786 370.311C431.194 369.68 430.202 369.654 429.574 370.25C416.292 382.83 375.276 395.484 338.145 398.46C337.281 398.528 336.637 399.281 336.708 400.144C336.773 400.962 337.459 401.584 338.267 401.584Z" fill="#1A1A1F"/>
<path d="M256.659 126.795C251.973 123.832 242.649 130.183 242.604 133.249C242.556 136.618 249.02 137.971 252.881 135.236C256.817 132.45 260.157 129.008 256.659 126.795Z" fill="#1A1A1F"/>
<path d="M197.186 124.084C200.169 126.66 201.518 139.556 198.02 142.229C191.621 147.118 176.6 144.513 176.194 140.091C174.999 127.05 186.117 114.528 197.186 124.084Z" fill="#1A1A1F"/>
<path d="M222.595 208.771C223.236 208.771 223.838 208.372 224.07 207.731C224.36 206.916 223.935 206.02 223.12 205.731C221.004 204.974 171.338 186.986 173.631 166.332C173.727 165.472 173.109 164.699 172.249 164.602C171.383 164.519 170.613 165.127 170.52 165.987C167.995 188.687 216.524 206.7 222.067 208.681C222.241 208.742 222.418 208.771 222.595 208.771Z" fill="#1A1A1F"/>
<path d="M302.824 450.672C305.858 450.672 309.049 449.792 311.781 447.741C321.211 440.668 359.167 378.225 345.946 340.089C345.659 339.271 344.767 338.84 343.952 339.123C343.134 339.406 342.703 340.295 342.986 341.113C355.969 378.57 316.737 440.108 309.903 445.238C305.503 448.536 299.429 447.96 296.325 445.541C294.766 444.324 293.223 442.124 294.721 438.565C298.585 429.393 302.547 388.838 295.709 373.584C295.355 372.802 294.427 372.444 293.642 372.799C292.853 373.15 292.498 374.077 292.853 374.866C298.933 388.435 295.912 427.663 291.835 437.351C290.118 441.428 291.075 445.416 294.399 448.008C296.518 449.664 299.581 450.672 302.824 450.672Z" fill="#1A1A1F"/>
<path d="M263.656 160.904C259.688 163.854 258.458 169.046 260.905 172.499C263.353 175.951 268.554 176.357 272.519 173.407C276.487 170.457 277.717 165.268 275.27 161.815C272.822 158.363 267.624 157.954 263.656 160.904Z" fill="white"/>
<path d="M215.329 429.956C220.434 429.956 223.413 429.206 223.677 429.135C224.331 428.964 224.721 428.294 224.55 427.644C224.376 426.993 223.719 426.594 223.055 426.771C222.923 426.803 209.918 430.027 190.633 422.359C201.081 412.983 231.387 425.998 231.703 426.133L235.342 427.718L233.226 424.362C233.101 424.159 221.204 405.147 215.812 385.926C236.924 401.031 240.093 424.429 240.125 424.674C240.206 425.341 240.827 425.814 241.491 425.734C242.161 425.65 242.637 425.041 242.55 424.368C242.518 424.104 238.933 397.636 214.466 382.068L211.905 380.435L212.617 383.385C216.476 399.347 225.387 415.801 229.281 422.523C220.263 419.093 196.063 411.25 187.57 422.062L186.581 423.318L188.056 423.943C199.622 428.829 209.071 429.956 215.329 429.956Z" fill="#7B40E4"/>
</g>
</svg>
