<svg width="50" height="50" viewBox="0 0 50 50" fill="none" xmlns="http://www.w3.org/2000/svg">
<path d="M25.378 0L12.0986 7.65854L16.9808 10.4878L25.378 5.65854L33.7754 10.4878L38.6575 7.65854L25.378 0Z" fill="#F0B90B"/>
<path d="M33.7754 14.4878L38.6575 17.3172V22.9757L30.2603 27.8049V37.4634L25.378 40.2927L20.4959 37.4634V27.8049L12.0986 22.9757V17.3172L16.9808 14.4878L25.378 19.3172L33.7754 14.4878Z" fill="#F0B90B"/>
<path d="M38.6575 26.9756V32.6341L33.7754 35.4633V29.8048L38.6575 26.9756Z" fill="#F0B90B"/>
<path d="M33.7266 39.4635L42.1238 34.6342V24.9757L47.0061 22.1465V37.4635L33.7266 45.1221V39.4635Z" fill="#F0B90B"/>
<path d="M42.1243 15.317L37.2422 12.4877L42.1243 9.65845L47.0066 12.4877V18.1463L42.1243 20.9755V15.317Z" fill="#F0B90B"/>
<path d="M20.4961 47.1707V41.5122L25.3782 44.3415L30.2605 41.5122V47.1707L25.3782 50L20.4961 47.1707Z" fill="#F0B90B"/>
<path d="M16.9808 35.4633L12.0986 32.6341V26.9756L16.9808 29.8048V35.4633Z" fill="#F0B90B"/>
<path d="M25.3782 15.317L20.4961 12.4877L25.3782 9.65845L30.2605 12.4877L25.3782 15.317Z" fill="#F0B90B"/>
<path d="M13.5143 12.4877L8.63217 15.317V20.9755L3.75 18.1463V12.4877L8.63217 9.65845L13.5143 12.4877Z" fill="#F0B90B"/>
<path d="M3.75 22.1465L8.63217 24.9757V34.6342L17.0295 39.4635V45.1221L3.75 37.4635V22.1465Z" fill="#F0B90B"/>
</svg>
