<svg width="167" height="40" viewBox="0 0 167 40" fill="none" xmlns="http://www.w3.org/2000/svg">
<path fill-rule="evenodd" clip-rule="evenodd" d="M34.4292 6.1296L34.6387 7.40208C34.8038 8.58582 34.8803 9.78035 34.8675 10.9756C34.8661 13.6169 34.549 16.2486 33.923 18.8139C33.0763 22.2991 31.6016 25.5991 29.5718 28.5505C27.2263 31.9401 23.835 35.2739 18.8916 37.9526L18.2868 38.2801L17.6821 37.9526C12.7386 35.2739 9.34871 31.9401 7.00183 28.5505C4.9721 25.5991 3.4974 22.2991 2.65067 18.8139C2.02473 16.249 1.7076 13.6179 1.7061 10.977C1.69332 9.78174 1.76982 8.58721 1.93496 7.40347L2.1444 6.131C2.16228 6.02722 2.15955 5.92092 2.13635 5.81821C2.11316 5.71551 2.06997 5.61843 2.00926 5.53257C1.94856 5.44671 1.87155 5.37378 1.78266 5.31796C1.69378 5.26215 1.59478 5.22456 1.49138 5.20737C1.38797 5.19017 1.2822 5.19371 1.18016 5.21778C1.07812 5.24184 0.981833 5.28596 0.89684 5.34759C0.811847 5.40922 0.739833 5.48714 0.684947 5.57687C0.630062 5.66659 0.59339 5.76634 0.577045 5.87037L0.367601 7.14284C0.187451 8.41266 0.103525 9.6944 0.116546 10.977C0.117545 13.748 0.450047 16.5088 1.1069 19.2C2.00102 22.8751 3.55754 26.3546 5.6994 29.4662C8.17527 33.0467 11.7663 36.5672 16.9344 39.3617L17.9165 39.8927C18.0321 39.9555 18.1616 39.9884 18.2931 39.9884C18.4245 39.9884 18.554 39.9555 18.6696 39.8927L19.6503 39.3617C24.8129 36.5658 28.4053 33.0467 30.8853 29.4662C33.0261 26.3548 34.5816 22.8758 35.4751 19.2014C36.1319 16.5102 36.4644 13.7494 36.4654 10.9784C36.4784 9.69579 36.3945 8.41406 36.2143 7.14424L36.0049 5.87176C35.9886 5.76773 35.9519 5.66798 35.897 5.57826C35.8421 5.48854 35.7701 5.41062 35.6851 5.34899C35.6001 5.28736 35.5038 5.24324 35.4018 5.21917C35.2997 5.1951 35.194 5.19156 35.0906 5.20876C34.9872 5.22595 34.8882 5.26354 34.7993 5.31936C34.7104 5.37517 34.6334 5.44811 34.5727 5.53396C34.512 5.61982 34.4688 5.7169 34.4456 5.81961C34.4224 5.92231 34.4197 6.02862 34.4375 6.13239L34.4292 6.1296Z" fill="#4B4B4B"/>
<path fill-rule="evenodd" clip-rule="evenodd" d="M6.48473 5.26274L18.2885 1.63904L30.3557 5.34078C30.5578 5.40148 30.7755 5.37928 30.9613 5.27905C31.147 5.17882 31.2857 5.00873 31.347 4.80599C31.4083 4.60326 31.3871 4.38439 31.2882 4.19729C31.1892 4.0102 31.0205 3.87011 30.819 3.80768L18.5201 0.0348611C18.3691 -0.0116204 18.2078 -0.0116204 18.0568 0.0348611L6.02007 3.72685C5.91948 3.75706 5.82583 3.80695 5.74448 3.87363C5.66312 3.94031 5.59568 4.02249 5.54602 4.11543C5.49635 4.20837 5.46545 4.31025 5.45507 4.41523C5.4447 4.52021 5.45506 4.62621 5.48556 4.72715C5.51607 4.82809 5.56611 4.92198 5.63282 5.00344C5.69953 5.0849 5.7816 5.15231 5.8743 5.20182C5.96701 5.25132 6.06854 5.28194 6.17305 5.29192C6.27757 5.30189 6.38302 5.29103 6.48334 5.25995L6.48473 5.26274Z" fill="#4B4B4B"/>
<path fill-rule="evenodd" clip-rule="evenodd" d="M0.656079 6.36382L17.578 39.5513C17.644 39.681 17.744 39.79 17.8674 39.8666C17.9907 39.9432 18.1325 39.9844 18.2775 39.9857C18.4224 39.987 18.565 39.9483 18.6896 39.874C18.8142 39.7996 18.9162 39.6923 18.9845 39.5638L29.3041 20.1701L29.3193 20.1394L35.9244 6.34152C36.014 6.15111 36.0251 5.93288 35.9553 5.73428C35.8856 5.53568 35.7407 5.37276 35.5521 5.28094C35.3635 5.18911 35.1464 5.17581 34.9481 5.24392C34.7498 5.31203 34.5862 5.45604 34.493 5.64466L27.899 19.4314L18.309 37.4663L2.06948 5.63351C2.02267 5.53899 1.95767 5.45475 1.87823 5.38566C1.7988 5.31656 1.7065 5.264 1.6067 5.23101C1.5069 5.19801 1.40158 5.18525 1.29683 5.19345C1.19208 5.20166 1.09 5.23066 0.996492 5.2788C0.902984 5.32693 0.819911 5.39323 0.752087 5.47385C0.684262 5.55448 0.633034 5.64782 0.601372 5.74849C0.569709 5.84915 0.558241 5.95512 0.567632 6.06027C0.577022 6.16542 0.607086 6.26765 0.656079 6.36103V6.36382Z" fill="#4B4B4B"/>
<path fill-rule="evenodd" clip-rule="evenodd" d="M8.75697 21.1443H27.575C27.7856 21.1443 27.9876 21.0603 28.1365 20.9106C28.2854 20.761 28.3691 20.558 28.3691 20.3464C28.3691 20.1348 28.2854 19.9318 28.1365 19.7822C27.9876 19.6326 27.7856 19.5485 27.575 19.5485H8.75697C8.54637 19.5485 8.34439 19.6326 8.19547 19.7822C8.04655 19.9318 7.96289 20.1348 7.96289 20.3464C7.96289 20.558 8.04655 20.761 8.19547 20.9106C8.34439 21.0603 8.54637 21.1443 8.75697 21.1443ZM61.2455 14.2593H49.0034C48.7919 14.2604 48.5893 14.3453 48.4397 14.4957C48.2901 14.646 48.2056 14.8495 48.2045 15.0621V24.9353C48.2059 25.1477 48.2906 25.3511 48.4401 25.5013C48.5896 25.6515 48.792 25.7366 49.0034 25.7381H61.2455V27.4105H49.0034C48.6804 27.412 48.3603 27.3492 48.0616 27.2256C47.7629 27.1021 47.4916 26.9204 47.2632 26.6909C47.0348 26.4614 46.8539 26.1887 46.731 25.8885C46.608 25.5884 46.5455 25.2668 46.547 24.9422V15.0691C46.5455 14.7445 46.608 14.4229 46.731 14.1227C46.8539 13.8226 47.0348 13.5499 47.2632 13.3204C47.4916 13.0909 47.7629 12.9092 48.0616 12.7857C48.3603 12.6621 48.6804 12.5993 49.0034 12.6008H61.2455V14.2593ZM84.2329 12.5924V14.2649H72.4431V19.1527H81.9193V20.8391H72.4417V25.7353H84.2315V27.4077H70.7772V12.5924H84.2329Z" fill="#4B4B4B"/>
<path d="M108.51 15.0816V19.4217C108.511 19.7462 108.449 20.0677 108.326 20.3678C108.203 20.6678 108.022 20.9404 107.793 21.1699C107.565 21.3993 107.294 21.5811 106.995 21.7047C106.696 21.8283 106.376 21.8912 106.054 21.89H103.802L108.428 27.4021H106.238L101.632 21.89H96.2222C95.9546 21.8763 95.688 21.8488 95.4232 21.8077V27.4021H93.7588V12.6133H106.041C106.364 12.612 106.684 12.675 106.983 12.7986C107.281 12.9221 107.553 13.1039 107.781 13.3334C108.009 13.5628 108.19 13.8354 108.313 14.1355C108.436 14.4355 108.499 14.7571 108.498 15.0816H108.51ZM96.2277 20.2035H106.054C106.156 20.2049 106.258 20.1855 106.353 20.1467C106.448 20.1079 106.534 20.0503 106.607 19.9775C106.679 19.9046 106.736 19.8179 106.775 19.7224C106.814 19.627 106.833 19.5247 106.832 19.4217V15.0816C106.833 14.977 106.814 14.8732 106.776 14.7761C106.737 14.679 106.68 14.5905 106.607 14.5157C106.536 14.4392 106.45 14.3786 106.355 14.3377C106.259 14.2969 106.156 14.2768 106.052 14.2788H96.2263C96.0148 14.2799 95.8122 14.3648 95.6626 14.5152C95.513 14.6655 95.4285 14.869 95.4274 15.0816V19.4217C95.4253 19.5261 95.4452 19.6297 95.4858 19.7258C95.5265 19.8219 95.5869 19.9083 95.6632 19.9792C95.7377 20.0524 95.826 20.11 95.923 20.1485C96.0199 20.187 96.1235 20.2057 96.2277 20.2035Z" fill="#4B4B4B"/>
<path fill-rule="evenodd" clip-rule="evenodd" d="M117.313 12.5924H132.047V14.2649H125.528V27.4091H123.863V14.2649H117.313V12.5924ZM140.976 27.4022V12.5924H142.641V27.4022H140.976ZM164.763 12.5924H166.892L160.731 19.9973L166.913 27.4022H164.763L159.277 20.8405H154.528V27.4022H152.852V12.5924H154.531V19.1527H159.28L164.763 12.5924Z" fill="#4B4B4B"/>
</svg>
