<svg width="1440" height="950" viewBox="0 0 1440 950" fill="none" xmlns="http://www.w3.org/2000/svg">
<mask id="mask0_99770_12480" style="mask-type:alpha" maskUnits="userSpaceOnUse" x="0" y="0" width="1440" height="950">
<rect width="1440" height="950" fill="#ECF2F6"/>
</mask>
<g mask="url(#mask0_99770_12480)">
<circle opacity="0.3" cx="1565" cy="182" r="746" fill="white"/>
<ellipse cx="1564.5" cy="182" rx="664.5" ry="665" fill="url(#paint0_linear_99770_12480)"/>
<circle cx="1440" cy="442" r="40" fill="#FAB8C4"/>
<circle cx="138" cy="363" r="14" fill="#FFDC60"/>
<circle cx="372" cy="140" r="16" fill="white"/>
<circle cx="324" cy="780" r="16" fill="white"/>
<circle cx="108" cy="267" r="8" fill="white"/>
<circle cx="1273" cy="689" r="8" fill="white"/>
<circle cx="1172" cy="235" r="9" fill="#5956E9"/>
<path fill-rule="evenodd" clip-rule="evenodd" d="M1267.66 914.891L1262.72 910.159C1262.14 909.603 1262.14 908.706 1262.72 908.148C1263.3 907.593 1264.24 907.594 1264.82 908.151L1267.66 910.874V902.425C1267.66 901.638 1268.32 901 1269.14 901C1269.96 901 1270.63 901.629 1270.63 902.425V910.919L1273.52 908.151C1274.1 907.594 1275.03 907.589 1275.62 908.148C1276.19 908.702 1276.19 909.602 1275.61 910.159L1270.63 914.936V923.021L1277.58 919.007L1279.24 912.297C1279.43 911.518 1280.21 911.067 1280.98 911.289C1281.75 911.512 1282.21 912.322 1282.02 913.101L1281.06 916.999L1287.82 912.691C1288.5 912.298 1289.38 912.546 1289.79 913.257C1290.2 913.963 1289.99 914.85 1289.3 915.247L1282.54 919.552L1286.39 920.664C1287.16 920.887 1287.63 921.696 1287.44 922.473C1287.24 923.255 1286.46 923.698 1285.69 923.476L1279.06 921.561L1271.97 925.654L1279.13 929.787L1285.68 927.894C1286.45 927.672 1287.23 928.116 1287.43 928.897C1287.62 929.674 1287.15 930.484 1286.38 930.706L1282.61 931.796L1289.3 936.061C1289.98 936.454 1290.2 937.34 1289.79 938.051C1289.38 938.757 1288.51 939.015 1287.82 938.617L1281.09 934.329L1282.05 938.206C1282.24 938.984 1281.78 939.794 1281.01 940.017C1280.24 940.239 1279.46 939.789 1279.27 939.009L1277.61 932.321L1270.63 928.288V936.495L1275.63 941.288C1276.21 941.844 1276.21 942.744 1275.63 943.299C1275.05 943.857 1274.11 943.852 1273.53 943.296L1270.63 940.512V949.046C1270.63 949.833 1269.97 950.471 1269.14 950.471C1268.33 950.471 1267.66 949.841 1267.66 949.046V940.517L1264.76 943.296C1264.18 943.853 1263.24 943.854 1262.66 943.299C1262.08 942.74 1262.08 941.844 1262.67 941.288L1267.66 936.5V928.141L1260.34 932.365L1258.71 938.99C1258.51 939.769 1257.74 940.222 1256.97 939.998C1256.2 939.777 1255.73 938.966 1255.92 938.187L1256.87 934.374L1250.18 938.639C1249.49 939.032 1248.61 938.784 1248.2 938.073C1247.8 937.367 1248.01 936.48 1248.7 936.083L1255.43 931.795L1251.59 930.687C1250.82 930.465 1250.35 929.66 1250.54 928.879C1250.74 928.102 1251.52 927.653 1252.29 927.875L1258.91 929.786L1266.06 925.654L1258.94 921.542L1252.3 923.459C1251.53 923.682 1250.75 923.232 1250.56 922.456C1250.36 921.674 1250.83 920.87 1251.6 920.647L1255.46 919.533L1248.7 915.226C1248.02 914.832 1247.79 913.946 1248.2 913.235C1248.61 912.529 1249.49 912.271 1250.18 912.669L1256.93 916.974L1255.97 913.084C1255.78 912.304 1256.25 911.494 1257.01 911.272C1257.79 911.049 1258.56 911.502 1258.75 912.28L1260.41 918.983L1267.66 923.168V914.891Z" fill="white" fill-opacity="0.7"/>
<path fill-rule="evenodd" clip-rule="evenodd" d="M1393.71 721.02L1391.22 718.629C1390.92 718.347 1390.92 717.894 1391.22 717.612C1391.51 717.332 1391.98 717.332 1392.28 717.614L1393.71 718.99V714.72C1393.71 714.322 1394.05 714 1394.46 714C1394.88 714 1395.21 714.318 1395.21 714.72V719.013L1396.67 717.614C1396.97 717.332 1397.44 717.33 1397.73 717.612C1398.03 717.892 1398.03 718.347 1397.73 718.629L1395.21 721.043V725.128L1398.72 723.1L1399.56 719.709C1399.66 719.315 1400.05 719.087 1400.44 719.199C1400.83 719.312 1401.07 719.721 1400.97 720.115L1400.48 722.085L1403.9 719.908C1404.24 719.709 1404.69 719.835 1404.9 720.194C1405.1 720.551 1404.99 720.999 1404.65 721.2L1401.23 723.375L1403.18 723.937C1403.57 724.05 1403.8 724.459 1403.71 724.851C1403.61 725.246 1403.21 725.471 1402.82 725.358L1399.47 724.39L1395.89 726.459L1399.51 728.548L1402.82 727.591C1403.21 727.479 1403.6 727.703 1403.7 728.098C1403.8 728.49 1403.56 728.899 1403.17 729.012L1401.27 729.563L1404.65 731.718C1404.99 731.917 1405.1 732.365 1404.9 732.724C1404.69 733.081 1404.25 733.211 1403.9 733.01L1400.5 730.843L1400.98 732.802C1401.08 733.195 1400.85 733.605 1400.46 733.717C1400.07 733.83 1399.68 733.602 1399.58 733.208L1398.74 729.828L1395.21 727.79V731.937L1397.74 734.359C1398.03 734.641 1398.03 735.095 1397.74 735.376C1397.45 735.658 1396.97 735.655 1396.68 735.374L1395.21 733.967V738.28C1395.21 738.678 1394.88 739 1394.46 739C1394.05 739 1393.71 738.682 1393.71 738.28V733.97L1392.25 735.374C1391.95 735.656 1391.48 735.656 1391.19 735.376C1390.89 735.094 1390.9 734.64 1391.19 734.359L1393.71 731.94V727.716L1390.02 729.851L1389.19 733.198C1389.09 733.592 1388.7 733.821 1388.31 733.708C1387.92 733.596 1387.68 733.186 1387.78 732.792L1388.26 730.866L1384.88 733.021C1384.53 733.22 1384.09 733.094 1383.88 732.735C1383.67 732.378 1383.78 731.93 1384.13 731.729L1387.53 729.562L1385.59 729.002C1385.2 728.89 1384.97 728.484 1385.06 728.088C1385.16 727.696 1385.55 727.469 1385.94 727.581L1389.29 728.547L1392.91 726.459L1389.31 724.381L1385.95 725.35C1385.56 725.462 1385.17 725.235 1385.07 724.843C1384.97 724.448 1385.21 724.041 1385.6 723.929L1387.55 723.366L1384.13 721.189C1383.79 720.99 1383.67 720.542 1383.88 720.183C1384.09 719.826 1384.53 719.696 1384.88 719.897L1388.29 722.072L1387.81 720.106C1387.71 719.713 1387.94 719.303 1388.33 719.191C1388.72 719.078 1389.11 719.307 1389.21 719.7L1390.05 723.087L1393.71 725.203V721.02Z" fill="white" fill-opacity="0.7"/>
<path fill-rule="evenodd" clip-rule="evenodd" d="M705.327 300.237L700.976 296.069C700.464 295.579 700.459 294.789 700.973 294.297C701.483 293.808 702.311 293.809 702.822 294.299L705.327 296.699V289.255C705.327 288.562 705.906 288 706.632 288C707.354 288 707.938 288.554 707.938 289.255V296.739L710.484 294.299C710.996 293.809 711.82 293.805 712.334 294.297C712.843 294.785 712.843 295.578 712.331 296.069L707.938 300.277V307.399L714.062 303.864L715.525 297.952C715.695 297.266 716.381 296.869 717.058 297.064C717.74 297.261 718.146 297.974 717.977 298.66L717.127 302.094L723.085 298.299C723.686 297.953 724.461 298.172 724.822 298.798C725.181 299.42 724.992 300.201 724.386 300.552L718.431 304.344L721.824 305.323C722.503 305.519 722.916 306.233 722.747 306.917C722.576 307.605 721.89 307.996 721.211 307.8L715.367 306.113L709.121 309.72L715.426 313.36L721.202 311.693C721.881 311.497 722.568 311.888 722.738 312.576C722.908 313.26 722.495 313.974 721.815 314.17L718.491 315.13L724.384 318.887C724.985 319.233 725.183 320.014 724.821 320.64C724.462 321.262 723.691 321.489 723.084 321.139L717.156 317.362L718.001 320.776C718.171 321.463 717.764 322.176 717.082 322.373C716.405 322.568 715.719 322.171 715.549 321.484L714.091 315.592L707.938 312.04V319.269L712.345 323.492C712.857 323.982 712.858 324.775 712.348 325.264C711.834 325.756 711.01 325.751 710.498 325.261L707.938 322.808V330.327C707.938 331.02 707.359 331.582 706.632 331.582C705.911 331.582 705.327 331.027 705.327 330.327V322.813L702.771 325.261C702.26 325.752 701.432 325.752 700.922 325.264C700.409 324.772 700.413 323.982 700.925 323.492L705.327 319.274V311.91L698.88 315.632L697.436 321.468C697.267 322.154 696.585 322.553 695.903 322.356C695.226 322.161 694.815 321.447 694.985 320.76L695.816 317.401L689.922 321.159C689.322 321.505 688.547 321.286 688.185 320.66C687.826 320.038 688.015 319.257 688.622 318.906L694.55 315.129L691.17 314.153C690.491 313.957 690.077 313.249 690.247 312.56C690.416 311.876 691.103 311.48 691.783 311.676L697.615 313.36L703.92 309.72L697.644 306.096L691.793 307.785C691.113 307.981 690.426 307.586 690.257 306.901C690.087 306.213 690.501 305.504 691.18 305.308L694.579 304.327L688.621 300.532C688.02 300.185 687.822 299.405 688.184 298.778C688.543 298.156 689.314 297.929 689.921 298.28L695.875 302.072L695.027 298.645C694.857 297.958 695.268 297.244 695.945 297.049C696.627 296.852 697.309 297.251 697.479 297.937L698.94 303.842L705.327 307.529V300.237Z" fill="white" fill-opacity="0.7"/>
<path fill-rule="evenodd" clip-rule="evenodd" d="M179.3 266.945L176.713 264.466C176.409 264.175 176.406 263.705 176.712 263.413C177.015 263.122 177.507 263.123 177.811 263.414L179.3 264.841V260.415C179.3 260.003 179.645 259.669 180.077 259.669C180.505 259.669 180.853 259.999 180.853 260.415V264.865L182.367 263.414C182.671 263.123 183.161 263.12 183.466 263.413C183.77 263.703 183.769 264.175 183.465 264.466L180.853 266.969V271.204L184.494 269.101L185.364 265.587C185.465 265.178 185.873 264.942 186.276 265.058C186.681 265.175 186.923 265.599 186.822 266.007L186.316 268.049L189.859 265.793C190.216 265.587 190.677 265.717 190.892 266.089C191.106 266.459 190.993 266.924 190.632 267.132L187.092 269.387L189.109 269.969C189.513 270.086 189.758 270.51 189.658 270.916C189.556 271.326 189.148 271.558 188.745 271.442L185.27 270.439L181.556 272.583L185.305 274.748L188.74 273.756C189.143 273.64 189.552 273.872 189.653 274.282C189.754 274.688 189.508 275.112 189.104 275.229L187.128 275.8L190.632 278.034C190.989 278.24 191.106 278.704 190.891 279.076C190.678 279.446 190.219 279.581 189.859 279.373L186.334 277.127L186.836 279.157C186.937 279.565 186.695 279.989 186.29 280.106C185.888 280.223 185.48 279.986 185.378 279.578L184.512 276.075L180.853 273.963V278.261L183.473 280.772C183.778 281.063 183.778 281.535 183.475 281.825C183.17 282.118 182.679 282.115 182.375 281.824L180.853 280.365V284.836C180.853 285.248 180.508 285.582 180.077 285.582C179.648 285.582 179.3 285.252 179.3 284.836V280.368L177.781 281.824C177.477 282.115 176.985 282.116 176.681 281.825C176.376 281.533 176.379 281.063 176.683 280.772L179.3 278.264V273.885L175.467 276.098L174.609 279.568C174.508 279.976 174.102 280.214 173.697 280.097C173.295 279.98 173.05 279.556 173.151 279.148L173.645 277.15L170.141 279.384C169.784 279.591 169.323 279.46 169.108 279.088C168.895 278.718 169.007 278.254 169.368 278.045L172.893 275.799L170.883 275.219C170.479 275.103 170.233 274.681 170.334 274.272C170.435 273.865 170.843 273.63 171.247 273.746L174.715 274.747L178.464 272.583L174.732 270.429L171.254 271.433C170.849 271.55 170.441 271.314 170.34 270.907C170.239 270.498 170.485 270.077 170.889 269.96L172.91 269.377L169.367 267.12C169.01 266.914 168.893 266.45 169.108 266.078C169.321 265.708 169.78 265.573 170.14 265.781L173.681 268.036L173.176 265.998C173.075 265.59 173.32 265.166 173.723 265.049C174.128 264.932 174.533 265.17 174.634 265.578L175.503 269.088L179.3 271.281V266.945Z" fill="white" fill-opacity="0.7"/>
<path fill-rule="evenodd" clip-rule="evenodd" d="M-3.09486 485.373L-16.3823 472.642C-17.9443 471.145 -17.9589 468.733 -16.3906 467.23C-14.8332 465.738 -12.3058 465.74 -10.7424 467.238L-3.09486 474.565V451.833C-3.09486 449.716 -1.3247 448 0.893208 448C3.09576 448 4.88128 449.693 4.88128 451.833V474.688L12.6563 467.238C14.2183 465.742 16.7363 465.728 18.3046 467.23C19.862 468.723 19.8597 471.144 18.2963 472.642L4.88128 485.495V507.245L23.5828 496.448L28.0498 478.395C28.5687 476.298 30.6647 475.085 32.7323 475.682C34.8144 476.283 36.0559 478.461 35.5375 480.556L32.9424 491.044L51.1394 479.455C52.9727 478.396 55.3402 479.064 56.4444 480.977C57.5409 482.876 56.9636 485.262 55.1103 486.332L36.9264 497.915L47.2858 500.905C49.3614 501.504 50.6216 503.682 50.1047 505.772C49.5841 507.875 47.4876 509.069 45.4139 508.47L27.5668 503.318L8.49209 514.331L27.7508 525.45L45.3913 520.358C47.465 519.759 49.5615 520.953 50.082 523.056C50.5989 525.145 49.3387 527.324 47.2632 527.923L37.1103 530.854L55.1088 542.329C56.9421 543.387 57.5471 545.772 56.4429 547.684C55.3463 549.584 52.9912 550.277 51.1379 549.207L33.0336 537.671L35.6141 548.1C36.1325 550.195 34.8911 552.373 32.809 552.974C30.7413 553.571 28.6453 552.358 28.1264 550.261L23.674 532.267L4.88128 521.417V543.497L18.3401 556.392C19.9035 557.89 19.9058 560.311 18.3484 561.804C16.7801 563.306 14.2622 563.292 12.7002 561.796L4.88128 554.304V577.266C4.88128 579.383 3.11111 581.099 0.893208 581.099C-1.30934 581.099 -3.09486 579.406 -3.09486 577.266V554.319L-10.8979 561.796C-12.4613 563.294 -14.9888 563.296 -16.5462 561.804C-18.1145 560.301 -18.0999 557.889 -16.5379 556.392L-3.09486 543.512V521.021L-22.783 532.388L-27.1931 550.211C-27.7116 552.306 -29.7936 553.525 -31.8756 552.924C-33.9433 552.327 -35.1997 550.147 -34.6808 548.05L-32.1426 537.791L-50.141 549.266C-51.9744 550.325 -54.3419 549.657 -55.446 547.744C-56.5426 545.845 -55.9653 543.459 -54.112 542.389L-36.0076 530.853L-46.3298 527.873C-48.4036 527.274 -49.6692 525.11 -49.1487 523.006C-48.6318 520.917 -46.5335 519.708 -44.4579 520.308L-26.6481 525.449L-7.39162 514.331L-26.5569 503.266L-44.4249 508.424C-46.5005 509.023 -48.5988 507.814 -49.1157 505.725C-49.6362 503.622 -48.3706 501.457 -46.2968 500.859L-35.9165 497.862L-54.1135 486.273C-55.9468 485.214 -56.5517 482.83 -55.4476 480.917C-54.351 479.018 -51.9958 478.325 -50.1425 479.395L-31.9586 490.977L-34.5485 480.51C-35.0674 478.413 -33.811 476.232 -31.7434 475.636C-29.6613 475.035 -27.5793 476.253 -27.0608 478.349L-22.5991 496.381L-3.09486 507.641V485.373Z" fill="white" fill-opacity="0.7"/>
<path fill-rule="evenodd" clip-rule="evenodd" d="M530.587 904.452L533.592 901.573C533.945 901.234 533.948 900.689 533.593 900.349C533.241 900.011 532.67 900.012 532.316 900.351L530.587 902.008V896.867C530.587 896.388 530.186 896 529.685 896C529.187 896 528.783 896.383 528.783 896.867V902.035L527.025 900.351C526.672 900.012 526.102 900.009 525.747 900.349C525.395 900.686 525.396 901.234 525.749 901.573L528.783 904.479V909.398L524.554 906.956L523.544 902.874C523.426 902.399 522.952 902.125 522.485 902.26C522.014 902.396 521.733 902.888 521.85 903.362L522.437 905.734L518.322 903.113C517.908 902.874 517.372 903.025 517.123 903.457C516.875 903.887 517.005 904.427 517.424 904.669L521.536 907.288L519.194 907.964C518.724 908.099 518.439 908.592 518.556 909.064C518.674 909.54 519.148 909.81 519.617 909.675L523.653 908.51L527.967 911L523.611 913.515L519.622 912.363C519.153 912.228 518.679 912.498 518.561 912.973C518.444 913.446 518.729 913.938 519.199 914.074L521.495 914.737L517.425 917.332C517.01 917.571 516.873 918.11 517.123 918.543C517.371 918.972 517.903 919.129 518.323 918.887L522.417 916.278L521.833 918.637C521.716 919.11 521.997 919.603 522.467 919.739C522.935 919.874 523.409 919.6 523.526 919.125L524.533 915.056L528.783 912.603V917.596L525.739 920.512C525.386 920.851 525.385 921.398 525.738 921.736C526.092 922.075 526.662 922.072 527.015 921.734L528.783 920.04V925.232C528.783 925.711 529.183 926.099 529.685 926.099C530.183 926.099 530.587 925.716 530.587 925.232V920.043L532.351 921.734C532.705 922.073 533.276 922.073 533.629 921.736C533.983 921.396 533.98 920.85 533.627 920.512L530.587 917.599V912.513L535.039 915.083L536.036 919.114C536.154 919.588 536.624 919.863 537.095 919.728C537.563 919.593 537.847 919.1 537.73 918.625L537.156 916.306L541.226 918.9C541.64 919.14 542.176 918.989 542.425 918.556C542.673 918.127 542.543 917.587 542.124 917.345L538.03 914.736L540.364 914.062C540.833 913.927 541.119 913.438 541.001 912.962C540.885 912.49 540.41 912.216 539.941 912.352L535.913 913.514L531.558 911L535.893 908.498L539.933 909.664C540.403 909.8 540.877 909.526 540.994 909.054C541.112 908.578 540.825 908.089 540.357 907.954L538.009 907.276L542.124 904.655C542.539 904.416 542.676 903.876 542.426 903.444C542.178 903.014 541.645 902.858 541.226 903.1L537.114 905.719L537.7 903.352C537.817 902.878 537.533 902.385 537.065 902.25C536.595 902.114 536.124 902.389 536.006 902.863L534.997 906.941L530.587 909.487V904.452Z" fill="white" fill-opacity="0.7"/>
<path fill-rule="evenodd" clip-rule="evenodd" d="M848.37 779.177L850.567 777.073C850.825 776.826 850.827 776.427 850.568 776.179C850.311 775.932 849.893 775.932 849.635 776.18L848.37 777.391V773.634C848.37 773.284 848.078 773 847.711 773C847.347 773 847.052 773.28 847.052 773.634V777.411L845.767 776.18C845.509 775.933 845.093 775.93 844.833 776.179C844.576 776.425 844.576 776.826 844.835 777.073L847.052 779.198V782.793L843.961 781.008L843.223 778.024C843.137 777.677 842.79 777.477 842.449 777.576C842.105 777.675 841.899 778.035 841.985 778.381L842.414 780.115L839.406 778.199C839.103 778.024 838.712 778.135 838.529 778.451C838.348 778.765 838.443 779.159 838.75 779.336L841.755 781.25L840.043 781.745C839.7 781.844 839.492 782.204 839.577 782.549C839.663 782.897 840.01 783.094 840.353 782.995L843.302 782.144L846.455 783.964L843.272 785.802L840.356 784.96C840.013 784.861 839.667 785.058 839.581 785.406C839.495 785.751 839.704 786.111 840.047 786.21L841.725 786.695L838.75 788.592C838.447 788.767 838.347 789.161 838.529 789.477C838.711 789.791 839.1 789.905 839.406 789.728L842.399 787.822L841.972 789.546C841.887 789.892 842.092 790.252 842.436 790.351C842.778 790.45 843.124 790.249 843.21 789.903L843.946 786.928L847.052 785.135V788.785L844.827 790.916C844.569 791.164 844.569 791.564 844.826 791.811C845.085 792.059 845.502 792.057 845.76 791.809L847.052 790.571V794.366C847.052 794.716 847.345 795 847.711 795C848.075 795 848.37 794.72 848.37 794.366V790.574L849.66 791.809C849.919 792.057 850.336 792.057 850.594 791.811C850.853 791.562 850.851 791.164 850.593 790.916L848.37 788.787V785.07L851.625 786.948L852.354 789.895C852.439 790.241 852.784 790.442 853.128 790.343C853.47 790.244 853.677 789.884 853.591 789.537L853.172 787.842L856.147 789.738C856.45 789.913 856.841 789.803 857.024 789.487C857.205 789.173 857.11 788.778 856.803 788.602L853.811 786.695L855.517 786.202C855.86 786.103 856.069 785.746 855.983 785.398C855.897 785.053 855.551 784.853 855.207 784.952L852.264 785.802L849.081 783.964L852.249 782.135L855.202 782.988C855.545 783.087 855.892 782.887 855.977 782.541C856.063 782.194 855.854 781.836 855.511 781.737L853.796 781.242L856.803 779.326C857.106 779.151 857.206 778.757 857.024 778.441C856.843 778.127 856.453 778.012 856.147 778.189L853.141 780.104L853.569 778.374C853.655 778.027 853.448 777.667 853.106 777.568C852.762 777.469 852.417 777.67 852.332 778.016L851.594 780.997L848.37 782.858V779.177Z" fill="white" fill-opacity="0.7"/>
<path fill-rule="evenodd" clip-rule="evenodd" d="M1438.94 367.02L1436.44 364.629C1436.15 364.347 1436.15 363.894 1436.44 363.612C1436.73 363.332 1437.21 363.332 1437.5 363.614L1438.94 364.99V360.72C1438.94 360.322 1439.27 360 1439.69 360C1440.1 360 1440.44 360.318 1440.44 360.72V365.013L1441.9 363.614C1442.19 363.332 1442.66 363.33 1442.96 363.612C1443.25 363.892 1443.25 364.347 1442.96 364.629L1440.44 367.043V371.128L1443.95 369.1L1444.79 365.709C1444.89 365.315 1445.28 365.087 1445.67 365.199C1446.06 365.312 1446.29 365.721 1446.19 366.115L1445.71 368.085L1449.13 365.908C1449.47 365.709 1449.91 365.835 1450.12 366.194C1450.33 366.551 1450.22 366.999 1449.87 367.2L1446.46 369.375L1448.4 369.937C1448.79 370.05 1449.03 370.459 1448.93 370.851C1448.83 371.246 1448.44 371.471 1448.05 371.358L1444.7 370.39L1441.11 372.459L1444.73 374.548L1448.05 373.591C1448.43 373.479 1448.83 373.703 1448.93 374.098C1449.02 374.49 1448.79 374.899 1448.4 375.012L1446.49 375.563L1449.87 377.718C1450.21 377.917 1450.33 378.365 1450.12 378.724C1449.92 379.081 1449.47 379.211 1449.12 379.01L1445.72 376.843L1446.21 378.802C1446.31 379.195 1446.07 379.605 1445.68 379.717C1445.29 379.83 1444.9 379.602 1444.8 379.208L1443.97 375.828L1440.44 373.79V377.937L1442.96 380.359C1443.26 380.641 1443.26 381.095 1442.97 381.376C1442.67 381.658 1442.2 381.655 1441.9 381.374L1440.44 379.967V384.28C1440.44 384.678 1440.1 385 1439.69 385C1439.27 385 1438.94 384.682 1438.94 384.28V379.97L1437.47 381.374C1437.18 381.656 1436.7 381.656 1436.41 381.376C1436.12 381.094 1436.12 380.64 1436.41 380.359L1438.94 377.94V373.716L1435.24 375.851L1434.41 379.198C1434.31 379.592 1433.92 379.821 1433.53 379.708C1433.14 379.596 1432.91 379.186 1433.01 378.792L1433.48 376.866L1430.1 379.021C1429.76 379.22 1429.31 379.094 1429.11 378.735C1428.9 378.378 1429.01 377.93 1429.36 377.729L1432.76 375.562L1430.82 375.002C1430.43 374.89 1430.19 374.484 1430.29 374.088C1430.39 373.696 1430.78 373.469 1431.17 373.581L1434.51 374.547L1438.13 372.459L1434.53 370.381L1431.18 371.35C1430.79 371.462 1430.39 371.235 1430.29 370.843C1430.2 370.448 1430.43 370.041 1430.82 369.929L1432.77 369.366L1429.36 367.189C1429.01 366.99 1428.9 366.542 1429.1 366.183C1429.31 365.826 1429.75 365.696 1430.1 365.897L1433.52 368.072L1433.03 366.106C1432.93 365.713 1433.17 365.303 1433.56 365.191C1433.95 365.078 1434.34 365.307 1434.44 365.7L1435.27 369.087L1438.94 371.203V367.02Z" fill="white" fill-opacity="0.7"/>
<path fill-rule="evenodd" clip-rule="evenodd" d="M1028.79 167.808L1024.32 163.527C1023.8 163.024 1023.79 162.212 1024.32 161.707C1024.84 161.205 1025.69 161.206 1026.22 161.71L1028.79 164.174V156.529C1028.79 155.817 1029.39 155.24 1030.13 155.24C1030.87 155.24 1031.47 155.81 1031.47 156.529V164.215L1034.09 161.71C1034.61 161.207 1035.46 161.202 1035.99 161.707C1036.51 162.209 1036.51 163.023 1035.99 163.527L1031.47 167.849V175.164L1037.76 171.533L1039.27 165.462C1039.44 164.756 1040.15 164.349 1040.84 164.549C1041.54 164.751 1041.96 165.484 1041.78 166.189L1040.91 169.715L1047.03 165.818C1047.65 165.462 1048.44 165.687 1048.81 166.33C1049.18 166.969 1048.99 167.771 1048.37 168.131L1042.25 172.026L1045.73 173.032C1046.43 173.233 1046.86 173.966 1046.68 174.668C1046.51 175.376 1045.8 175.777 1045.11 175.576L1039.1 173.843L1032.69 177.547L1039.16 181.286L1045.1 179.573C1045.79 179.372 1046.5 179.773 1046.67 180.481C1046.85 181.183 1046.42 181.916 1045.73 182.117L1042.31 183.103L1048.36 186.962C1048.98 187.318 1049.18 188.12 1048.81 188.763C1048.44 189.402 1047.65 189.635 1047.03 189.275L1040.94 185.395L1041.81 188.903C1041.98 189.607 1041.57 190.34 1040.87 190.542C1040.17 190.743 1039.47 190.335 1039.29 189.629L1037.79 183.578L1031.47 179.93V187.355L1036 191.691C1036.53 192.195 1036.53 193.009 1036 193.511C1035.48 194.016 1034.63 194.012 1034.1 193.508L1031.47 190.989V198.711C1031.47 199.423 1030.88 200 1030.13 200C1029.39 200 1028.79 199.431 1028.79 198.711V190.994L1026.17 193.508C1025.64 194.012 1024.79 194.013 1024.27 193.511C1023.74 193.006 1023.75 192.194 1024.27 191.691L1028.79 187.36V179.797L1022.17 183.619L1020.69 189.613C1020.51 190.317 1019.81 190.727 1019.11 190.525C1018.42 190.324 1018 189.591 1018.17 188.886L1019.02 185.436L1012.97 189.295C1012.35 189.651 1011.56 189.426 1011.19 188.783C1010.82 188.144 1011.01 187.342 1011.64 186.982L1017.72 183.103L1014.25 182.1C1013.56 181.899 1013.13 181.171 1013.3 180.464C1013.48 179.761 1014.18 179.355 1014.88 179.556L1020.87 181.285L1027.35 177.547L1020.9 173.826L1014.89 175.56C1014.19 175.762 1013.49 175.355 1013.32 174.653C1013.14 173.945 1013.57 173.217 1014.26 173.016L1017.75 172.008L1011.63 168.111C1011.02 167.755 1010.81 166.953 1011.19 166.31C1011.55 165.671 1012.35 165.438 1012.97 165.798L1019.08 169.693L1018.21 166.173C1018.04 165.468 1018.46 164.734 1019.16 164.534C1019.86 164.332 1020.56 164.741 1020.73 165.446L1022.23 171.51L1028.79 175.297V167.808Z" fill="white" fill-opacity="0.7"/>
<path opacity="0.1" fill-rule="evenodd" clip-rule="evenodd" d="M1406.27 -3.90858L1390.63 -18.8927C1388.79 -20.6541 1388.78 -23.4936 1390.62 -25.2621C1392.45 -27.0184 1395.43 -27.0158 1397.27 -25.2528L1406.27 -16.6288V-43.3845C1406.27 -45.8761 1408.35 -47.896 1410.96 -47.896C1413.56 -47.896 1415.66 -45.9033 1415.66 -43.3845V-16.485L1424.81 -25.2528C1426.65 -27.0143 1429.61 -27.0307 1431.46 -25.2621C1433.29 -23.5058 1433.29 -20.6557 1431.45 -18.8927L1415.66 -3.76473V21.8361L1437.67 9.12681L1442.93 -12.1215C1443.54 -14.5897 1446.01 -16.0171 1448.44 -15.3146C1450.89 -14.6072 1452.35 -12.0435 1451.74 -9.57746L1448.69 2.76669L1470.11 -10.8741C1472.26 -12.1199 1475.05 -11.3333 1476.35 -9.08229C1477.64 -6.84689 1476.96 -4.03836 1474.78 -2.779L1453.38 10.8529L1465.57 14.3727C1468.01 15.0779 1469.5 17.6417 1468.89 20.1005C1468.27 22.5765 1465.81 23.9814 1463.37 23.2768L1442.36 17.213L1419.91 30.1758L1442.57 43.2615L1463.34 37.2678C1465.78 36.5632 1468.24 37.9682 1468.86 40.4442C1469.47 42.903 1467.98 45.4668 1465.54 46.172L1453.59 49.6216L1474.77 63.1275C1476.93 64.3733 1477.64 67.1798 1476.34 69.4308C1475.05 71.6662 1472.28 72.482 1470.1 71.2226L1448.79 57.6448L1451.83 69.9197C1452.44 72.3858 1450.98 74.9495 1448.53 75.6569C1446.09 76.3594 1443.63 74.932 1443.02 72.4638L1437.78 51.2847L1415.66 38.5156V64.5023L1431.5 79.6796C1433.34 81.4427 1433.34 84.2928 1431.51 86.0491C1429.66 87.8176 1426.7 87.8012 1424.86 86.0397L1415.66 77.2225V104.248C1415.66 106.74 1413.57 108.759 1410.96 108.759C1408.37 108.759 1406.27 106.767 1406.27 104.248V77.2403L1397.09 86.0397C1395.25 87.8028 1392.27 87.8054 1390.44 86.0491C1388.59 84.2805 1388.61 81.4411 1390.45 79.6796L1406.27 64.5201V38.0496L1383.1 51.4274L1377.91 72.4051C1377.3 74.8711 1374.85 76.3056 1372.4 75.5982C1369.96 74.8957 1368.49 72.3293 1369.1 69.8611L1372.08 57.7875L1350.9 71.2934C1348.74 72.5392 1345.96 71.7525 1344.66 69.5015C1343.37 67.2661 1344.04 64.4576 1346.23 63.1983L1367.53 49.6204L1355.39 46.1133C1352.94 45.4087 1351.45 42.8614 1352.07 40.3855C1352.68 37.9267 1355.15 36.5039 1357.59 37.2091L1378.55 43.2603L1401.21 30.1758L1378.65 17.1512L1357.62 23.2221C1355.18 23.9273 1352.71 22.5046 1352.1 20.0458C1351.49 17.5698 1352.98 15.0225 1355.42 14.3179L1367.64 10.791L1346.22 -2.84977C1344.06 -4.09558 1343.35 -6.90207 1344.65 -9.15306C1345.94 -11.3885 1348.71 -12.2043 1350.89 -10.9449L1372.3 2.68701L1369.25 -9.6322C1368.64 -12.1004 1370.12 -14.6668 1372.55 -15.3694C1375 -16.0768 1377.45 -14.6423 1378.06 -12.1763L1383.31 9.04713L1406.27 22.3021V-3.90858Z" fill="white" fill-opacity="0.7"/>
</g>
<defs>
<linearGradient id="paint0_linear_99770_12480" x1="1491.83" y1="-70.9765" x2="1849.1" y2="502.891" gradientUnits="userSpaceOnUse">
<stop stop-color="#A981FF"/>
<stop offset="1" stop-color="#7B40E4"/>
</linearGradient>
</defs>
</svg>
