<svg width="116" height="110" viewBox="0 0 116 110" fill="none" xmlns="http://www.w3.org/2000/svg">
<path d="M54.5875 102.855C83.5909 102.855 107.103 80.0547 107.103 51.9287C107.103 23.8026 83.5909 1.00195 54.5875 1.00195C25.5842 1.00195 2.07227 23.8026 2.07227 51.9287C2.07227 80.0547 25.5842 102.855 54.5875 102.855Z" fill="#EAEEF9"/>
<path d="M32.0129 37.7751C28.3816 43.0034 21.0758 44.383 15.6805 40.8761L14.9077 40.3739C11.5576 38.1964 10.6635 33.788 12.9144 30.5471L17.8788 23.3993C20.1297 20.1585 24.6866 19.2931 28.0367 21.4705L28.8094 21.9728C34.2053 25.48 35.646 32.5441 32.0129 37.7751Z" fill="white"/>
<path d="M45.323 25.6762C43.5282 28.2604 39.8953 28.9498 37.2242 27.2138C34.5532 25.4777 33.8402 21.963 35.6348 19.3791C37.4294 16.7951 41.0626 16.1054 43.7336 17.8415C46.4046 19.5775 47.1177 23.0922 45.323 25.6762Z" fill="white"/>
<path d="M37.8946 33.1798C39.6894 30.5956 43.3224 29.9061 45.9934 31.6422C48.6644 33.3783 49.3774 36.893 47.5828 39.4769C45.7882 42.0609 42.155 42.7506 39.484 41.0145C36.8127 39.2783 36.1 35.7638 37.8946 33.1798Z" fill="white"/>
<path d="M29.8399 44.778C31.6345 42.1941 35.2677 41.5043 37.9387 43.2404C40.6097 44.9765 41.3227 48.4912 39.5281 51.0751C37.7335 53.659 34.1003 54.3488 31.4293 52.6127C28.7583 50.8766 28.0451 47.3622 29.8399 44.778Z" fill="white"/>
<path d="M25.4666 54.2665C23.672 56.8504 20.0388 57.5402 17.3678 55.8041C14.6968 54.068 13.9838 50.5533 15.7784 47.9694C17.573 45.3855 21.2062 44.6957 23.8772 46.4318C26.5482 48.1679 27.2614 51.6823 25.4666 54.2665Z" fill="white"/>
<path d="M52.9738 78.6919C59.4845 78.7713 64.6758 83.9321 64.5938 90.2197L64.5821 91.1203C64.5312 95.0244 61.2061 98.1605 57.1705 98.1113L48.2695 98.0028C44.2338 97.9535 40.9916 94.7373 41.0425 90.8332L41.0542 89.9326C41.1361 83.6443 46.4599 78.6125 52.9738 78.6919Z" fill="white"/>
<path d="M35.2221 74.5353C38.4401 74.5745 41.0246 77.1389 40.984 80.2516C40.9435 83.3644 38.2926 85.8649 35.075 85.8257C31.8573 85.7864 29.2725 83.222 29.3131 80.1093C29.3536 76.9966 32.0045 74.496 35.2221 74.5353Z" fill="white"/>
<path d="M45.7801 76.4443C42.562 76.4051 39.9776 73.8407 40.0181 70.728C40.0587 67.6152 42.7096 65.1147 45.9272 65.1539C49.1449 65.1932 51.7297 67.7576 51.6891 70.8703C51.6486 73.9834 48.9977 76.4836 45.7801 76.4443Z" fill="white"/>
<path d="M60.2215 76.6206C57.0038 76.5814 54.419 74.017 54.4595 70.9042C54.5001 67.7915 57.151 65.2909 60.3686 65.3302C63.5863 65.3694 66.1711 67.9338 66.1305 71.0466C66.09 74.1593 63.4395 76.6598 60.2215 76.6206Z" fill="white"/>
<path d="M70.8247 74.9694C74.0423 75.0086 76.6272 77.573 76.5866 80.6857C76.546 83.7985 73.8952 86.299 70.6775 86.2598C67.4599 86.2205 64.875 83.6561 64.9156 80.5434C64.9562 77.4307 67.6066 74.9301 70.8247 74.9694Z" fill="white"/>
<path d="M78.3636 38.1306C81.7806 43.4924 89.0251 45.1473 94.5581 41.8474L95.3506 41.3747C98.7862 39.3257 99.8578 34.9545 97.7398 31.631L93.0682 24.3008C90.9502 20.9772 86.4317 19.94 82.9962 21.989L82.2037 22.4617C76.67 25.762 74.9448 32.7661 78.3636 38.1306Z" fill="white"/>
<path d="M65.5545 25.537C67.2434 28.1872 70.8457 29.0136 73.5849 27.38C76.3241 25.7463 77.1787 22.2613 75.49 19.6114C73.8012 16.9616 70.1988 16.1348 67.4596 17.7685C64.7204 19.4022 63.8658 22.8872 65.5545 25.537Z" fill="white"/>
<path d="M72.6736 33.316C70.9847 30.6659 67.3823 29.8394 64.6432 31.4731C61.904 33.1068 61.0494 36.5918 62.7381 39.2416C64.4268 41.8915 68.0293 42.7182 70.7685 41.0846C73.508 39.4507 74.3623 35.9659 72.6736 33.316Z" fill="white"/>
<path d="M80.2527 45.2101C78.5639 42.5602 74.9614 41.7334 72.2223 43.3671C69.4831 45.0008 68.6285 48.4858 70.3172 51.1357C72.0059 53.7855 75.6084 54.6123 78.3476 52.9786C81.0868 51.3449 81.9416 47.8602 80.2527 45.2101Z" fill="white"/>
<path d="M84.2391 54.8569C85.9278 57.5067 89.5303 58.3335 92.2695 56.6998C95.0087 55.0661 95.8633 51.5811 94.1746 48.9312C92.4858 46.2814 88.8833 45.4546 86.1441 47.0883C83.405 48.722 82.5502 52.2067 84.2391 54.8569Z" fill="white"/>
<g filter="url(#filter0_d_102832_9482)">
<path d="M64.5689 71.8192L64.5595 71.8238L64.55 71.8284C60.2536 73.9634 55.126 74.7604 49.8582 73.7433C37.6955 71.2478 30.0005 59.8754 32.5339 48.2868C35.0812 36.6343 46.8052 29.0571 58.9501 31.5409C63.2694 32.4454 67.1177 34.4746 70.2741 37.4113C75.5924 42.5665 77.7845 49.9423 76.293 56.9828C75.8244 58.9007 75.1235 60.826 74.3084 62.5243C72.0947 66.5622 68.7331 69.8044 64.5689 71.8192Z" stroke="url(#paint0_linear_102832_9482)" stroke-width="4"/>
</g>
<path d="M113.037 26.4189C114.674 24.9682 114.788 22.5053 113.292 20.9178C111.796 19.3303 109.256 19.2194 107.619 20.6701C105.982 22.1208 105.868 24.5838 107.364 26.1713C108.86 27.7588 111.4 27.8696 113.037 26.4189Z" fill="#EAEEF9"/>
<path d="M5.18135 91.8706C6.56879 91.4333 7.32796 89.988 6.877 88.6426C6.42605 87.2971 4.93574 86.5609 3.54831 86.9982C2.16087 87.4355 1.4017 88.8808 1.85266 90.2262C2.30361 91.5717 3.79392 92.3079 5.18135 91.8706Z" fill="#EAEEF9"/>
<path d="M19.7045 3.48392C20.6966 3.48392 21.5008 2.70402 21.5008 1.74196C21.5008 0.779902 20.6966 0 19.7045 0C18.7124 0 17.9082 0.779902 17.9082 1.74196C17.9082 2.70402 18.7124 3.48392 19.7045 3.48392Z" fill="#7B3FE4"/>
<path d="M81.6906 109.279C82.6243 109.279 83.3813 108.545 83.3813 107.639C83.3813 106.734 82.6243 106 81.6906 106C80.7569 106 80 106.734 80 107.639C80 108.545 80.7569 109.279 81.6906 109.279Z" fill="#7B3FE4"/>
<path d="M106.045 14.4531C106.519 14.0331 106.552 13.3202 106.119 12.8606C105.686 12.4011 104.951 12.369 104.477 12.7889C104.003 13.2089 103.97 13.9218 104.403 14.3814C104.836 14.8409 105.571 14.873 106.045 14.4531Z" fill="#EAEEF9"/>
<defs>
<filter id="filter0_d_102832_9482" x="19.8336" y="25.2383" width="69.1336" height="67.5452" filterUnits="userSpaceOnUse" color-interpolation-filters="sRGB">
<feFlood flood-opacity="0" result="BackgroundImageFix"/>
<feColorMatrix in="SourceAlpha" type="matrix" values="0 0 0 0 0 0 0 0 0 0 0 0 0 0 0 0 0 0 127 0" result="hardAlpha"/>
<feOffset dy="6.38513"/>
<feGaussianBlur stdDeviation="5.1081"/>
<feColorMatrix type="matrix" values="0 0 0 0 0.66275 0 0 0 0 0.1125 0 0 0 0 1 0 0 0 0.22 0"/>
<feBlend mode="normal" in2="BackgroundImageFix" result="effect1_dropShadow_102832_9482"/>
<feBlend mode="normal" in="SourceGraphic" in2="effect1_dropShadow_102832_9482" result="shape"/>
</filter>
<linearGradient id="paint0_linear_102832_9482" x1="51.7373" y1="43.6645" x2="64.1993" y2="64.3719" gradientUnits="userSpaceOnUse">
<stop stop-color="#A981FF"/>
<stop offset="1" stop-color="#7B40E4"/>
</linearGradient>
</defs>
</svg>
