<svg width="48" height="48" viewBox="0 0 48 48" fill="none" xmlns="http://www.w3.org/2000/svg">
<path d="M0 24C0 10.7452 10.7452 0 24 0C37.2548 0 48 10.7452 48 24C48 37.2548 37.2548 48 24 48C10.7452 48 0 37.2548 0 24Z" fill="#5865F2"/>
<g clip-path="url(#clip0_108_124)">
<g clip-path="url(#clip1_108_124)">
<path d="M37.829 11.5125C35.3203 10.3387 32.638 9.48572 29.8336 9C29.4892 9.62268 29.0868 10.4602 28.8094 11.1264C25.8283 10.6781 22.8746 10.6781 19.9483 11.1264C19.6709 10.4602 19.2594 9.62268 18.9119 9C16.1046 9.48572 13.4191 10.3419 10.9104 11.5187C5.85041 19.165 4.47873 26.6215 5.16457 33.972C8.52064 36.4782 11.7731 38.0007 14.9706 38.9969C15.7601 37.9104 16.4642 36.7553 17.0708 35.538C15.9155 35.099 14.8091 34.5573 13.7636 33.9284C14.0409 33.7229 14.3122 33.5081 14.5743 33.287C20.9512 36.2696 27.8797 36.2696 34.1803 33.287C34.4455 33.5081 34.7168 33.7229 34.9911 33.9284C33.9425 34.5604 32.833 35.1021 31.6778 35.5411C32.2844 36.7553 32.9854 37.9135 33.778 39C36.9786 38.0037 40.234 36.4813 43.5901 33.972C44.3948 25.4508 42.2154 18.0629 37.829 11.5125ZM17.9395 29.4515C16.0253 29.4515 14.4555 27.6644 14.4555 25.4882C14.4555 23.312 15.9918 21.5218 17.9395 21.5218C19.8874 21.5218 21.4572 23.3088 21.4236 25.4882C21.4267 27.6644 19.8874 29.4515 17.9395 29.4515ZM30.8151 29.4515C28.9009 29.4515 27.331 27.6644 27.331 25.4882C27.331 23.312 28.8673 21.5218 30.8151 21.5218C32.7629 21.5218 34.3328 23.3088 34.2992 25.4882C34.2992 27.6644 32.7629 29.4515 30.8151 29.4515Z" fill="white"/>
</g>
</g>
<defs>
<clipPath id="clip0_108_124">
<rect width="38.75" height="30" fill="white" transform="translate(5 9)"/>
</clipPath>
<clipPath id="clip1_108_124">
<rect width="155" height="30" fill="white" transform="translate(5 9)"/>
</clipPath>
</defs>
</svg>
