<svg width="116" height="111" viewBox="0 0 116 111" fill="none" xmlns="http://www.w3.org/2000/svg">
<g clip-path="url(#clip0_99770_12444)">
<path d="M78.417 58.9336V80.615" stroke="#1A1A1F" stroke-width="3" stroke-linecap="round" stroke-linejoin="round"/>
<path d="M63.0938 66.1665V80.6117" stroke="#1A1A1F" stroke-width="3" stroke-linecap="round" stroke-linejoin="round"/>
<path d="M32.1611 72.4849V80.6154" stroke="#1A1A1F" stroke-width="3" stroke-linecap="round" stroke-linejoin="round"/>
<path d="M47.4814 63.2661V80.6112" stroke="#1A1A1F" stroke-width="3" stroke-linecap="round" stroke-linejoin="round"/>
<path d="M66.6766 49.4717C68.6523 51.3238 68.6523 54.3268 66.6766 56.179C64.7009 58.0312 61.4976 58.0312 59.5218 56.179C57.5461 54.3268 57.5461 51.3238 59.5218 49.4717C61.4976 47.6195 64.7009 47.6195 66.6766 49.4717Z" stroke="#1A1A1F" stroke-width="3" stroke-linecap="round" stroke-linejoin="round"/>
<path d="M82.2987 37.2661C84.2744 39.1183 84.2744 42.1213 82.2987 43.9734C80.3229 45.8256 77.1196 45.8256 75.1439 43.9734C73.1682 42.1212 73.1682 39.1183 75.1439 37.2661C77.1196 35.4139 80.323 35.4139 82.2987 37.2661Z" stroke="#1A1A1F" stroke-width="3" stroke-linecap="round" stroke-linejoin="round"/>
<path d="M35.4344 51.8955C37.4102 53.7477 37.4102 56.7507 35.4344 58.6028C33.4587 60.455 30.2554 60.455 28.2797 58.6028C26.3039 56.7506 26.3039 53.7476 28.2797 51.8955C30.2554 50.0433 33.4587 50.0433 35.4344 51.8955" stroke="#1A1A1F" stroke-width="3" stroke-linecap="round" stroke-linejoin="round"/>
<path d="M51.0575 39.6909C53.0332 41.5431 53.0332 44.5461 51.0575 46.3982C49.0817 48.2504 45.8784 48.2504 43.9027 46.3982C41.927 44.546 41.927 41.5431 43.9027 39.6909C45.8784 37.8387 49.0817 37.8387 51.0575 39.6909Z" stroke="#1A1A1F" stroke-width="3" stroke-linecap="round" stroke-linejoin="round"/>
<path d="M74.8591 43.6475L66.9668 49.7996" stroke="#1A1A1F" stroke-width="3" stroke-linecap="round" stroke-linejoin="round"/>
<path d="M58.8743 50.2062L51.6758 45.6802" stroke="#1A1A1F" stroke-width="3" stroke-linecap="round" stroke-linejoin="round"/>
<path d="M35.7471 52.2361L43.6105 46.084" stroke="#1A1A1F" stroke-width="3" stroke-linecap="round" stroke-linejoin="round"/>
</g>
<path d="M55 110.746C85.3757 110.746 110 86.2059 110 55.9342C110 25.6626 85.3757 1.12256 55 1.12256C24.6243 1.12256 0 25.6626 0 55.9342C0 86.2059 24.6243 110.746 55 110.746Z" fill="#EAEEF9"/>
<path d="M112.899 46.285C114.612 44.8142 114.731 42.317 113.166 40.7075C111.601 39.098 108.944 38.9856 107.231 40.4564C105.518 41.9273 105.399 44.4244 106.964 46.0339C108.529 47.6435 111.186 47.7559 112.899 46.285Z" fill="#EAEEF9"/>
<path d="M17.2852 12.6665C18.7368 12.2231 19.5311 10.7578 19.0592 9.39367C18.5874 8.02952 17.0282 7.2831 15.5766 7.72648C14.125 8.16986 13.3307 9.63515 13.8025 10.9993C14.2743 12.3634 15.8336 13.1099 17.2852 12.6665Z" fill="#EAEEF9"/>
<path d="M22.7231 4.27838C23.7611 4.27838 24.6025 3.48765 24.6025 2.51224C24.6025 1.53682 23.7611 0.746094 22.7231 0.746094C21.6852 0.746094 20.8438 1.53682 20.8438 2.51224C20.8438 3.48765 21.6852 4.27838 22.7231 4.27838Z" fill="#7B3FE4"/>
<path d="M14.7786 110.025C15.7555 110.025 16.5474 109.281 16.5474 108.363C16.5474 107.445 15.7555 106.701 14.7786 106.701C13.8017 106.701 13.0098 107.445 13.0098 108.363C13.0098 109.281 13.8017 110.025 14.7786 110.025Z" fill="#7B3FE4"/>
<path d="M68.6673 4.36991C69.1631 3.94414 69.1977 3.22127 68.7447 2.75536C68.2916 2.28944 67.5224 2.25691 67.0266 2.68268C66.5308 3.10846 66.4962 3.83131 66.9493 4.29723C67.4023 4.76314 68.1715 4.79568 68.6673 4.36991Z" fill="#EAEEF9"/>
<path d="M53.22 65.0564C45.6404 60.954 35.9784 63.391 31.6098 70.4844L30.9841 71.5004C28.2716 75.9048 29.8875 81.5571 34.5858 84.1L44.948 89.7085C49.6462 92.2514 55.6758 90.7372 58.3883 86.3327L59.014 85.3168C63.3831 78.2226 60.8033 69.1609 53.22 65.0564Z" fill="white"/>
<path d="M76.6842 71.8303C72.9378 69.8026 68.1311 71.0104 65.9684 74.522C63.8057 78.0337 65.0938 82.5402 68.8397 84.5677C72.5856 86.5951 77.3927 85.3876 79.5554 81.8759C81.7181 78.3643 80.4301 73.8577 76.6842 71.8303Z" fill="white"/>
<path d="M63.1277 67.1702C66.8741 69.1979 71.6808 67.9901 73.8435 64.4785C76.0062 60.9668 74.7181 56.4603 70.9722 54.4328C67.2263 52.4054 62.4192 53.6129 60.2565 57.1245C58.0935 60.6366 59.3818 65.1427 63.1277 67.1702Z" fill="white"/>
<path d="M46.3133 58.0711C50.0592 60.0985 54.8664 58.891 57.0291 55.3793C59.1918 51.8677 57.9037 47.3612 54.1578 45.3337C50.4119 43.3062 45.6047 44.5138 43.442 48.0254C41.2793 51.5371 42.567 56.0434 46.3133 58.0711Z" fill="white"/>
<path d="M35.2369 49.3962C31.491 47.3687 26.6838 48.5763 24.5211 52.0879C22.3584 55.5996 23.6465 60.1061 27.3924 62.1336C31.1383 64.161 35.9455 62.9535 38.1082 59.4418C40.2709 55.9302 38.9832 51.4239 35.2369 49.3962Z" fill="white"/>
<g filter="url(#filter0_d_99770_12444)">
<path d="M70.296 45.0873C74.8699 47.5629 80.7004 46.0923 83.3366 41.8118L83.7141 41.1987C85.351 38.5409 84.3759 35.13 81.5407 33.5955L75.2877 30.2111C72.4526 28.6766 68.814 29.5903 67.1772 32.2482L66.7996 32.8613C64.1631 37.1422 65.7199 42.6105 70.296 45.0873Z" fill="url(#paint0_linear_99770_12444)"/>
</g>
<g filter="url(#filter1_d_99770_12444)">
<path d="M56.1378 41.0009C58.3985 42.2245 61.2991 41.4957 62.6042 39.3766C63.9092 37.2575 63.132 34.538 60.8715 33.3146C58.611 32.0911 55.7102 32.8198 54.4051 34.9389C53.1 37.058 53.8773 39.7774 56.1378 41.0009Z" fill="url(#paint1_linear_99770_12444)"/>
</g>
<g filter="url(#filter2_d_99770_12444)">
<path d="M64.3168 43.8121C62.0561 42.5885 59.1555 43.3173 57.8504 45.4364C56.5454 47.5555 57.3226 50.275 59.5831 51.4984C61.8435 52.7219 64.7444 51.9932 66.0495 49.8741C67.3547 47.7548 66.5773 45.0356 64.3168 43.8121Z" fill="url(#paint2_linear_99770_12444)"/>
</g>
<g filter="url(#filter3_d_99770_12444)">
<path d="M74.4643 49.3028C72.2038 48.0794 69.303 48.8081 67.9979 50.9272C66.6928 53.0462 67.4701 55.7657 69.7306 56.9892C71.991 58.2126 74.8919 57.4839 76.1969 55.3648C77.502 53.2458 76.725 50.5264 74.4643 49.3028Z" fill="url(#paint3_linear_99770_12444)"/>
</g>
<g filter="url(#filter4_d_99770_12444)">
<path d="M81.1485 54.537C83.409 55.7605 86.3098 55.0318 87.6149 52.9127C88.92 50.7936 88.1427 48.0742 85.8822 46.8507C83.6218 45.6272 80.7209 46.3559 79.4159 48.475C78.1108 50.5941 78.8878 53.3134 81.1485 54.537Z" fill="url(#paint4_linear_99770_12444)"/>
</g>
<defs>
<filter id="filter0_d_99770_12444" x="55.3014" y="25.6352" width="39.4236" height="37.2556" filterUnits="userSpaceOnUse" color-interpolation-filters="sRGB">
<feFlood flood-opacity="0" result="BackgroundImageFix"/>
<feColorMatrix in="SourceAlpha" type="matrix" values="0 0 0 0 0 0 0 0 0 0 0 0 0 0 0 0 0 0 127 0" result="hardAlpha"/>
<feOffset dy="6.38513"/>
<feGaussianBlur stdDeviation="5.1081"/>
<feColorMatrix type="matrix" values="0 0 0 0 0.66275 0 0 0 0 0.1125 0 0 0 0 1 0 0 0 0.22 0"/>
<feBlend mode="normal" in2="BackgroundImageFix" result="effect1_dropShadow_99770_12444"/>
<feBlend mode="normal" in="SourceGraphic" in2="effect1_dropShadow_99770_12444" result="shape"/>
</filter>
<filter id="filter1_d_99770_12444" x="43.5553" y="28.8896" width="29.8982" height="29.3064" filterUnits="userSpaceOnUse" color-interpolation-filters="sRGB">
<feFlood flood-opacity="0" result="BackgroundImageFix"/>
<feColorMatrix in="SourceAlpha" type="matrix" values="0 0 0 0 0 0 0 0 0 0 0 0 0 0 0 0 0 0 127 0" result="hardAlpha"/>
<feOffset dy="6.38513"/>
<feGaussianBlur stdDeviation="5.1081"/>
<feColorMatrix type="matrix" values="0 0 0 0 0.66275 0 0 0 0 0.1125 0 0 0 0 1 0 0 0 0.22 0"/>
<feBlend mode="normal" in2="BackgroundImageFix" result="effect1_dropShadow_99770_12444"/>
<feBlend mode="normal" in="SourceGraphic" in2="effect1_dropShadow_99770_12444" result="shape"/>
</filter>
<filter id="filter2_d_99770_12444" x="47.0006" y="39.3872" width="29.8982" height="29.3064" filterUnits="userSpaceOnUse" color-interpolation-filters="sRGB">
<feFlood flood-opacity="0" result="BackgroundImageFix"/>
<feColorMatrix in="SourceAlpha" type="matrix" values="0 0 0 0 0 0 0 0 0 0 0 0 0 0 0 0 0 0 127 0" result="hardAlpha"/>
<feOffset dy="6.38513"/>
<feGaussianBlur stdDeviation="5.1081"/>
<feColorMatrix type="matrix" values="0 0 0 0 0.66275 0 0 0 0 0.1125 0 0 0 0 1 0 0 0 0.22 0"/>
<feBlend mode="normal" in2="BackgroundImageFix" result="effect1_dropShadow_99770_12444"/>
<feBlend mode="normal" in="SourceGraphic" in2="effect1_dropShadow_99770_12444" result="shape"/>
</filter>
<filter id="filter3_d_99770_12444" x="57.1481" y="44.8779" width="29.8982" height="29.3064" filterUnits="userSpaceOnUse" color-interpolation-filters="sRGB">
<feFlood flood-opacity="0" result="BackgroundImageFix"/>
<feColorMatrix in="SourceAlpha" type="matrix" values="0 0 0 0 0 0 0 0 0 0 0 0 0 0 0 0 0 0 127 0" result="hardAlpha"/>
<feOffset dy="6.38513"/>
<feGaussianBlur stdDeviation="5.1081"/>
<feColorMatrix type="matrix" values="0 0 0 0 0.66275 0 0 0 0 0.1125 0 0 0 0 1 0 0 0 0.22 0"/>
<feBlend mode="normal" in2="BackgroundImageFix" result="effect1_dropShadow_99770_12444"/>
<feBlend mode="normal" in="SourceGraphic" in2="effect1_dropShadow_99770_12444" result="shape"/>
</filter>
<filter id="filter4_d_99770_12444" x="68.566" y="42.4258" width="29.8982" height="29.3064" filterUnits="userSpaceOnUse" color-interpolation-filters="sRGB">
<feFlood flood-opacity="0" result="BackgroundImageFix"/>
<feColorMatrix in="SourceAlpha" type="matrix" values="0 0 0 0 0 0 0 0 0 0 0 0 0 0 0 0 0 0 127 0" result="hardAlpha"/>
<feOffset dy="6.38513"/>
<feGaussianBlur stdDeviation="5.1081"/>
<feColorMatrix type="matrix" values="0 0 0 0 0.66275 0 0 0 0 0.1125 0 0 0 0 1 0 0 0 0.22 0"/>
<feBlend mode="normal" in2="BackgroundImageFix" result="effect1_dropShadow_99770_12444"/>
<feBlend mode="normal" in="SourceGraphic" in2="effect1_dropShadow_99770_12444" result="shape"/>
</filter>
<linearGradient id="paint0_linear_99770_12444" x1="73.7145" y1="41.492" x2="73.9939" y2="33.4399" gradientUnits="userSpaceOnUse">
<stop stop-color="#A981FF"/>
<stop offset="1" stop-color="#7B40E4"/>
</linearGradient>
<linearGradient id="paint1_linear_99770_12444" x1="58.0526" y1="38.8624" x2="57.9134" y2="34.3522" gradientUnits="userSpaceOnUse">
<stop stop-color="#A981FF"/>
<stop offset="1" stop-color="#7B40E4"/>
</linearGradient>
<linearGradient id="paint2_linear_99770_12444" x1="61.4979" y1="49.3599" x2="61.3587" y2="44.8498" gradientUnits="userSpaceOnUse">
<stop stop-color="#A981FF"/>
<stop offset="1" stop-color="#7B40E4"/>
</linearGradient>
<linearGradient id="paint3_linear_99770_12444" x1="71.6453" y1="54.8507" x2="71.5061" y2="50.3405" gradientUnits="userSpaceOnUse">
<stop stop-color="#A981FF"/>
<stop offset="1" stop-color="#7B40E4"/>
</linearGradient>
<linearGradient id="paint4_linear_99770_12444" x1="83.0633" y1="52.3985" x2="82.9241" y2="47.8883" gradientUnits="userSpaceOnUse">
<stop stop-color="#A981FF"/>
<stop offset="1" stop-color="#7B40E4"/>
</linearGradient>
<clipPath id="clip0_99770_12444">
<rect width="69.3832" height="65.0442" fill="white" transform="translate(20.5977 26.4116)"/>
</clipPath>
</defs>
</svg>
