<svg width="16" height="28" viewBox="0 0 16 28" fill="none" xmlns="http://www.w3.org/2000/svg">
<g clip-path="url(#clip0_101913_8812)">
<path d="M15.2727 10.0838C15.2732 10.0451 15.2637 10.0068 15.245 9.97286C15.2263 9.93889 15.1992 9.91034 15.1662 9.88999L13.0687 8.56345C13.0394 8.54491 13.0059 8.53403 12.9713 8.53181L11.3036 8.4009L9.28182 5.38744L7.61382 0.158354C7.59992 0.110971 7.57049 0.0696415 7.53025 0.0410155C7.49002 0.0123894 7.44132 -0.00186859 7.392 0.000535728C7.3438 0.00396484 7.29786 0.022289 7.26053 0.0529731C7.2232 0.0836571 7.19633 0.125184 7.18364 0.171808L5.92 5.64017H4.88254C4.83846 5.64051 4.79548 5.65402 4.75913 5.67896C4.72278 5.70391 4.69471 5.73916 4.67855 5.78017L3.60073 8.42854L1.10873 8.9609C1.07695 8.96774 1.04702 8.98135 1.02098 9.00081C0.994938 9.02026 0.973395 9.0451 0.957818 9.07363L0.0221818 10.8285C0.0101347 10.8573 0.00265041 10.8877 0 10.9187L0 10.982L1.49455 18.4984C1.50327 18.5525 1.53455 18.5976 1.57455 18.6336L4.62073 21.0384L6.17709 23.6642L8.08436 27.8689C8.12436 27.9547 8.20836 28.0045 8.29709 27.9998C8.33114 27.9965 8.36386 27.9849 8.39243 27.9661C8.421 27.9472 8.44456 27.9218 8.46109 27.8918L8.47018 27.8962L10.8469 24.1333L13.7873 19.5362C13.804 19.5103 13.8146 19.481 13.8182 19.4504V19.4456L15.264 10.1111H15.2593C15.2684 10.1067 15.2727 10.0976 15.2727 10.0838ZM11.3345 9.53835L9.84473 9.84926L8.42582 10.1518L9.66291 8.72163L9.84473 8.50926L9.86255 8.49108L9.89818 8.51399L10.2527 8.76672L11.3349 9.53799L11.3345 9.53835ZM10.736 8.35145L10.896 8.59072L11.0065 8.7529L10.7629 8.57726L10.408 8.32454L10.0178 8.04454L9.80473 7.27763L9.65855 6.74526L10.736 8.35145ZM7.43673 1.06054L8.86945 5.54963L9.58327 8.13035L9.47673 8.25217L9.29491 8.46417L9.11309 8.67654L7.92036 10.0569L7.45891 8.5409L7.388 8.31108L7.31709 8.0809L7.01127 7.07908C7.01127 7.07472 7.00655 7.07472 7.00218 7.07035C6.99782 7.06126 6.99782 7.04745 6.99345 7.03872L6.33709 5.83399L7.43636 1.06054H7.43673ZM5.96436 6.09108L6.15964 6.45217L5.62291 6.09108H5.96473H5.96436ZM3.92436 8.82054L4.02655 8.56817L4.12836 8.31544L4.39927 7.65217L4.98873 6.19945L6.09782 6.94381L6.40327 7.15108L5.08218 8.11254L4.63418 8.43726L4.18618 8.76199L3.84473 9.01035L3.92473 8.8209L3.92436 8.82054ZM5.264 8.53654L5.71164 8.21181L6.03091 7.98163L6.67418 7.51254L6.83782 8.04454L6.90909 8.27472L6.98 8.5049L7.52109 10.2824H4.62545L3.72945 9.65108L5.264 8.53654ZM1.29927 9.38017L3.39673 8.93363L3.13964 9.56999C3.11958 9.61737 3.11659 9.67025 3.13118 9.71959C3.14577 9.76893 3.17704 9.81168 3.21964 9.84054L4.43455 10.6933C4.47018 10.7202 4.51454 10.7336 4.55891 10.7336H7.82254C7.836 10.7336 7.85382 10.7336 7.86691 10.7293L11.9247 9.87654C11.9604 9.86886 11.9937 9.8525 12.0215 9.82891C12.0493 9.80531 12.0709 9.7752 12.0844 9.74126C12.0974 9.70658 12.1023 9.66932 12.0984 9.63246C12.0946 9.59559 12.0821 9.56013 12.0622 9.5289L11.6229 8.87472L12.8782 8.97399L14.6164 10.0704L12.3727 11.3744L5.41018 11.7489L0.558909 10.7744L1.29927 9.38017ZM5.67636 12.1864L12.2527 11.8344L12.7982 15.4754L9.66727 22.8027L7.60545 20.542L5.67636 12.1864ZM6.95345 19.6802L4.22182 16.0576L0.736 11.2707L5.21055 12.1729L6.95345 19.6802ZM0.634182 11.8842L3.75164 16.1704L1.85345 18.0111L0.634545 11.8838L0.634182 11.8842ZM2.05309 18.4351L4.01782 16.5311L6.98 20.4609L4.856 20.6547L2.05309 18.4351ZM5.16218 21.0787L7.07745 20.9078L6.32364 23.0369L5.16182 21.0791L5.16218 21.0787ZM8.25309 27.1562L6.61673 23.5467L7.49018 21.0744L9.48545 23.2627L8.25273 27.1562H8.25309ZM10.4833 23.8896L9.02436 26.2042L9.93345 23.3304L12.368 20.9482L10.4833 23.89V23.8896ZM10.3815 22.2609L12.9225 16.3147L13.3749 19.3329L10.3815 22.2609ZM13.6098 17.9387L12.6829 11.7169L13.3484 11.3293L14.7629 10.5082L13.6098 17.9387Z" fill="#262A2E"/>
</g>
<defs>
<clipPath id="clip0_101913_8812">
<rect width="15.2727" height="28" fill="white"/>
</clipPath>
</defs>
</svg>
