<svg width="142" height="142" viewBox="0 0 142 142" fill="none" xmlns="http://www.w3.org/2000/svg">
<path d="M70.9982 7.44431C35.9078 7.44431 7.46301 35.8983 7.46301 71C7.45169 79.3542 9.09265 87.6281 12.2914 95.3453C15.4902 103.062 20.1836 110.07 26.1012 115.965L26.2203 116.085C26.4733 116.339 26.7301 116.589 26.9868 116.829C30.2137 119.931 33.7583 122.684 37.5617 125.044C37.852 125.23 38.1459 125.403 38.4399 125.578L38.6408 125.699C38.9217 125.866 39.199 126.032 39.4911 126.196C48.9244 131.599 59.5906 134.478 70.4605 134.556H71.2661C81.8208 134.528 92.2008 131.858 101.46 126.789C101.847 126.577 102.231 126.361 102.611 126.14C102.68 126.103 102.747 126.062 102.816 126.023C103.095 125.861 103.373 125.698 103.649 125.531C107.504 123.219 111.103 120.505 114.386 117.434L114.71 117.127L115.324 116.537L115.335 116.526L115.456 116.408C121.506 110.497 126.311 103.434 129.588 95.635C132.864 87.8361 134.546 79.4597 134.533 71C134.533 35.8983 106.087 7.44431 70.9982 7.44431ZM70.9982 1.68862e-05C85.1008 -0.00971205 98.8865 4.18475 110.595 12.0479C122.304 19.9111 131.405 31.0863 136.736 44.1469C142.066 57.2074 143.386 71.5608 140.525 85.3747C137.664 99.1886 130.752 111.836 120.673 121.703L120.537 121.835V121.845L120.483 121.897L119.877 122.479L119.467 122.868C115.802 126.297 111.785 129.329 107.482 131.913C107.153 132.11 106.853 132.285 106.567 132.453L106.535 132.471H106.518H106.507L106.297 132.592C105.893 132.825 105.476 133.059 105.054 133.292C94.7114 138.964 83.1148 141.957 71.32 142H70.3675C64.93 141.953 59.5157 141.285 54.2297 140.009C47.7704 138.441 41.5647 135.97 35.7961 132.667C35.4426 132.464 35.1487 132.294 34.8659 132.127L34.6073 131.971C34.2799 131.785 33.958 131.58 33.6454 131.384C29.4016 128.751 25.4462 125.678 21.8445 122.217C21.5747 121.956 21.2863 121.675 20.9831 121.372L20.8324 121.219C10.8924 111.296 4.11963 98.6448 1.37169 84.8684C-1.37624 71.092 0.0242157 56.8097 5.39578 43.8301C10.7673 30.8504 19.8684 19.757 31.5466 11.9546C43.2247 4.15226 56.9548 -0.00821242 70.9982 1.68862e-05Z" fill="#9054DB"/>
<path d="M43.4314 115.957C43.4314 115.957 40.0325 121.543 37.8083 127.028C38.0903 127.193 38.3685 127.356 38.6618 127.517C48.1206 132.804 58.8005 135.632 69.6875 135.733C80.5744 135.833 91.3069 133.203 100.866 128.092C101.324 127.848 101.778 127.596 102.227 127.337C101.74 126.105 101.185 124.861 100.619 123.675C100.543 123.513 100.464 123.352 100.388 123.193C100.048 122.491 99.7059 121.812 99.3735 121.167L99.2372 120.906C98.6956 119.863 98.1839 118.926 97.7431 118.158C97.7076 118.094 97.6722 118.03 97.6367 117.975C96.9401 116.735 96.4751 115.972 96.4751 115.972C96.4751 115.972 94.6075 109.012 102.451 109.379C103.483 109.446 104.497 109.672 105.456 110.051C102.136 107.584 98.7591 105.454 96.2883 104.8C89.9387 103.119 72.72 107.399 69.9561 108.11C67.1772 107.397 49.9622 103.119 43.6238 104.8C41.153 105.454 37.7765 107.584 34.4561 110.051C35.4126 109.668 36.4249 109.436 37.4553 109.364C45.299 108.998 43.4314 115.957 43.4314 115.957Z" fill="#DDE6F0"/>
<path d="M98.3197 114.173C98.3197 114.173 98.7339 114.94 99.3544 116.184C99.386 116.244 99.4176 116.309 99.4492 116.368C99.8351 117.143 100.291 118.084 100.78 119.124L100.901 119.387C101.047 119.703 101.192 120.026 101.339 120.355C101.494 120.702 101.65 121.059 101.805 121.419C101.873 121.579 101.943 121.741 102.011 121.902C102.237 122.439 102.462 122.987 102.676 123.54C102.743 123.709 102.809 123.878 102.874 124.049C102.939 124.22 102.992 124.354 103.049 124.508C103.183 124.867 103.313 125.225 103.44 125.581C103.453 125.62 103.468 125.658 103.48 125.697C103.58 125.973 103.673 126.248 103.762 126.522C103.794 126.618 103.826 126.706 103.856 126.809C103.919 127.001 103.979 127.192 104.035 127.382L105.2 126.445C105.107 126.212 104.996 125.989 104.867 125.778C104.725 125.545 104.57 125.321 104.405 125.107C107.851 122.825 111.069 120.145 114.004 117.114L114.294 116.81L114.843 116.228L114.853 116.217L114.738 116.101C113.979 115.329 113.046 114.396 112.001 113.387C110.31 111.755 108.327 109.921 106.319 108.242C105.465 107.859 104.562 107.628 103.643 107.558C96.6563 107.19 98.3197 114.173 98.3197 114.173Z" fill="#4D4D55"/>
<path d="M27.1467 115.794C27.3787 116.046 27.6142 116.293 27.8496 116.53C31.0877 119.884 34.674 122.825 38.5375 125.294C40.5696 119.777 43.675 114.178 43.675 114.178C43.675 114.178 45.3812 107.19 38.215 107.558C37.2726 107.625 36.346 107.853 35.4697 108.233C32.3046 110.822 29.1976 113.773 27.1467 115.794Z" fill="#4D4D55"/>
<path d="M84.5794 134.212C84.5784 134.234 84.5784 134.256 84.5794 134.277C84.6191 135.054 84.761 135.818 85.0001 136.544C88.0382 141.496 92.4777 136.994 92.4777 136.994C92.4777 136.994 99.2333 139.92 100.777 132.943C100.777 132.943 106.703 132.943 105.217 127.289C105.176 127.136 105.128 126.985 105.072 126.839C104.965 126.553 104.836 126.28 104.686 126.022C104.521 125.728 104.341 125.447 104.148 125.178C103.587 124.398 102.905 123.749 102.138 123.265C97.8455 120.564 92.0704 123.672 91.8233 123.688C91.5454 123.715 84.3439 127.87 84.5794 134.212Z" fill="#4D4D55"/>
<path d="M39.1354 132.942C39.1354 132.942 33.2094 132.942 34.6957 127.286C34.817 126.833 34.9953 126.403 35.2246 126.01C39.2473 119.031 47.7908 123.673 48.0919 123.691C48.393 123.709 57.3707 128.91 54.9135 136.543C51.8752 141.496 47.4356 136.994 47.4356 136.994C47.4356 136.994 40.6796 139.92 39.1354 132.942Z" fill="#4D4D55"/>
<path d="M57.6935 42.6512C63.5267 39.6507 68.4982 38.8524 72.8568 39.2065C77.2019 39.5595 80.9344 41.0576 84.2999 42.654C84.3096 37.7469 85.2222 32.0093 86.6104 27.6524C87.3081 25.4627 88.127 23.6179 89.0144 22.4024C89.8994 21.1902 90.8683 20.5843 91.8621 20.9271C92.8331 21.2621 94.5309 22.3685 96.5787 24.5469C98.6277 26.7266 101.03 29.9825 103.409 34.6217C108.165 43.8981 112.827 58.7061 114.383 81.5024L114.462 81.6119L114.462 81.6123C117.198 85.4622 119.937 92.932 118.826 100.737C117.715 108.547 112.751 116.685 100.096 121.867L100.094 121.868C85.6442 127.168 63.5077 131.145 41.9048 121.867C29.1833 116.658 24.2342 108.46 23.157 100.613C22.0816 92.7785 24.8664 85.2995 27.6109 81.5025C27.613 81.4725 27.6156 81.4435 27.6182 81.4152C27.6232 81.3597 27.6281 81.3064 27.6281 81.2515V81.2381L27.6348 81.2266C34.9454 68.4945 42.438 56.4032 48.1036 48.7243C50.935 44.8867 53.3145 42.145 54.9892 40.979C55.4084 40.6872 55.7864 40.4919 56.1186 40.4039C56.4514 40.3156 56.7424 40.3341 56.9815 40.4759C57.2199 40.6174 57.3976 40.8761 57.5157 41.2494C57.6285 41.6061 57.6884 42.0718 57.6935 42.6512Z" fill="white" stroke="#4D4D55" stroke-width="0.1" stroke-miterlimit="10"/>
<path d="M27.1467 80.2006C33.302 77.4206 45.0195 72.5093 52.3394 73.0412C52.3394 73.0412 62.2675 48.1513 70.5782 46.4184C78.8962 48.1513 88.8188 73.0412 88.8188 73.0412C96.4844 72.4853 108.984 77.7023 114.853 80.397L114.764 80.2784C111.621 35.6137 95.9095 22.2698 92.0277 20.9725C88.1459 19.6752 84.449 32.6484 84.449 42.2856C77.6097 39.1349 69.2916 36.355 57.4467 42.2856C57.4467 32.6484 53.7497 19.6752 49.868 20.9725C45.9862 22.2698 30.3316 35.7471 27.1467 80.2006Z" fill="#4D4D55"/>
<path d="M87.7065 44.4461C87.7065 44.4461 88.8666 29.1402 94.2806 31.5891C99.6945 34.0381 107.815 53.4256 108.589 69.9561C101.241 59.548 87.7065 44.4461 87.7065 44.4461Z" fill="white"/>
<path d="M55.3389 44.4461C55.3389 44.4461 54.1787 29.1402 48.7648 31.5891C43.3509 34.0381 35.2299 53.4256 34.4565 69.9561C41.804 59.548 55.3389 44.4461 55.3389 44.4461Z" fill="white"/>
<path d="M44.8972 100.235C46.6638 97.5455 50.3934 94.0873 56.0859 90.6291C56.4785 94.8558 63.1623 98.5349 69.4339 98.1391C75.7055 98.5349 82.3893 94.8539 82.7819 90.6291C88.4745 94.0873 92.2041 97.5455 93.9707 100.235C83.4493 82.3083 69.6302 83.5341 69.4339 83.5533C69.0531 83.5206 55.3498 82.4275 44.8972 100.235Z" fill="#4D4D55"/>
<path d="M90.8381 92.4822C84.7696 92.4822 79.7969 87.8012 79.7969 81.9631C79.7969 76.1249 84.7696 71.4439 90.8381 71.4439C96.9066 71.4439 101.879 76.1249 101.879 81.9631C101.879 87.8012 96.9066 92.4822 90.8381 92.4822Z" fill="white" stroke="#4D4D55" stroke-width="1.2" stroke-miterlimit="10"/>
<path d="M51.1614 92.4822C45.0929 92.4822 40.1202 87.8012 40.1202 81.9631C40.1202 76.1249 45.0929 71.4439 51.1614 71.4439C57.2299 71.4439 62.2025 76.1249 62.2025 81.9631C62.2025 87.8012 57.2299 92.4822 51.1614 92.4822Z" fill="white" stroke="#4D4D55" stroke-width="1.2" stroke-miterlimit="10"/>
<path d="M85.0521 85.7918C83.0098 85.7918 81.3542 84.1362 81.3542 82.0939C81.3542 80.0516 83.0098 78.396 85.0521 78.396C87.0944 78.396 88.75 80.0516 88.75 82.0939C88.75 84.1362 87.0944 85.7918 85.0521 85.7918Z" fill="#007EAA"/>
<path d="M56.9476 85.7918C54.9053 85.7918 53.2497 84.1362 53.2497 82.0939C53.2497 80.0516 54.9053 78.396 56.9476 78.396C58.9899 78.396 60.6455 80.0516 60.6455 82.0939C60.6455 84.1362 58.9899 85.7918 56.9476 85.7918Z" fill="#007EAA"/>
<path d="M58.2048 113.199C58.2048 113.199 70.0058 116.961 83.6972 113.138C83.6972 113.138 84.2257 113.002 85.0145 112.718C87.7539 111.738 93.6292 108.985 91.3793 103.987C88.6865 100.167 84.3364 101.275 82.378 102.041C81.8814 102.237 81.4104 102.481 80.9733 102.768C79.3918 103.805 69.557 107.85 61.0258 102.768C60.5911 102.481 60.1219 102.237 59.627 102.041C57.6647 101.275 53.3146 100.167 50.6218 103.987C47.7308 110.425 58.2048 113.199 58.2048 113.199Z" fill="#4D4D55"/>
<path d="M58.4705 113.112C58.4705 113.112 69.5008 117.071 82.2981 113.048C82.2981 113.048 82.792 112.904 83.5293 112.606C83.5293 112.606 79.5014 108.29 70.2127 108.605C60.9239 108.919 58.4705 113.112 58.4705 113.112Z" fill="#F57878"/>
<path d="M63.757 87.8471C63.694 86.9619 64.9532 86.1511 66.5693 86.0361C68.1855 85.9211 69.5467 86.5454 69.6096 87.4305C69.6726 88.3156 68.4135 89.1265 66.7973 89.2415C65.1812 89.3565 63.82 88.7322 63.757 87.8471Z" fill="white"/>
<path d="M103.889 104.412C98.4113 104.412 93.9704 102.075 93.9704 99.1913C93.9704 96.308 98.4113 93.9707 103.889 93.9707C109.368 93.9707 113.809 96.308 113.809 99.1913C113.809 102.075 109.368 104.412 103.889 104.412Z" fill="#FFC2D8"/>
<path d="M36.0225 104.412C31.1209 104.412 27.1475 102.075 27.1475 99.1913C27.1475 96.308 31.1209 93.9707 36.0225 93.9707C40.924 93.9707 44.8975 96.308 44.8975 99.1913C44.8975 102.075 40.924 104.412 36.0225 104.412Z" fill="#FFC2D8"/>
</svg>
