<svg width="30" height="26" viewBox="0 0 30 26" fill="none" xmlns="http://www.w3.org/2000/svg">
<path fill-rule="evenodd" clip-rule="evenodd" d="M7.00231 10.5692L15.0768 18.7886L23.065 10.657L29.6147 17.3242L22.0048 25.0707L20.0471 23.131L25.7515 17.3242L23.065 14.5894L15.0768 22.7211L7.00231 14.5017L4.34853 17.2031L10.1396 23.0982L8.18198 25.0379L0.485352 17.2031L7.00231 10.5692Z" fill="#33373C"/>
<path fill-rule="evenodd" clip-rule="evenodd" d="M23.0977 14.5014L15.0232 6.28212L7.03506 14.4137L0.485352 7.74644L8.09521 0L10.0529 1.93971L4.34852 7.74644L7.03506 10.4812L15.0232 2.34958L23.0977 10.569L25.7515 7.86746L19.9604 1.97241L21.918 0.0326993L29.6147 7.86746L23.0977 14.5014Z" fill="#33373C"/>
<path fill-rule="evenodd" clip-rule="evenodd" d="M13.8184 24.8776V19.6991H16.4551V24.8776H13.8184Z" fill="#33373C"/>
<path fill-rule="evenodd" clip-rule="evenodd" d="M13.8184 5.37157V0.193054H16.4551V5.37157H13.8184Z" fill="#33373C"/>
</svg>
