<svg width="52" height="45" viewBox="0 0 52 45" fill="none" xmlns="http://www.w3.org/2000/svg">
<path fill-rule="evenodd" clip-rule="evenodd" d="M12.0138 18.7092L26.2284 33.0954L40.2913 18.8629L51.8217 30.5323L38.4249 44.0908L34.9785 40.6958L45.0207 30.5323L40.2913 25.7458L26.2284 39.9784L12.0138 25.5923L7.34194 30.3205L17.5369 40.6385L14.0905 44.0335L0.541016 30.3205L12.0138 18.7092Z" fill="white"/>
<path fill-rule="evenodd" clip-rule="evenodd" d="M40.3489 25.5919L26.1342 11.2059L12.0714 25.4384L0.541016 13.7688L13.9378 0.210449L17.3841 3.60547L7.34192 13.7688L12.0714 18.5555L26.1342 4.32286L40.3489 18.709L45.0208 13.9807L34.8257 3.66271L38.2721 0.267682L51.8216 13.9807L40.3489 25.5919Z" fill="white"/>
<path fill-rule="evenodd" clip-rule="evenodd" d="M24.0127 43.7528V34.689H28.6545V43.7528H24.0127Z" fill="white"/>
<path fill-rule="evenodd" clip-rule="evenodd" d="M24.0127 9.61216V0.54834H28.6545V9.61216H24.0127Z" fill="white"/>
</svg>
