<svg width="28" height="21" viewBox="0 0 28 21" fill="none" xmlns="http://www.w3.org/2000/svg">
<path fill-rule="evenodd" clip-rule="evenodd" d="M25.5324 18.0679C24.0091 18.0679 22.601 17.5379 21.675 16.6332C20.7492 17.5379 19.3409 18.0679 17.818 18.0679C16.2948 18.0679 14.8866 17.5379 13.9608 16.6332C13.0349 17.5379 11.6267 18.0679 10.1036 18.0679C8.58047 18.0679 7.17225 17.5379 6.24641 16.6332C5.3204 17.5379 3.91235 18.0679 2.38922 18.0679C0.696747 18.0679 -0.853844 17.4137 -1.75844 16.3177C-1.891 16.1572 -1.86828 15.9198 -1.70776 15.7873C-1.54741 15.6547 -1.3099 15.6774 -1.17733 15.838C-0.425577 16.7488 0.940957 17.3145 2.38922 17.3145C3.83749 17.3145 5.20418 16.7488 5.95578 15.838C6.02737 15.7513 6.13395 15.7011 6.24641 15.7011C6.35887 15.7011 6.46545 15.7513 6.53704 15.838C7.28864 16.7488 8.65533 17.3145 10.1036 17.3145C11.5519 17.3145 12.9186 16.7488 13.6702 15.838C13.8133 15.6645 14.1081 15.6645 14.2513 15.838C15.003 16.7488 16.3697 17.3145 17.818 17.3145C19.2662 17.3145 20.6328 16.7488 21.3845 15.838C21.5277 15.6645 21.8224 15.6645 21.9656 15.838C22.7288 16.7625 24.062 17.3145 25.5324 17.3145C26.9806 17.3145 28.3471 16.7488 29.0989 15.838C29.2315 15.6776 29.4685 15.6549 29.6292 15.7873C29.7897 15.9198 29.8122 16.1572 29.6798 16.3177C28.7754 17.4137 27.2248 18.0679 25.5324 18.0679Z" fill="#4B4B4B"/>
<path fill-rule="evenodd" clip-rule="evenodd" d="M25.5324 20.1303C24.0092 20.1303 22.6012 19.6002 21.675 18.6955C20.749 19.6002 19.3409 20.1303 17.818 20.1303C16.2948 20.1303 14.8868 19.6002 13.9608 18.6955C13.0348 19.6002 11.6266 20.1303 10.1036 20.1303C8.58047 20.1303 7.17242 19.6002 6.24641 18.6955C5.3204 19.6002 3.91219 20.1303 2.38922 20.1303C0.69691 20.1303 -0.853681 19.476 -1.75844 18.38C-1.891 18.2195 -1.86828 17.9821 -1.70776 17.8496C-1.54741 17.717 -1.3099 17.7397 -1.1775 17.9002C-0.425577 18.811 0.941121 19.3768 2.38922 19.3768C3.83732 19.3768 5.20402 18.811 5.95594 17.9002C6.02737 17.8136 6.13395 17.7634 6.24641 17.7634C6.35887 17.7634 6.46545 17.8136 6.53704 17.9002C7.2888 18.811 8.65533 19.3768 10.1036 19.3768C11.5517 19.3768 12.9184 18.811 13.6702 17.9002C13.8132 17.7268 14.1082 17.7268 14.2513 17.9002C15.003 18.811 16.3697 19.3768 17.818 19.3768C19.2661 19.3768 20.6328 18.811 21.3845 17.9002C21.5276 17.7268 21.8226 17.7268 21.9656 17.9002C22.7174 18.811 24.0842 19.3768 25.5324 19.3768C26.9805 19.3768 28.347 18.811 29.0989 17.9002C29.2315 17.7397 29.4688 17.7172 29.6292 17.8496C29.7897 17.9821 29.8122 18.2195 29.6798 18.38C28.7753 19.476 27.2247 20.1303 25.5324 20.1303Z" fill="#4B4B4B"/>
<path fill-rule="evenodd" clip-rule="evenodd" d="M17.9189 3.31539C18.2993 4.23715 17.8604 5.29261 16.9388 5.67282C16.017 6.0532 14.9615 5.6143 14.5813 4.69271C14.201 3.77096 14.6399 2.71549 15.5614 2.33511C16.4832 1.9549 17.5387 2.3938 17.9189 3.31539Z" fill="#4B4B4B"/>
<path fill-rule="evenodd" clip-rule="evenodd" d="M17.2274 3.04638C17.3145 3.25741 17.214 3.49917 17.0029 3.58629C16.7917 3.67341 16.55 3.57289 16.463 3.36169C16.3759 3.15067 16.4764 2.90891 16.6875 2.82178C16.8986 2.73466 17.1404 2.83519 17.2274 3.04638Z" fill="black"/>
<path fill-rule="evenodd" clip-rule="evenodd" d="M17.666 3.87175C17.7069 3.97064 17.6598 4.08408 17.5607 4.12495C17.4618 4.16565 17.3486 4.11857 17.3077 4.01968C17.2668 3.92062 17.3139 3.80734 17.413 3.76648C17.5119 3.72561 17.6251 3.77285 17.666 3.87175Z" fill="#4B4B4B"/>
<path fill-rule="evenodd" clip-rule="evenodd" d="M7.98704 11.1183C7.98704 11.531 7.65227 11.8656 7.23953 11.8656C6.82679 11.8656 6.49219 11.531 6.49219 11.1183C6.49219 10.7055 6.82679 10.3708 7.23953 10.3708C7.65227 10.3708 7.98704 10.7055 7.98704 11.1183Z" fill="#4B4B4B"/>
<path fill-rule="evenodd" clip-rule="evenodd" d="M8.02964 12.9577C8.02964 13.2421 7.79916 13.4726 7.5149 13.4726C7.23048 13.4726 7 13.2421 7 12.9577C7 12.6734 7.23048 12.4427 7.5149 12.4427C7.79916 12.4427 8.02964 12.6734 8.02964 12.9577Z" fill="#4B4B4B"/>
<path fill-rule="evenodd" clip-rule="evenodd" d="M19.397 10.519C19.397 10.7542 19.2063 10.9449 18.9711 10.9449C18.7357 10.9449 18.5449 10.7542 18.5449 10.519C18.5449 10.2837 18.7357 10.093 18.9711 10.093C19.2063 10.093 19.397 10.2837 19.397 10.519Z" fill="#4B4B4B"/>
<path fill-rule="evenodd" clip-rule="evenodd" d="M6.31054 12.3234C6.31054 12.5225 6.14921 12.6837 5.95027 12.6837C5.75118 12.6837 5.58984 12.5225 5.58984 12.3234C5.58984 12.1245 5.75118 11.9632 5.95027 11.9632C6.14921 11.9632 6.31054 12.1245 6.31054 12.3234Z" fill="#4B4B4B"/>
<path fill-rule="evenodd" clip-rule="evenodd" d="M19.5159 11.5315C19.5159 11.6625 19.4098 11.7686 19.279 11.7686C19.1481 11.7686 19.042 11.6625 19.042 11.5315C19.042 11.4008 19.1481 11.2947 19.279 11.2947C19.4098 11.2947 19.5159 11.4008 19.5159 11.5315Z" fill="#4B4B4B"/>
<path fill-rule="evenodd" clip-rule="evenodd" d="M21.4114 7.51237C21.4114 7.6433 21.3053 7.74939 21.1744 7.74939C21.0436 7.74939 20.9375 7.6433 20.9375 7.51237C20.9375 7.3816 21.0436 7.27551 21.1744 7.27551C21.3053 7.27551 21.4114 7.3816 21.4114 7.51237Z" fill="#4B4B4B"/>
<path fill-rule="evenodd" clip-rule="evenodd" d="M21.8391 6.9054C21.8391 7.03634 21.733 7.14242 21.6023 7.14242C21.4713 7.14242 21.3652 7.03634 21.3652 6.9054C21.3652 6.77463 21.4713 6.66855 21.6023 6.66855C21.733 6.66855 21.8391 6.77463 21.8391 6.9054Z" fill="#4B4B4B"/>
<path fill-rule="evenodd" clip-rule="evenodd" d="M20.7883 6.81187C20.7883 6.9428 20.6822 7.04889 20.5513 7.04889C20.4205 7.04889 20.3145 6.9428 20.3145 6.81187C20.3145 6.6811 20.4205 6.57501 20.5513 6.57501C20.6822 6.57501 20.7883 6.6811 20.7883 6.81187Z" fill="#4B4B4B"/>
<path fill-rule="evenodd" clip-rule="evenodd" d="M11.0821 5.61858C10.8462 5.69704 10.5988 5.59586 10.5311 5.39268C10.5 5.29967 10.5113 5.19685 10.5628 5.10352C10.6195 5.00021 10.7168 4.92126 10.8364 4.88137C11.0337 4.81566 11.1405 4.60235 11.0747 4.40489C11.0089 4.20742 10.7951 4.10085 10.5983 4.16656C10.2981 4.2666 10.0512 4.47027 9.90257 4.74014C9.74859 5.01983 9.71802 5.33629 9.81626 5.63101C9.97351 6.10275 10.4273 6.39846 10.9218 6.39846C11.0533 6.39846 11.1879 6.37753 11.3204 6.3334C11.5177 6.26752 11.6245 6.05421 11.5586 5.85691C11.4929 5.65945 11.2794 5.55271 11.0821 5.61858Z" fill="#4B4B4B"/>
<path fill-rule="evenodd" clip-rule="evenodd" d="M14.2513 13.7761C14.1082 13.6027 13.8132 13.6027 13.6702 13.7761C12.9186 14.6867 11.5519 15.2525 10.1036 15.2525C8.65533 15.2525 7.28864 14.6867 6.53704 13.7761C6.46545 13.6895 6.35887 13.6393 6.24641 13.6393C6.13395 13.6393 6.02737 13.6895 5.95594 13.7761C5.45068 14.3881 4.66705 14.8432 3.76834 15.0766C4.45896 12.4611 5.4904 9.47642 7.00127 6.91842C9.16435 3.2564 11.8364 1.25629 14.9432 0.973996C17.8631 0.709026 18.817 1.54529 19.7398 2.35442C20.1086 2.67775 20.4899 3.01219 20.9759 3.24234C21.4762 3.47936 22.0843 3.59902 22.6723 3.71491C23.3181 3.84208 23.9816 3.97269 24.2554 4.23243C24.0321 4.14252 23.7828 4.09169 23.5192 4.09169C23.3111 4.09169 23.1424 4.26038 23.1424 4.46846C23.1424 4.67655 23.3111 4.84508 23.5192 4.84508C23.9383 4.84508 24.3048 5.05006 24.4344 5.32565C24.4244 5.43321 24.4071 5.53864 24.3855 5.64244C23.9942 5.51036 23.6117 5.41637 23.2648 5.35965C23.1826 5.34511 23.1053 5.40199 23.0919 5.48421C23.0785 5.56627 23.1342 5.64375 23.2163 5.65715C23.5161 5.70603 23.8969 5.7992 24.3062 5.94027C24.2505 6.1137 24.1797 6.28043 24.0957 6.44013C23.7545 6.21357 23.4167 6.02723 23.0999 5.88812C23.0236 5.85445 22.9348 5.88927 22.9013 5.96544C22.8678 6.04161 22.9024 6.13054 22.9786 6.16404C23.2547 6.28517 23.5868 6.4671 23.9397 6.70608C23.8123 6.90223 23.6663 7.08531 23.5053 7.25269C23.1344 6.87919 22.7538 6.57744 22.3955 6.35807C22.3248 6.31492 22.2321 6.33699 22.1883 6.40793C22.1449 6.47887 22.1672 6.57155 22.2381 6.6152C22.5382 6.79876 22.905 7.08646 23.2805 7.46781C23.1695 7.56638 23.0546 7.6589 22.9354 7.74324C22.7604 7.49821 22.5734 7.28849 22.3908 7.12291C22.329 7.067 22.2337 7.07142 22.1778 7.1332C22.1219 7.19483 22.1266 7.29013 22.1883 7.34603C22.3354 7.47958 22.508 7.67181 22.6777 7.90997C22.6281 7.93956 22.5786 7.9698 22.5283 7.99677C21.342 8.63541 19.5639 8.79086 18.1317 7.31089C17.987 7.16148 17.7483 7.1574 17.5989 7.30222C17.4494 7.44689 17.4454 7.68538 17.5901 7.83494C18.5534 8.83026 19.6468 9.21079 20.6735 9.21913C19.8259 10.4368 19.8486 12.3218 20.1525 14.7225C19.4711 15.0607 18.6587 15.2525 17.818 15.2525C16.3697 15.2525 15.003 14.6867 14.2513 13.7761ZM29.6292 13.7254C29.4688 13.5932 29.2315 13.6156 29.0989 13.7761C28.3471 14.6867 26.9806 15.2525 25.5324 15.2525C24.062 15.2525 22.7288 14.7006 21.9656 13.7761C21.8226 13.6027 21.5276 13.6027 21.3845 13.7761C21.2327 13.96 21.0547 14.1292 20.857 14.2832C20.5577 11.7279 20.6454 9.88589 21.9184 9.04978C22.2644 8.95269 22.5904 8.81914 22.8854 8.66026C22.9456 8.62789 23.0023 8.59209 23.0605 8.5576C23.3233 9.10765 23.504 9.78585 23.4378 10.5376C23.4304 10.6205 23.4919 10.6935 23.5747 10.7009C23.5793 10.7014 23.5837 10.7014 23.5881 10.7014C23.6653 10.7014 23.7312 10.6424 23.738 10.5641C23.8095 9.75234 23.6194 9.00827 23.3202 8.39267C23.4837 8.28135 23.6393 8.16317 23.7835 8.036C24.5212 8.96184 25.1927 10.2568 25.3468 11.8899C25.3542 11.9681 25.4199 12.0266 25.4967 12.0266C25.5015 12.0266 25.5062 12.0264 25.5109 12.0258C25.5938 12.0181 25.6548 11.9445 25.6468 11.8618C25.489 10.1898 24.8157 8.82257 24.0123 7.82138C24.2152 7.61623 24.3917 7.39409 24.5454 7.16116C25.4923 7.94953 26.453 9.12939 26.8327 10.6937C26.8494 10.7627 26.9111 10.809 26.979 10.809C26.9907 10.809 27.0027 10.8076 27.0146 10.8047C27.0955 10.7851 27.1451 10.7035 27.1254 10.6228C26.7335 9.00761 25.7547 7.75109 24.7079 6.89341C24.8282 6.67699 24.9285 6.45272 25.0055 6.22191C25.8032 6.59264 26.605 7.14841 27.0775 7.93662C27.1058 7.98369 27.1557 8.00985 27.2068 8.00985C27.2332 8.00985 27.26 8.00298 27.2843 7.98843C27.3556 7.94561 27.3788 7.85309 27.336 7.78165C26.8307 6.93901 25.9793 6.32881 25.0915 5.92278C25.2224 5.3863 25.2363 4.82563 25.1131 4.27068C24.9172 3.38897 23.85 3.17892 22.8178 2.97558C22.2751 2.86867 21.7141 2.75817 21.2984 2.56137C20.9075 2.37616 20.5816 2.09043 20.2365 1.78787C19.2921 0.959775 18.1171 -0.0710099 14.875 0.223547C7.93529 0.854506 4.53939 8.99895 2.9494 15.2237C2.76485 15.2423 2.57769 15.2525 2.38922 15.2525C0.940957 15.2525 -0.425577 14.6867 -1.1775 13.7761C-1.3099 13.6156 -1.54741 13.5929 -1.70776 13.7254C-1.86828 13.8578 -1.891 14.0953 -1.75844 14.2559C-0.853681 15.3517 0.696747 16.0059 2.38922 16.0059C3.91235 16.0059 5.3204 15.4759 6.24641 14.5713C7.17225 15.4761 8.58047 16.0059 10.1036 16.0059C11.6267 16.0059 13.0348 15.4761 13.9608 14.5713C14.8866 15.4759 16.2948 16.0059 17.818 16.0059C19.3409 16.0059 20.7492 15.4759 21.675 14.5713C22.601 15.4759 24.0092 16.0059 25.5324 16.0059C27.2247 16.0059 28.7753 15.3517 29.6798 14.2559C29.8122 14.0953 29.7897 13.8578 29.6292 13.7254Z" fill="#4B4B4B"/>
</svg>
