<svg width="47" height="48" viewBox="0 0 47 48" fill="none" xmlns="http://www.w3.org/2000/svg">
<path d="M39.3831 0H17.8994V29.0253H46.906V7.51021C46.906 3.38904 43.5195 0 39.4067 0C39.3996 0 39.3902 0 39.3831 0V0Z" fill="#142533"/>
<path d="M11.2017 0H7.49925C3.38645 0 0 3.3914 0 7.51021V11.2181H11.2017V0Z" fill="#142533"/>
<path d="M0 17.9253H11.2017V29.1433H0V17.9253Z" fill="#142533"/>
<path d="M35.7979 46.9742H39.5003C43.6155 46.9742 46.9996 43.5828 46.9996 39.464C46.9996 39.4569 46.9996 39.4475 46.9996 39.4404V35.8506H35.7979V46.9742Z" fill="#142533"/>
<path d="M17.8994 35.8506H29.1011V47.0686H17.8994V35.8506Z" fill="#142533"/>
<path d="M0 35.8506V39.5584C0 43.6772 3.38645 47.0686 7.49925 47.0686H11.2017V35.8506H0Z" fill="#142533"/>
</svg>
