<svg width="34" height="19" viewBox="0 0 34 19" fill="none" xmlns="http://www.w3.org/2000/svg">
<path d="M19.178 9.50016C19.178 14.7468 14.8848 19 9.58918 19C4.29353 19 0 14.7458 0 9.50016C0 4.25449 4.29321 0 9.58918 0C14.8852 0 19.178 4.25353 19.178 9.50016ZM29.6973 9.50016C29.6973 14.4387 27.5507 18.4438 24.9028 18.4438C22.2548 18.4438 20.1082 14.4387 20.1082 9.50016C20.1082 4.56159 22.2544 0.556495 24.9024 0.556495C27.5504 0.556495 29.697 4.56031 29.697 9.50016H29.6973ZM34 9.50016C34 13.9239 33.2452 17.5123 32.3137 17.5123C31.3823 17.5123 30.6278 13.9249 30.6278 9.50016C30.6278 5.07545 31.3826 1.48805 32.3137 1.48805C33.2448 1.48805 34 5.07513 34 9.50016Z" fill="black"/>
</svg>
