<svg width="121" height="112" viewBox="0 0 121 112" fill="none" xmlns="http://www.w3.org/2000/svg">
<path d="M50.556 109.462C78.4774 109.462 101.112 86.7467 101.112 58.7258C101.112 30.7048 78.4774 7.98926 50.556 7.98926C22.6347 7.98926 0 30.7048 0 58.7258C0 86.7467 22.6347 109.462 50.556 109.462Z" fill="#EAEEF9"/>
<path d="M17.0463 104.214C18.6222 102.769 18.7323 100.315 17.2921 98.7338C15.852 97.1522 13.4069 97.0418 11.831 98.4871C10.2551 99.9324 10.145 102.386 11.5852 103.968C13.0253 105.549 15.4704 105.66 17.0463 104.214Z" fill="#EAEEF9"/>
<path d="M27.8744 13.4569C29.21 13.0212 29.9409 11.5814 29.5067 10.241C29.0726 8.90051 27.6379 8.16706 26.3022 8.60274C24.9666 9.03841 24.2357 10.4782 24.6698 11.8187C25.104 13.1591 26.5387 13.8926 27.8744 13.4569Z" fill="#EAEEF9"/>
<path d="M32.8787 5.21456C33.8337 5.21456 34.608 4.43757 34.608 3.47911C34.608 2.52064 33.8337 1.74365 32.8787 1.74365C31.9236 1.74365 31.1494 2.52064 31.1494 3.47911C31.1494 4.43757 31.9236 5.21456 32.8787 5.21456Z" fill="#7B3FE4"/>
<path d="M3.62267 95.1432C4.52155 95.1432 5.25024 94.4119 5.25024 93.5098C5.25024 92.6077 4.52155 91.8765 3.62267 91.8765C2.7238 91.8765 1.99512 92.6077 1.99512 93.5098C1.99512 94.4119 2.7238 95.1432 3.62267 95.1432Z" fill="#7B3FE4"/>
<path d="M75.1531 5.30467C75.6093 4.8863 75.6411 4.176 75.2242 3.71818C74.8074 3.26036 74.0996 3.22839 73.6434 3.64676C73.1872 4.06514 73.1553 4.77543 73.5722 5.23325C73.9891 5.69107 74.6969 5.72305 75.1531 5.30467Z" fill="#EAEEF9"/>
<path d="M66.7803 25.8462C68.4467 20.5519 72.2868 15.9731 77.1413 13.3975C78.6628 12.6106 80.3293 11.9667 82.0682 11.8951C83.8071 11.8236 85.6185 12.3959 86.7777 13.7553C87.937 15.043 88.1544 17.1178 87.2125 18.5487C86.1981 19.908 84.2418 20.4088 82.5754 20.0511C79.967 19.5503 77.7934 17.5471 77.1413 15.1146C76.4892 12.6821 77.3586 9.82034 79.3149 8.17484C80.6191 7.03013 82.358 6.45778 84.0245 5.95698C91.9945 3.66757 100.617 3.3814 108.731 5.09845" stroke="#C9D4E2" stroke-miterlimit="10" stroke-dasharray="4 4"/>
<path d="M115.478 2.03197C115.376 3.56325 115.275 4.89036 114.156 5.19662C113.037 5.50288 112.528 4.48202 111.816 3.05282C111.104 1.72571 111.511 0.3986 112.732 0.0923437C113.952 -0.213913 115.682 0.194429 115.478 2.03197Z" fill="#DAE2EB"/>
<path d="M114.36 9.17773C114.665 7.34019 114.97 6.42142 113.953 5.91099C112.834 5.40056 112.122 6.31933 111.003 7.54436C109.986 8.6673 110.596 10.1986 111.614 10.709C112.733 11.3215 114.055 10.709 114.36 9.17773Z" fill="#DAE2EB"/>
<path d="M115.682 5.91107C115.58 6.62567 115.072 7.1361 114.36 7.23818C114.054 7.23818 113.749 7.23818 113.342 7.23818C111.918 7.03401 110.799 6.11524 110.901 5.19647C111.003 4.2777 112.325 3.76727 113.851 3.97145C114.156 3.97145 114.461 4.07353 114.665 4.17562C115.377 4.37979 115.784 5.09439 115.682 5.91107C115.682 5.80898 115.682 5.91107 115.682 5.91107Z" fill="#1C3754"/>
<path d="M3.2373 28.9106C2.78864 27.2343 2.36637 25.6566 3.41348 24.8472C4.55885 24.0115 5.56335 25.0103 6.86993 26.3508C8.15011 27.5927 8.15297 29.1772 7.00759 30.0129C6.05874 30.7959 3.81792 31.0799 3.2373 28.9106Z" fill="#DAE2EB"/>
<path d="M1.76083 20.642C2.11855 22.7655 2.11409 23.9293 3.52338 24.0796C4.93267 24.23 5.33016 22.9609 6.08696 21.0669C6.70004 19.4228 5.56358 17.931 4.15429 17.7806C2.745 17.6302 1.50868 18.913 1.76083 20.642Z" fill="#DAE2EB"/>
<path d="M1.70766 24.7777C1.49653 23.9888 1.92772 23.239 2.58912 22.9559C2.85749 22.7782 3.25052 22.6728 3.66994 22.666C5.26843 22.3429 6.78329 22.8877 6.94895 23.9001C7.11461 24.9125 6.02203 25.9454 4.39714 26.1699C4.10237 26.249 3.78121 26.2295 3.46005 26.21C2.62122 26.2236 1.9188 25.5665 1.70766 24.7777Z" fill="#1C3754"/>
<path d="M8.37012 23.3057C18.4905 20.5909 38.7427 21.4994 44.8173 43.0152" stroke="#C9D4E2" stroke-miterlimit="10" stroke-dasharray="4 4"/>
<path d="M44.9452 55.4676C53.7058 50.404 64.8732 53.412 69.9224 62.1673L70.6455 63.4214C73.7807 68.8577 71.913 75.8344 66.4828 78.9731L54.506 85.8957C49.0758 89.0343 42.1068 87.1653 38.9716 81.7289L38.2484 80.4749C33.1986 71.7186 36.1804 60.5337 44.9452 55.4676Z" fill="white"/>
<path d="M17.8267 63.8285C22.1567 61.3257 27.7124 62.8165 30.2121 67.1509C32.7117 71.4853 31.223 77.0477 26.8934 79.5502C22.5639 82.0527 17.0077 80.5622 14.5081 76.2278C12.0084 71.8934 13.4972 66.331 17.8267 63.8285Z" fill="white"/>
<path d="M33.493 58.0761C29.163 60.5788 23.6073 59.0881 21.1077 54.7537C18.608 50.4193 20.0968 44.8569 24.4263 42.3544C28.7559 39.8519 34.312 41.3423 36.8117 45.6768C39.3116 50.0117 37.8226 55.5736 33.493 58.0761Z" fill="white"/>
<path d="M52.9276 46.8451C48.5981 49.3476 43.0419 47.8572 40.5423 43.5227C38.0426 39.1883 39.5314 33.6259 43.8609 31.1234C48.1904 28.6209 53.7466 30.1114 56.2462 34.4458C58.7459 38.7802 57.2576 44.3424 52.9276 46.8451Z" fill="white"/>
<path d="M65.732 36.1376C70.0615 33.6351 75.6177 35.1255 78.1173 39.46C80.617 43.7944 79.1282 49.3568 74.7987 51.8593C70.4692 54.3618 64.913 52.8713 62.4133 48.5369C59.9137 44.2025 61.402 38.6403 65.732 36.1376Z" fill="white"/>
<g filter="url(#filter0_d_99770_12415)">
<path d="M68.8354 97.6408C68.6406 104.113 73.9015 109.605 80.3316 109.801H83.4492L92.0227 109.997C104.883 110.193 115.6 99.9943 115.989 87.0498C116.379 74.1052 106.052 63.318 93.1918 62.9258C80.3316 62.5335 69.6148 72.9284 69.2251 85.873L69.0303 90.7762L68.8354 97.6408Z" fill="url(#paint0_linear_99770_12415)"/>
</g>
<path d="M71.3711 97.0487C71.1762 103.521 76.4372 109.013 82.8673 109.209H85.9849L100.209 94.8913L88.1282 80.7699L83.6467 78.2202L71.5659 90.3803L71.3711 97.0487Z" fill="url(#paint1_linear_99770_12415)"/>
<path d="M87.5399 86.6557L83.4481 82.537C82.279 81.3602 82.279 79.595 83.4481 78.4182C84.6172 77.2414 86.3708 77.2414 87.5399 78.4182L91.6318 82.537L95.7237 78.4182C96.8928 77.2414 98.6464 77.2414 99.8156 78.4182C100.985 79.595 100.985 81.3602 99.8156 82.537L95.7237 86.6557L99.8156 90.7744C100.985 91.9512 100.985 93.7164 99.8156 94.8931C99.231 95.4815 98.4516 95.6776 97.6722 95.6776C96.8928 95.6776 96.1134 95.4815 95.5288 94.8931L91.437 90.7744L87.3451 94.8931C86.176 96.0699 84.4223 96.0699 83.2532 94.8931C82.6687 94.3047 82.4738 93.5202 82.4738 92.7357C82.4738 91.9512 82.6687 91.1667 83.2532 90.5783L87.5399 86.6557Z" fill="url(#paint2_linear_99770_12415)"/>
<defs>
<filter id="filter0_d_99770_12415" x="63.8301" y="54.915" width="57.1699" height="57.0845" filterUnits="userSpaceOnUse" color-interpolation-filters="sRGB">
<feFlood flood-opacity="0" result="BackgroundImageFix"/>
<feColorMatrix in="SourceAlpha" type="matrix" values="0 0 0 0 0 0 0 0 0 0 0 0 0 0 0 0 0 0 127 0" result="hardAlpha"/>
<feOffset dy="-3"/>
<feGaussianBlur stdDeviation="2.5"/>
<feColorMatrix type="matrix" values="0 0 0 0 0.66275 0 0 0 0 0.1125 0 0 0 0 1 0 0 0 0.22 0"/>
<feBlend mode="normal" in2="BackgroundImageFix" result="effect1_dropShadow_99770_12415"/>
<feBlend mode="normal" in="SourceGraphic" in2="effect1_dropShadow_99770_12415" result="shape"/>
</filter>
<linearGradient id="paint0_linear_99770_12415" x1="94.9943" y1="77.5015" x2="82.3605" y2="97.8466" gradientUnits="userSpaceOnUse">
<stop stop-color="#A981FF"/>
<stop offset="1" stop-color="#7B40E4"/>
</linearGradient>
<linearGradient id="paint1_linear_99770_12415" x1="92.5482" y1="85.9046" x2="80.9919" y2="97.3855" gradientUnits="userSpaceOnUse">
<stop stop-color="#AA81FF"/>
<stop offset="1" stop-color="#8650EB" stop-opacity="0"/>
</linearGradient>
<linearGradient id="paint2_linear_99770_12415" x1="88.169" y1="88.958" x2="95.0958" y2="83.1569" gradientUnits="userSpaceOnUse">
<stop offset="0.0113208" stop-color="#C2D1FF"/>
<stop offset="1" stop-color="white"/>
</linearGradient>
</defs>
</svg>
