<svg width="43" height="43" viewBox="0 0 43 43" fill="none" xmlns="http://www.w3.org/2000/svg">
<path fill-rule="evenodd" clip-rule="evenodd" d="M7.73186 6.71875C7.05363 3.225 9.76656 0 13.2934 0C16.4132 0 18.9905 2.55312 18.9905 5.64375V12.6312C19.8044 12.6312 20.6183 12.4969 21.4322 12.4969C22.2461 12.4969 22.9243 12.4969 23.7382 12.6312V5.64375C23.7382 2.55312 26.3155 0 29.4353 0C32.9621 0 35.6751 3.225 35.1325 6.71875L33.6404 14.9156C38.9306 17.2 43 21.2312 43 26.2031V29.2937C43 33.4594 40.2871 36.9531 36.3533 39.2375C32.4196 41.6563 27.265 43 21.4322 43C15.5994 43 10.4448 41.6563 6.51104 39.2375C2.71293 36.9531 0 33.4594 0 29.2937V26.2031C0 21.2312 3.93375 17.2 9.22398 14.9156L7.73186 6.71875ZM31.6057 15.9906L33.3691 6.31562C33.776 3.89687 32.0126 1.6125 29.4353 1.6125C27.265 1.6125 25.5016 3.35937 25.5016 5.50937V14.3781C24.959 14.2437 24.2808 14.2438 23.7382 14.2438C22.9243 14.2438 22.2461 14.1094 21.4322 14.1094C20.6183 14.1094 19.8044 14.1094 18.9905 14.2438C18.4479 14.2438 17.7697 14.3781 17.2271 14.3781V5.64375C17.2271 3.49375 15.4637 1.74687 13.2934 1.74687C10.8517 1.74687 8.95268 4.03125 9.49527 6.45L11.2587 16.125C5.56151 18.275 1.76341 22.0375 1.76341 26.3375V29.4281C1.76341 36.0125 10.5804 41.3875 21.4322 41.3875C32.2839 41.3875 41.1009 36.0125 41.1009 29.4281V26.3375C41.2366 21.9031 37.4385 18.1406 31.6057 15.9906Z" fill="#633001"/>
<path d="M41.237 29.2937C41.237 35.8781 32.4199 41.2531 21.5682 41.2531C10.7164 41.2531 1.89941 35.8781 1.89941 29.2937V26.2031H41.3726V29.2937H41.237Z" fill="#FEDC90"/>
<path fill-rule="evenodd" clip-rule="evenodd" d="M9.49563 6.44995C8.95304 4.0312 10.8521 1.74683 13.2937 1.74683C15.4641 1.74683 17.2275 3.4937 17.2275 5.6437V14.5125C18.584 14.3781 19.9404 14.2437 21.4325 14.2437C22.789 14.2437 24.1455 14.3781 25.5019 14.5125V5.6437C25.5019 3.4937 27.2653 1.74683 29.4357 1.74683C31.8773 1.74683 33.7764 4.0312 33.3694 6.44995L31.606 16.1249C37.3032 18.2749 41.237 22.0375 41.237 26.3375C41.237 32.9218 32.4199 38.2968 21.5682 38.2968C10.7164 38.2968 1.89941 32.9218 1.89941 26.3375C1.89941 22.0375 5.69752 18.2749 11.3947 16.1249L9.49563 6.44995Z" fill="#D1884F"/>
<path d="M16.0067 25.3969C16.0067 27.1437 15.0572 28.6219 13.8364 28.6219C12.6155 28.6219 11.666 27.1437 11.666 25.3969C11.666 23.65 12.6155 22.1719 13.8364 22.1719C15.0572 22.1719 16.0067 23.65 16.0067 25.3969Z" fill="#633001"/>
<path d="M31.0633 25.3969C31.0633 27.1437 30.1138 28.6219 28.893 28.6219C27.6722 28.6219 26.7227 27.1437 26.7227 25.3969C26.7227 23.65 27.6722 22.1719 28.893 22.1719C30.1138 22.1719 31.0633 23.65 31.0633 25.3969Z" fill="#633001"/>
</svg>
