<svg width="220" height="220" viewBox="0 0 220 220" fill="none" xmlns="http://www.w3.org/2000/svg">
<circle cx="110" cy="110" r="104" fill="#FDFEFF" stroke="#ECEEF0" stroke-width="12"/>
<path opacity="0.2" d="M178.197 157.137L173.768 178.662L141.188 181.251L89.1538 178.338L50.2469 176.558C48.0327 176.558 46.293 174.777 46.293 172.673V58.4144C46.293 55.825 48.5072 53.8829 50.8795 54.3684L110.663 55.9868L178.197 157.137Z" fill="#2B4182"/>
<path d="M136.192 61.9415V177.841L165.539 182.515C172.312 183.644 178.6 178.324 178.6 171.554V63.0699C178.6 57.5892 174.569 52.9146 169.087 52.1086L161.669 50.9802L136.192 61.9415Z" fill="#F2F5FC"/>
<path d="M85.0762 51.7881L112.166 49.209L85.0762 69.1972V51.7881Z" fill="#DDE1F0"/>
<path d="M40.5859 55.6046V90.9063L61.5479 81.557L70.739 77.5271L85.8961 70.7569V53.3478L51.2282 46.9C50.9057 46.9 50.7444 46.7388 50.422 46.7388C46.0683 46.2553 42.1984 48.9956 40.9084 53.0255C40.7472 53.9926 40.5859 54.7986 40.5859 55.6046Z" fill="#F2F5FC"/>
<path d="M39.7666 117.876V167.202C39.7666 168.008 39.9278 168.814 40.0891 169.62C40.4116 170.909 41.2178 172.199 42.1853 173.166C43.4753 174.456 45.0877 175.423 47.0227 175.906L47.6677 176.068L54.44 177.357L58.9549 178.163L84.9155 182.999V97.2432L84.1093 97.5656L76.047 101.273L39.7666 117.876Z" fill="#F2F5FC"/>
<path d="M136.192 61.9429V46.7905L161.831 50.8204L136.354 61.7817L136.192 61.9429Z" fill="#D6DBEB"/>
<path d="M85.0762 97.2446V69.1966L112.166 49.2085L136.191 46.7905V61.9429L85.0762 97.2446Z" fill="#C5CCDE"/>
<path d="M85.0768 97.2423L39.7666 117.875V89.3437L85.0768 69.1943V97.2423Z" fill="#D6DBEB"/>
<path d="M86.3661 165.107L85.0762 165.59V97.2436L136.191 61.9419V136.575H128.774L86.3661 165.107Z" fill="#DDE1F0"/>
<path d="M178.757 136.576V171.555C178.757 178.325 172.63 183.645 165.696 182.516L136.35 177.842V136.576H178.757Z" fill="#CCD7FF"/>
<path d="M85.0753 165.591V183L54.4385 177.358L85.0753 165.591Z" fill="#CCD7FF"/>
<path d="M86.3661 165.107L128.774 136.576H136.191V178.003L85.0762 183V165.591L86.3661 165.107Z" fill="#B3C3FF"/>
<path d="M40.0889 169.62C40.4114 170.91 41.2176 172.199 42.1851 173.167C43.475 174.456 45.0875 175.423 47.0225 175.907L47.6674 176.068L54.4398 177.358L58.9547 178.164L84.9153 171.071L85.8828 170.749L136.192 140.122H178.599V128.032L136.192 128.677H131.838L85.0766 99.0168L84.2703 97.7273L69.9194 75.9659L49.7636 45.3389C44.8666 46.6837 42.9642 49.0618 40.2501 51.6255L60.7284 80.157L76.0468 101.435L84.9153 113.847L119.744 136.092L84.9153 158.659L84.5928 158.981L40.0889 169.62Z" fill="white"/>
<path d="M35.4966 78.4238C37.6139 77.7359 38.7724 75.4624 38.0842 73.3458C37.396 71.2292 35.1218 70.0711 33.0045 70.759C30.8873 71.447 29.7288 73.7205 30.4169 75.837C31.1051 77.9536 33.3794 79.1118 35.4966 78.4238Z" fill="#EAEEF9"/>
<path d="M112.301 207.061C113.741 206.593 114.529 205.047 114.061 203.607C113.593 202.167 112.047 201.379 110.607 201.847C109.167 202.315 108.379 203.862 108.847 205.301C109.315 206.741 110.862 207.529 112.301 207.061Z" fill="#EAEEF9"/>
<path d="M15.7412 123.196C17.2551 123.196 18.4824 121.969 18.4824 120.456C18.4824 118.942 17.2551 117.716 15.7412 117.716C14.2273 117.716 13 118.942 13 120.456C13 121.969 14.2273 123.196 15.7412 123.196Z" fill="url(#paint0_linear_99770_12317)"/>
<path d="M200.818 100.763C203.316 98.4805 203.49 94.606 201.207 92.1087C198.924 89.6114 195.049 89.437 192.551 91.7191C190.052 94.0013 189.878 97.8758 192.161 100.373C194.444 102.87 198.32 103.045 200.818 100.763Z" fill="#EAEEF9"/>
<path d="M190.607 56.5998C192.032 56.5998 193.187 55.4447 193.187 54.0199C193.187 52.595 192.032 51.4399 190.607 51.4399C189.182 51.4399 188.027 52.595 188.027 54.0199C188.027 55.4447 189.182 56.5998 190.607 56.5998Z" fill="url(#paint1_linear_99770_12317)"/>
<path d="M110.876 41.1491C112.301 41.1491 113.456 39.9941 113.456 38.5692C113.456 37.1443 112.301 35.9893 110.876 35.9893C109.451 35.9893 108.296 37.1443 108.296 38.5692C108.296 39.9941 109.451 41.1491 110.876 41.1491Z" fill="#EAEEF9"/>
<path d="M114.262 49.0479C114.262 52.433 113.617 55.9793 112.488 59.6868C110.231 67.1018 106.2 75.0004 102.007 82.5765C97.3313 90.9587 92.3326 99.1796 89.269 106.111C88.7852 107.401 87.4953 108.045 86.2053 108.045C84.9153 108.045 83.6253 107.239 83.1416 106.111C75.8855 89.8303 58.1484 66.7794 58.1484 49.0479C58.1484 33.5732 70.7256 21 86.2053 21C101.685 21 114.262 33.5732 114.262 49.0479Z" fill="#FD892D"/>
<path d="M112.488 59.6857C110.231 67.1007 106.2 74.9992 102.007 82.5754L77.9814 58.5573L88.4624 48.5632L95.396 42.2766L112.488 59.6857Z" fill="url(#paint2_linear_99770_12317)"/>
<path d="M86.2037 61.9438C92.7937 61.9438 98.1359 56.6032 98.1359 50.0154C98.1359 43.4275 92.7937 38.0869 86.2037 38.0869C79.6137 38.0869 74.2715 43.4275 74.2715 50.0154C74.2715 56.6032 79.6137 61.9438 86.2037 61.9438Z" fill="url(#paint3_linear_99770_12317)"/>
<defs>
<linearGradient id="paint0_linear_99770_12317" x1="13" y1="120.524" x2="18.3298" y2="120.524" gradientUnits="userSpaceOnUse">
<stop stop-color="#83A6FF"/>
<stop offset="1" stop-color="#5A78FF"/>
</linearGradient>
<linearGradient id="paint1_linear_99770_12317" x1="188.074" y1="53.9967" x2="193.08" y2="53.9967" gradientUnits="userSpaceOnUse">
<stop stop-color="#83A6FF"/>
<stop offset="1" stop-color="#5A78FF"/>
</linearGradient>
<linearGradient id="paint2_linear_99770_12317" x1="85.9672" y1="49.8905" x2="105.132" y2="69.0617" gradientUnits="userSpaceOnUse">
<stop stop-color="#E18033"/>
<stop offset="1" stop-color="#F39C57" stop-opacity="0"/>
</linearGradient>
<linearGradient id="paint3_linear_99770_12317" x1="94.228" y1="58.1293" x2="77.9637" y2="41.86" gradientUnits="userSpaceOnUse">
<stop offset="0.0113208" stop-color="#FFC9E3"/>
<stop offset="1" stop-color="white"/>
</linearGradient>
</defs>
</svg>
