<svg width="116" height="110" viewBox="0 0 116 110" fill="none" xmlns="http://www.w3.org/2000/svg">
<path d="M58 110C88.3757 110 113 85.3757 113 55C113 24.6243 88.3757 0 58 0C27.6243 0 3 24.6243 3 55C3 85.3757 27.6243 110 58 110Z" fill="#EAEEF9"/>
<path d="M10.7315 23.7824C12.0281 23.3101 12.7377 21.7493 12.3162 20.2962C11.8947 18.8431 10.5019 18.048 9.20526 18.5203C7.90858 18.9926 7.19908 20.5534 7.62053 22.0065C8.04198 23.4596 9.4348 24.2547 10.7315 23.7824Z" fill="#EAEEF9"/>
<path d="M16.1207 14.756C17.0024 14.4348 17.4849 13.3735 17.1983 12.3854C16.9117 11.3973 15.9646 10.8566 15.0829 11.1778C14.2011 11.4989 13.7187 12.5603 14.0052 13.5484C14.2918 14.5365 15.2389 15.0771 16.1207 14.756Z" fill="#EAEEF9"/>
<path d="M113.23 42.2136C114.76 40.6468 114.866 37.9869 113.468 36.2724C112.07 34.5579 109.697 34.4382 108.167 36.005C106.637 37.5717 106.53 40.2316 107.928 41.9461C109.326 43.6606 111.7 43.7803 113.23 42.2136Z" fill="#EAEEF9"/>
<path d="M113.58 23.4426C114.225 22.783 114.27 21.663 113.681 20.9411C113.092 20.2192 112.093 20.1688 111.449 20.8285C110.804 21.4882 110.759 22.6081 111.348 23.33C111.937 24.0519 112.936 24.1023 113.58 23.4426Z" fill="#EAEEF9"/>
<path d="M6.32075 78.1326C7.41154 78.1326 8.29579 77.1417 8.29579 75.9193C8.29579 74.697 7.41154 73.7061 6.32075 73.7061C5.22996 73.7061 4.3457 74.697 4.3457 75.9193C4.3457 77.1417 5.22996 78.1326 6.32075 78.1326Z" fill="#7B3FE4"/>
<path d="M96.0859 6.97582C96.9585 6.97582 97.6659 6.18308 97.6659 5.20519C97.6659 4.22731 96.9585 3.43457 96.0859 3.43457C95.2133 3.43457 94.5059 4.22731 94.5059 5.20519C94.5059 6.18308 95.2133 6.97582 96.0859 6.97582Z" fill="#7B3FE4"/>
<path d="M1.28378 44.8231C1.99279 44.8231 2.56756 44.179 2.56756 43.3844C2.56756 42.5899 1.99279 41.9458 1.28378 41.9458C0.574768 41.9458 0 42.5899 0 43.3844C0 44.179 0.574768 44.8231 1.28378 44.8231Z" fill="#7B3FE4"/>
<path d="M101.221 76.9569H14.9111V27.8421C14.9111 26.2434 16.2937 25 18.0712 25H98.0606C99.8381 25 101.221 26.2434 101.221 27.8421V76.9569Z" fill="#BFCFFF"/>
<path d="M79.6923 79.5322H17.5771V27.8418H98.159V79.5322H88.6788" fill="white"/>
<path d="M106.158 76.957V79.1774C106.158 81.2202 104.183 81.7531 101.813 81.7531H14.3187C11.9487 81.7531 9.97363 81.309 9.97363 79.1774V76.957H49.5733C49.8696 77.7564 50.8571 78.3781 51.9434 78.3781H64.1886C65.2749 78.3781 66.1637 77.7564 66.5587 76.957H106.158Z" fill="#BFCFFF"/>
<path d="M106.158 76.957C106.158 78.9998 104.183 79.4439 101.813 79.4439H14.3187C11.9487 79.4439 9.97363 78.9998 9.97363 76.957H49.5733C49.8696 77.7564 50.8571 78.3781 51.9434 78.3781H64.1886C65.2749 78.3781 66.1637 77.7564 66.5587 76.957H106.158Z" fill="#D7DFF8"/>
<g filter="url(#filter0_d_99770_12354)">
<path d="M76.5286 27.113C75.5603 27.113 73.2363 26.2737 72.4617 25.994C68.3947 24.2222 61.7133 19 58.0337 19C54.3541 19 47.6727 24.1289 43.6057 25.994C42.9279 26.2737 40.5071 27.113 39.5388 27.113C37.9894 27.2063 36.8275 28.5118 37.0211 29.9106C37.4084 33.361 38.3768 39.5157 40.8944 47.4422C44.1867 57.2337 53.2889 63.1087 56.7749 65.067C57.6464 65.5332 58.6147 65.5332 59.4862 65.067C62.9721 63.1087 72.0744 57.2337 75.173 47.4422C77.6906 39.5157 78.6589 33.361 79.0463 29.9106C79.2399 28.5118 78.0779 27.2063 76.5286 27.113Z" fill="url(#paint0_linear_99770_12354)"/>
</g>
<path d="M75.2699 30.5627C74.8826 33.3603 74.108 38.1162 72.365 44.0844C72.1713 44.8304 71.8808 45.6697 71.5903 46.4157C68.9759 54.5288 61.6166 59.6577 58.0338 61.7092C57.6465 61.5227 57.2592 61.243 56.8718 60.9632C53.0954 58.5386 46.8981 53.6895 44.5742 46.4157C42.347 39.4218 41.3787 33.7333 40.8945 30.5627C42.6375 30.1897 44.7678 29.4437 45.1551 29.2572C46.8013 28.5112 48.6411 27.4854 50.5777 26.2731C52.7081 24.9676 56.6782 22.6362 58.0338 22.6362C59.3895 22.6362 63.3596 25.0608 65.4899 26.2731C67.4265 27.3921 69.2663 28.5112 70.9125 29.2572C71.3967 29.3504 73.527 30.1897 75.2699 30.5627Z" fill="url(#paint1_linear_99770_12354)"/>
<g clip-path="url(#clip0_99770_12354)">
<path d="M58.4002 43.0855C61.5328 43.1292 64.0994 40.7342 64.145 37.736L64.1515 37.3066C64.1798 35.445 62.6229 33.9083 60.6811 33.8812L56.3985 33.8214C54.4567 33.7943 52.8538 35.2868 52.8255 37.1484L52.819 37.5778C52.7734 40.5763 55.266 43.0417 58.4002 43.0855Z" fill="url(#paint2_linear_99770_12354)"/>
<path d="M49.8055 44.8441C51.3539 44.8657 52.6316 43.6757 52.6542 42.1914C52.6767 40.7071 51.4355 39.4819 49.8874 39.4603C48.3392 39.4387 47.0613 40.6287 47.0387 42.113C47.0162 43.5973 48.2574 44.8225 49.8055 44.8441Z" fill="url(#paint3_linear_99770_12354)"/>
<path d="M54.9098 44.0668C53.3615 44.0451 52.0837 45.2351 52.0612 46.7194C52.0386 48.2037 53.2798 49.4289 54.828 49.4505C56.3762 49.4722 57.6541 48.2822 57.6766 46.7979C57.6992 45.3134 56.458 44.0884 54.9098 44.0668Z" fill="url(#paint4_linear_99770_12354)"/>
<path d="M61.8581 44.1634C60.3099 44.1418 59.032 45.3318 59.0094 46.8161C58.9869 48.3004 60.2281 49.5256 61.7763 49.5472C63.3244 49.5688 64.6023 48.3788 64.6249 46.8945C64.6475 45.4103 63.4064 44.1851 61.8581 44.1634Z" fill="url(#paint5_linear_99770_12354)"/>
<path d="M66.9354 45.0838C68.4836 45.1055 69.7615 43.9155 69.7841 42.4312C69.8066 40.9469 68.5654 39.7217 67.0172 39.7001C65.4691 39.6784 64.1912 40.8684 64.1686 42.3527C64.146 43.837 65.3871 45.0622 66.9354 45.0838Z" fill="url(#paint6_linear_99770_12354)"/>
</g>
<defs>
<filter id="filter0_d_99770_12354" x="26.7838" y="15.1689" width="62.4998" height="66.8489" filterUnits="userSpaceOnUse" color-interpolation-filters="sRGB">
<feFlood flood-opacity="0" result="BackgroundImageFix"/>
<feColorMatrix in="SourceAlpha" type="matrix" values="0 0 0 0 0 0 0 0 0 0 0 0 0 0 0 0 0 0 127 0" result="hardAlpha"/>
<feOffset dy="6.38513"/>
<feGaussianBlur stdDeviation="5.1081"/>
<feColorMatrix type="matrix" values="0 0 0 0 0.66275 0 0 0 0 0.1125 0 0 0 0 1 0 0 0 0.22 0"/>
<feBlend mode="normal" in2="BackgroundImageFix" result="effect1_dropShadow_99770_12354"/>
<feBlend mode="normal" in="SourceGraphic" in2="effect1_dropShadow_99770_12354" result="shape"/>
</filter>
<linearGradient id="paint0_linear_99770_12354" x1="55.7334" y1="33.3795" x2="68.7" y2="52.2696" gradientUnits="userSpaceOnUse">
<stop stop-color="#A981FF"/>
<stop offset="1" stop-color="#7B40E4"/>
</linearGradient>
<linearGradient id="paint1_linear_99770_12354" x1="67.6242" y1="57.2319" x2="54.2522" y2="28.0607" gradientUnits="userSpaceOnUse">
<stop stop-color="#A981FF"/>
<stop offset="1" stop-color="#7B40E4"/>
</linearGradient>
<linearGradient id="paint2_linear_99770_12354" x1="56.3649" y1="37.2731" x2="59.8701" y2="40.9845" gradientUnits="userSpaceOnUse">
<stop offset="0.0113208" stop-color="#C2D1FF"/>
<stop offset="1" stop-color="white"/>
</linearGradient>
<linearGradient id="paint3_linear_99770_12354" x1="48.8045" y1="41.4579" x2="50.8351" y2="43.287" gradientUnits="userSpaceOnUse">
<stop offset="0.0113208" stop-color="#C2D1FF"/>
<stop offset="1" stop-color="white"/>
</linearGradient>
<linearGradient id="paint4_linear_99770_12354" x1="53.8269" y1="46.0644" x2="55.8575" y2="47.8935" gradientUnits="userSpaceOnUse">
<stop offset="0.0113208" stop-color="#C2D1FF"/>
<stop offset="1" stop-color="white"/>
</linearGradient>
<linearGradient id="paint5_linear_99770_12354" x1="60.7752" y1="46.1611" x2="62.8058" y2="47.9902" gradientUnits="userSpaceOnUse">
<stop offset="0.0113208" stop-color="#C2D1FF"/>
<stop offset="1" stop-color="white"/>
</linearGradient>
<linearGradient id="paint6_linear_99770_12354" x1="65.9344" y1="41.6977" x2="67.965" y2="43.5268" gradientUnits="userSpaceOnUse">
<stop offset="0.0113208" stop-color="#C2D1FF"/>
<stop offset="1" stop-color="white"/>
</linearGradient>
<clipPath id="clip0_99770_12354">
<rect width="22.5295" height="22.0368" fill="white" transform="matrix(-0.881721 0.471772 -0.503078 -0.864241 73.8896 45.8726)"/>
</clipPath>
</defs>
</svg>
