<svg width="33" height="33" viewBox="0 0 33 33" fill="none" xmlns="http://www.w3.org/2000/svg">
<path fill-rule="evenodd" clip-rule="evenodd" d="M19.6043 10.0956L18.9718 5.75065C18.8974 5.23988 19.2492 4.78388 19.7655 4.73132C20.2782 4.67913 20.7541 5.05043 20.8285 5.56165L21.1925 8.06237L24.5332 3.78562C24.8443 3.38735 25.43 3.32425 25.8479 3.64971C26.2629 3.97292 26.3505 4.55346 26.036 4.95607L22.6773 9.2558L25.237 8.99525C25.7512 8.94291 26.2276 9.30978 26.3023 9.82261C26.3764 10.3319 26.0201 10.7871 25.5055 10.8395L21.0891 11.2891L12.5654 22.2011L13.2061 26.6022C13.2806 27.1134 12.9251 27.5693 12.4124 27.6215C11.8961 27.674 11.4238 27.3019 11.3494 26.7912L10.9772 24.2344L7.60282 28.5543C7.29173 28.9526 6.70602 29.0157 6.28815 28.6902C5.87317 28.367 5.78558 27.7864 6.10006 27.3838L9.4722 23.0668L6.90336 23.3283C6.38868 23.3807 5.91217 23.0102 5.83803 22.5009C5.76337 21.9881 6.12064 21.5364 6.63486 21.484L11.0604 21.0336L19.6043 10.0956Z" fill="#DADADA"/>
<path fill-rule="evenodd" clip-rule="evenodd" d="M19.5263 22.162L23.5983 23.7926C24.0769 23.9843 24.2965 24.5165 24.0854 24.9887C23.8758 25.4576 23.3183 25.6824 22.8392 25.4906L20.4956 24.5521L22.2003 29.3521C22.3902 29.8203 22.1537 30.3577 21.6647 30.5554C21.179 30.7518 20.6334 30.5366 20.4414 30.0634L18.7258 25.2363L17.6793 27.5771C17.4691 28.0474 16.9151 28.275 16.4345 28.0825C15.9572 27.8914 15.7405 27.3557 15.9509 26.885L17.7565 22.8463L12.5544 10.0192L8.42997 8.36757C7.95087 8.17571 7.73318 7.64039 7.9428 7.17151C8.15387 6.69936 8.71038 6.47791 9.18905 6.66959L11.5852 7.62909L9.85987 2.7784C9.67001 2.31023 9.90645 1.77286 10.3955 1.57509C10.8812 1.37868 11.4268 1.59389 11.6188 2.06715L13.3427 6.91449L14.3929 4.56529C14.6033 4.09462 15.1605 3.86876 15.6377 4.05988C16.1183 4.25233 16.3315 4.78715 16.1213 5.2574L14.312 9.30458L19.5263 22.162Z" fill="#DADADA"/>
<path fill-rule="evenodd" clip-rule="evenodd" d="M8.98532 16.0517L5.53518 18.7577C5.1296 19.0758 4.55822 18.9996 4.25427 18.581C3.95243 18.1653 4.03616 17.5707 4.4421 17.2523L6.4278 15.6949L1.35044 15.2126C0.849474 15.1427 0.501641 14.6695 0.574659 14.1477C0.647172 13.6294 1.10661 13.2652 1.61303 13.3359L6.71932 13.8222L5.21243 11.7469C4.9097 11.33 4.9893 10.7371 5.39651 10.4177C5.80091 10.1006 6.37387 10.181 6.67688 10.5983L9.27684 14.1791L23.0026 16.0941L26.4972 13.3531C26.9031 13.0348 27.4763 13.1142 27.7781 13.5299C28.0821 13.9485 27.9959 14.5405 27.5903 14.8586L25.5601 16.4509L30.6917 16.9408C31.1927 17.0107 31.5405 17.4838 31.4675 18.0057C31.395 18.5239 30.9355 18.8881 30.4291 18.8174L25.3011 18.3281L26.8134 20.4108C27.1164 20.8281 27.0337 21.4229 26.6293 21.74C26.2221 22.0594 25.6517 21.9764 25.3489 21.5594L22.7435 17.9712L8.98532 16.0517Z" fill="#DADADA"/>
</svg>
