<svg width="48" height="48" viewBox="0 0 48 48" fill="none" xmlns="http://www.w3.org/2000/svg">
<path d="M24 48C37.2548 48 48 37.2548 48 24C48 10.7452 37.2548 0 24 0C10.7452 0 0 10.7452 0 24C0 37.2548 10.7452 48 24 48Z" fill="url(#paint0_linear_108_100)"/>
<path d="M8.93819 25.1739C11.7438 23.6285 14.8756 22.3387 17.8018 21.0423C22.836 18.9189 27.8902 16.8323 32.9954 14.8897C33.9887 14.5587 35.7734 14.235 35.9484 15.707C35.8526 17.7906 35.4584 19.862 35.188 21.9334C34.5017 26.4886 33.7085 31.0282 32.935 35.5684C32.6685 37.0807 30.774 37.8636 29.5618 36.8958C26.6486 34.928 23.713 32.9794 20.837 30.966C19.8949 30.0087 20.7685 28.634 21.6099 27.9504C24.0093 25.5858 26.5539 23.5768 28.8279 21.09C29.4413 19.6087 27.6289 20.8571 27.0311 21.2396C23.7463 23.5032 20.5419 25.905 17.0787 27.8944C15.3097 28.8682 13.2479 28.036 11.4797 27.4926C9.89425 26.8362 7.57103 26.1749 8.93803 25.174L8.93819 25.1739Z" fill="white"/>
<defs>
<linearGradient id="paint0_linear_108_100" x1="18.0028" y1="2.0016" x2="6.0028" y2="30" gradientUnits="userSpaceOnUse">
<stop stop-color="#37AEE2"/>
<stop offset="1" stop-color="#1E96C8"/>
</linearGradient>
</defs>
</svg>
