<svg width="55" height="55" viewBox="0 0 55 55" fill="none" xmlns="http://www.w3.org/2000/svg">
<path d="M27.5 55C42.6878 55 55 42.6878 55 27.5C55 12.3122 42.6878 0 27.5 0C12.3122 0 0 12.3122 0 27.5C0 42.6878 12.3122 55 27.5 55Z" fill="#6747ED"/>
<path fill-rule="evenodd" clip-rule="evenodd" d="M27.0986 31.0521C23.0309 31.0521 19.7653 27.7865 19.7653 23.7188C19.7653 19.651 23.0309 16.3854 27.0986 16.3854C31.1663 16.3854 34.432 19.651 34.432 23.7188C34.432 27.7865 31.1663 31.0521 27.0986 31.0521ZM27.0986 12.7188C33.1716 12.7188 38.0986 17.6458 38.0986 23.7188C38.0986 29.7917 33.1716 34.7187 27.0986 34.7187C21.0257 34.7187 16.0986 29.7917 16.0986 23.7188C16.0986 17.6458 21.0257 12.7188 27.0986 12.7188ZM37.583 35.2917C38.3278 36.0365 38.3278 37.1823 37.583 37.8698L30.2497 45.2031C29.5049 45.9479 28.3591 45.9479 27.6716 45.2031C26.9268 44.4583 26.9268 43.3125 27.6716 42.625L35.0049 35.2917C35.6924 34.5469 36.8955 34.5469 37.583 35.2917ZM41.8226 14.5521C41.8226 15.5833 41.0205 16.3854 39.9893 16.3854C38.958 16.3854 38.1559 15.5833 38.1559 14.5521C38.1559 13.5208 38.958 12.7188 39.9893 12.7188C40.9632 12.7188 41.8226 13.5208 41.8226 14.5521Z" fill="white"/>
</svg>
