<svg width="242" height="220" viewBox="0 0 242 220" fill="none" xmlns="http://www.w3.org/2000/svg">
<circle cx="116" cy="110" r="104" fill="#FBFAFF" stroke="#FD892D" stroke-width="12"/>
<mask id="mask0_99770_12151" style="mask-type:alpha" maskUnits="userSpaceOnUse" x="6" y="-1" width="220" height="221">
<circle cx="116" cy="110" r="110" fill="#42325E"/>
</mask>
<g mask="url(#mask0_99770_12151)">
<path d="M118.415 198.502C117.409 197.895 116.201 197.895 115.195 198.502C101.309 207.807 78.769 220.349 91.2464 194.052C103.523 168.362 108.494 142.274 109.5 118C109.5 116.382 114.091 114.5 115.5 114.5L120 115C121.61 115 124.5 116.382 124.5 118C125.506 142.274 129.886 168.565 142.162 194.052C154.841 220.349 132.502 207.807 118.415 198.502Z" fill="#EAEEF9"/>
<path d="M135.721 199.106C132.3 197.488 127.47 194.656 121.231 190.408L116.804 187.373L112.377 190.408C106.138 194.656 101.308 197.488 97.8867 199.106C98.088 198.701 98.2892 198.094 98.4905 197.69C110.767 172 114.993 141.456 116.402 117.789H117.207C118.414 141.253 122.841 172 135.118 197.69C135.319 198.297 135.52 198.701 135.721 199.106Z" fill="#D7E0ED"/>
<path d="M128.678 176.046C128.678 185.957 120.628 194.049 110.767 194.049C105.735 194.049 101.308 192.026 98.0879 188.789C94.868 185.553 92.8555 181.103 92.8555 176.046C92.8555 166.134 100.905 158.042 110.767 158.042C113.584 158.042 115.999 158.649 118.414 159.863C124.451 162.695 128.678 168.966 128.678 176.046Z" fill="#D7E0ED"/>
<path d="M123.646 172.605C123.646 182.517 115.596 190.608 105.735 190.608C102.918 190.608 100.503 190.001 98.0879 188.99C94.868 185.753 92.8555 181.303 92.8555 176.246C92.8555 166.334 100.905 158.243 110.767 158.243C113.584 158.243 115.999 158.85 118.414 160.063C121.634 163.098 123.646 167.548 123.646 172.605Z" fill="#EAEEF9"/>
<path d="M105.935 194.46C105.935 204.371 97.8855 212.463 88.0244 212.463C82.9932 212.463 78.5657 210.44 75.3457 207.203C72.1258 203.967 70.1133 199.517 70.1133 194.46C70.1133 184.548 78.1632 176.457 88.0244 176.457C90.8418 176.457 93.2568 177.063 95.6718 178.277C101.91 181.109 105.935 187.177 105.935 194.46Z" fill="#D7E0ED"/>
<path d="M100.904 190.819C100.904 200.73 92.8543 208.822 82.9932 208.822C80.1757 208.822 77.7607 208.215 75.3457 207.203C72.1258 203.967 70.1133 199.517 70.1133 194.46C70.1133 184.548 78.1632 176.457 88.0244 176.457C90.8418 176.457 93.2568 177.063 95.6718 178.277C98.8917 181.514 100.904 185.964 100.904 190.819Z" fill="#EAEEF9"/>
<path d="M151.418 193.042C151.418 202.953 143.368 211.045 133.507 211.045C128.476 211.045 124.048 209.022 120.828 205.785C117.608 202.549 115.596 198.099 115.596 193.042C115.596 183.13 123.646 175.039 133.507 175.039C136.324 175.039 138.739 175.645 141.154 176.859C147.192 179.489 151.418 185.76 151.418 193.042Z" fill="#D7E0ED"/>
<path d="M146.387 189.401C146.387 199.312 138.337 207.404 128.476 207.404C125.658 207.404 123.243 206.797 120.828 205.785C117.608 202.549 115.596 198.099 115.596 193.042C115.596 183.13 123.646 175.039 133.507 175.039C136.324 175.039 138.739 175.645 141.154 176.859C144.374 179.893 146.387 184.344 146.387 189.401Z" fill="#EAEEF9"/>
<path d="M69.0223 204.003C69.0223 213.915 60.9724 222.006 51.1113 222.006C46.0801 222.006 41.6526 219.983 38.4326 216.747C35.2127 213.51 33.2002 209.06 33.2002 204.003C33.2002 194.091 41.2501 186 51.1113 186C53.9287 186 56.3437 186.607 58.7587 187.821C64.7961 190.652 69.0223 196.923 69.0223 204.003Z" fill="#D7E0ED"/>
<path d="M63.7909 200.362C63.7909 210.274 55.741 218.365 45.8799 218.365C43.0624 218.365 40.6474 217.758 38.2324 216.747C35.0125 213.51 33 209.06 33 204.003C33 194.091 41.0499 186 50.9111 186C53.7285 186 56.1435 186.607 58.5585 187.821C61.9797 191.057 63.7909 195.507 63.7909 200.362Z" fill="#D7E0ED"/>
<path d="M165.912 205.784C165.912 215.696 157.862 223.787 148.001 223.787C142.97 223.787 138.542 221.764 135.322 218.528C132.102 215.291 130.09 210.841 130.09 205.784C130.09 195.872 138.14 187.781 148.001 187.781C150.818 187.781 153.233 188.388 155.648 189.601C161.686 192.433 165.912 198.704 165.912 205.784Z" fill="#D7E0ED"/>
<path d="M160.881 202.343C160.881 212.255 152.831 220.346 142.97 220.346C140.152 220.346 137.737 219.739 135.322 218.728C132.102 215.491 130.09 211.041 130.09 205.984C130.09 196.072 138.14 187.981 148.001 187.981C150.818 187.981 153.233 188.588 155.648 189.801C158.868 192.835 160.881 197.286 160.881 202.343Z" fill="#D7E0ED"/>
<path d="M127.873 197.893C127.873 207.805 119.823 215.896 109.962 215.896C104.931 215.896 100.503 213.873 97.2832 210.637C94.0633 207.4 92.0508 202.95 92.0508 197.893C92.0508 187.981 100.101 179.89 109.962 179.89C112.779 179.89 115.194 180.497 117.609 181.711C123.848 184.543 127.873 190.813 127.873 197.893Z" fill="#D7E0ED"/>
<path d="M122.842 194.252C122.842 204.164 114.792 212.255 104.931 212.255C102.113 212.255 99.6982 211.648 97.2832 210.637C94.0633 207.4 92.0508 202.95 92.0508 197.893C92.0508 187.981 100.101 179.89 109.962 179.89C112.779 179.89 115.194 180.497 117.609 181.711C120.829 184.947 122.842 189.397 122.842 194.252Z" fill="#EAEEF9"/>
<path d="M166.917 197.49C166.917 204.165 161.483 209.425 155.044 209.425C151.824 209.425 148.805 208.009 146.591 205.783C144.377 203.558 143.17 200.524 143.17 197.288C143.17 190.612 148.604 185.353 155.044 185.353C156.855 185.353 158.666 185.758 160.075 186.567C164.1 188.59 166.917 192.635 166.917 197.49Z" fill="#D7E0ED"/>
<path d="M163.496 195.063C163.496 201.738 158.062 206.997 151.622 206.997C149.811 206.997 148 206.593 146.591 205.783C144.377 203.558 143.17 200.524 143.17 197.288C143.17 190.612 148.604 185.353 155.044 185.353C156.855 185.353 158.666 185.758 160.075 186.567C162.087 188.792 163.496 191.826 163.496 195.063Z" fill="#EAEEF9"/>
<path d="M192.878 216.302C192.878 222.978 187.444 228.237 181.004 228.237C177.785 228.237 174.766 226.821 172.552 224.596C170.338 222.371 169.131 219.337 169.131 216.1C169.131 209.425 174.565 204.166 181.004 204.166C182.816 204.166 184.627 204.57 186.036 205.379C190.061 207.402 192.878 211.448 192.878 216.302Z" fill="#D7E0ED"/>
<path d="M189.457 213.875C189.457 220.55 184.023 225.81 177.583 225.81C175.772 225.81 173.961 225.405 172.552 224.596C170.338 222.371 169.131 219.337 169.131 216.1C169.131 209.425 174.565 204.166 181.004 204.166C182.816 204.166 184.627 204.57 186.036 205.379C188.249 207.604 189.457 210.639 189.457 213.875Z" fill="#D7E0ED"/>
<path d="M41.1359 213.068C41.1359 219.743 35.7022 225.003 29.2623 225.003C26.0423 225.003 23.0236 223.587 20.8099 221.362C18.5962 219.136 17.3887 216.102 17.3887 212.866C17.3887 206.19 22.8224 200.931 29.2623 200.931C31.0735 200.931 32.8848 201.336 34.2935 202.145C38.3185 204.168 41.1359 208.416 41.1359 213.068Z" fill="#D7E0ED"/>
<path d="M37.7147 210.841C37.7147 217.516 32.281 222.775 25.8411 222.775C24.0299 222.775 22.2186 222.371 20.8099 221.562C18.5962 219.336 17.3887 216.302 17.3887 213.066C17.3887 206.39 22.8224 201.131 29.2623 201.131C31.0735 201.131 32.8848 201.536 34.2935 202.345C36.306 204.368 37.7147 207.402 37.7147 210.841Z" fill="#EAEEF9"/>
<path d="M42.1437 195.668C42.1437 202.343 36.7101 207.602 30.2701 207.602C27.0501 207.602 24.0314 206.186 21.8177 203.961C19.604 201.736 18.3965 198.702 18.3965 195.465C18.3965 188.79 23.8302 183.531 30.2701 183.531C32.0813 183.531 33.8926 183.935 35.3013 184.744C39.3263 186.767 42.1437 190.813 42.1437 195.668Z" fill="#D7E0ED"/>
<path d="M38.7225 193.24C38.7225 199.916 33.2888 205.175 26.8489 205.175C25.0377 205.175 23.2264 204.77 21.8177 203.961C19.604 201.736 18.3965 198.702 18.3965 195.465C18.3965 188.79 23.8302 183.531 30.2701 183.531C32.0813 183.531 33.8926 183.935 35.3013 184.744C37.3138 186.97 38.7225 190.004 38.7225 193.24Z" fill="#EAEEF9"/>
<path d="M200.747 191.137C200.747 197.812 195.314 203.072 188.874 203.072C185.654 203.072 182.635 201.656 180.421 199.43C178.207 197.205 177 194.171 177 190.935C177 184.259 182.434 179 188.874 179C190.685 179 192.496 179.405 193.905 180.214C198.131 182.237 200.747 186.282 200.747 191.137Z" fill="#D7E0ED"/>
<path d="M197.525 188.71C197.525 195.385 192.092 200.644 185.652 200.644C183.84 200.644 182.029 200.24 180.62 199.431C178.407 197.206 177.199 194.171 177.199 190.935C177.199 184.26 182.633 179 189.073 179C190.884 179 192.695 179.405 194.104 180.214C196.117 182.439 197.525 185.473 197.525 188.71Z" fill="#D7E0ED"/>
<path d="M181.811 209.018C181.811 216.098 175.974 221.964 168.931 221.964C165.308 221.964 162.088 220.548 159.874 218.12C157.661 215.693 156.051 212.659 156.051 209.018C156.051 201.938 161.887 196.072 168.931 196.072C170.943 196.072 172.754 196.476 174.364 197.285C178.993 199.308 181.811 203.758 181.811 209.018Z" fill="#D7E0ED"/>
<path d="M178.188 206.388C178.188 213.468 172.352 219.334 165.308 219.334C163.296 219.334 161.484 218.93 159.874 218.12C157.661 215.693 156.051 212.659 156.051 209.018C156.051 201.938 161.887 196.072 168.931 196.072C170.943 196.072 172.754 196.476 174.364 197.285C176.779 199.713 178.188 202.949 178.188 206.388Z" fill="#D7E0ED"/>
<path d="M220.248 205.178C220.248 212.258 214.412 218.124 207.368 218.124C203.746 218.124 200.526 216.708 198.312 214.281C196.098 211.853 194.488 208.819 194.488 205.178C194.488 198.098 200.324 192.232 207.368 192.232C209.381 192.232 211.192 192.637 212.802 193.446C217.229 195.468 220.248 199.919 220.248 205.178Z" fill="#D7E0ED"/>
<path d="M216.626 202.548C216.626 209.628 210.789 215.494 203.746 215.494C201.733 215.494 199.922 215.09 198.312 214.281C196.098 211.853 194.488 208.819 194.488 205.178C194.488 198.098 200.324 192.232 207.368 192.232C209.381 192.232 211.192 192.637 212.802 193.446C215.217 195.873 216.626 198.907 216.626 202.548Z" fill="#EAEEF9"/>
<path d="M87.2201 205.782C87.2201 213.873 80.5789 220.548 72.529 220.548C68.504 220.548 64.6803 218.93 62.0641 216.098C59.4479 213.468 57.8379 209.827 57.8379 205.782C57.8379 197.69 64.4791 191.015 72.529 191.015C74.7427 191.015 76.9564 191.622 78.7677 192.431C83.7989 194.858 87.2201 199.916 87.2201 205.782Z" fill="#D7E0ED"/>
<path d="M82.9939 202.948C82.9939 211.039 76.3527 217.715 68.3028 217.715C66.0891 217.715 63.8753 217.108 62.0641 216.299C59.4479 213.669 57.8379 210.028 57.8379 205.982C57.8379 197.891 64.4791 191.216 72.529 191.216C74.7427 191.216 76.9564 191.823 78.7677 192.632C81.3839 195.261 82.9939 198.903 82.9939 202.948Z" fill="#EAEEF9"/>
<path d="M68.3054 213.671C68.3054 220.751 62.6705 226.415 55.6268 226.415C52.2056 226.415 48.9856 224.999 46.7719 222.774C44.5581 220.548 43.1494 217.312 43.1494 213.873C43.1494 206.793 48.7844 201.129 55.828 201.129C57.8405 201.129 59.6517 201.534 61.2617 202.343C65.2867 204.164 68.3054 208.614 68.3054 213.671Z" fill="#D7E0ED"/>
<path d="M64.684 211.242C64.684 218.322 59.0491 223.986 52.0054 223.986C49.9929 223.986 48.1817 223.582 46.5717 222.773C44.358 220.547 42.9492 217.311 42.9492 213.872C42.9492 206.792 48.5842 201.128 55.6278 201.128C57.6403 201.128 59.4516 201.533 61.0615 202.342C63.2753 204.567 64.684 207.601 64.684 211.242Z" fill="#D7E0ED"/>
<path d="M49.5876 215.697C49.5876 222.777 43.9527 228.441 36.909 228.441C33.4878 228.441 30.2678 227.025 28.0541 224.8C25.8404 222.575 24.4316 219.338 24.4316 215.9C24.4316 208.82 30.0666 203.156 37.1103 203.156C39.1227 203.156 40.934 203.56 42.544 204.369C46.7702 206.19 49.5876 210.64 49.5876 215.697Z" fill="#D7E0ED"/>
<path d="M46.1664 213.27C46.1664 220.35 40.5315 226.014 33.4878 226.014C31.4753 226.014 29.6641 225.609 28.0541 224.8C25.8404 222.575 24.4316 219.338 24.4316 215.9C24.4316 208.82 30.0666 203.156 37.1103 203.156C39.1227 203.156 40.934 203.56 42.544 204.369C44.7577 206.595 46.1664 209.629 46.1664 213.27Z" fill="#EAEEF9"/>
<path d="M103.32 210.839C103.32 220.75 95.2703 228.842 85.4091 228.842C80.3779 228.842 75.9505 226.819 72.7305 223.582C69.5105 220.346 67.498 215.896 67.498 210.839C67.498 200.927 75.548 192.835 85.4091 192.835C88.2266 192.835 90.6416 193.442 93.0565 194.656C99.094 197.488 103.32 203.556 103.32 210.839Z" fill="#D7E0ED"/>
<path d="M98.289 207.197C98.289 217.109 90.2391 225.201 80.3779 225.201C77.5604 225.201 75.1455 224.594 72.7305 223.582C69.5105 220.346 67.498 215.896 67.498 210.839C67.498 200.927 75.548 192.835 85.4091 192.835C88.2266 192.835 90.6416 193.442 93.0565 194.656C96.2765 197.69 98.289 202.343 98.289 207.197Z" fill="#EAEEF9"/>
<path d="M57.8221 195.003C57.8221 204.915 49.7722 213.006 39.9111 213.006C34.8799 213.006 30.4524 210.983 27.2324 207.747C24.0125 204.51 22 200.06 22 195.003C22 185.091 30.0499 177 39.9111 177C42.7285 177 45.1435 177.607 47.5585 178.821C53.5959 181.652 57.8221 187.923 57.8221 195.003Z" fill="#D7E0ED"/>
<path d="M52.7909 191.562C52.7909 201.474 44.741 209.565 34.8799 209.565C32.0624 209.565 29.6474 208.958 27.2324 207.947C24.0125 204.71 22 200.26 22 195.203C22 185.291 30.0499 177.2 39.9111 177.2C42.7285 177.2 45.1435 177.807 47.5585 179.02C50.7785 182.055 52.7909 186.505 52.7909 191.562Z" fill="#EAEEF9"/>
<path d="M126.266 210.235C126.266 220.147 118.216 228.238 108.354 228.238C103.323 228.238 98.8958 226.215 95.6758 222.979C92.4558 219.742 90.4434 215.292 90.4434 210.235C90.4434 200.323 98.4933 192.232 108.354 192.232C111.172 192.232 113.587 192.839 116.002 194.052C122.039 196.884 126.266 203.155 126.266 210.235Z" fill="#D7E0ED"/>
<path d="M121.234 206.794C121.234 216.706 113.184 224.797 103.323 224.797C100.506 224.797 98.0908 224.19 95.6758 223.179C92.4558 219.942 90.4434 215.492 90.4434 210.435C90.4434 200.523 98.4933 192.432 108.354 192.432C111.172 192.432 113.587 193.039 116.002 194.253C119.222 197.287 121.234 201.737 121.234 206.794Z" fill="#EAEEF9"/>
<path d="M142.164 215.088C142.164 221.965 136.529 227.629 129.686 227.629C126.265 227.629 123.045 226.213 120.831 223.988C118.618 221.763 117.209 218.527 117.209 215.088C117.209 208.21 122.844 202.546 129.686 202.546C131.498 202.546 133.309 202.951 134.919 203.76C139.346 205.783 142.164 210.031 142.164 215.088Z" fill="#D7E0ED"/>
<path d="M138.74 212.661C138.74 219.538 133.106 225.202 126.263 225.202C124.452 225.202 122.641 224.798 121.031 223.988C118.817 221.763 117.408 218.527 117.408 215.088C117.408 208.211 123.043 202.547 129.886 202.547C131.697 202.547 133.508 202.951 135.118 203.76C137.332 205.985 138.74 209.222 138.74 212.661Z" fill="#EAEEF9"/>
<path d="M32.6833 215.897C32.6833 222.775 27.0483 228.439 20.2059 228.439C16.7847 228.439 13.5647 227.023 11.351 224.798C9.13725 222.572 7.72852 219.336 7.72852 215.897C7.72852 209.02 13.3635 203.356 20.2059 203.356C22.0171 203.356 23.8284 203.76 25.4383 204.569C29.8658 206.592 32.6833 210.84 32.6833 215.897Z" fill="#D7E0ED"/>
<path d="M29.261 213.27C29.261 220.147 23.6261 225.811 16.7836 225.811C14.9724 225.811 13.1612 225.407 11.5512 224.598C9.33745 222.373 7.92871 219.136 7.92871 215.697C7.92871 208.82 13.5637 203.156 20.4061 203.156C22.2173 203.156 24.0285 203.56 25.6385 204.369C27.8523 206.797 29.261 209.831 29.261 213.27Z" fill="#EAEEF9"/>
<path d="M168.728 214.683C168.728 221.56 163.093 227.224 156.251 227.224C152.83 227.224 149.61 225.808 147.396 223.583C145.182 221.358 143.773 218.122 143.773 214.683C143.773 207.805 149.408 202.141 156.251 202.141C158.062 202.141 159.873 202.546 161.483 203.355C165.709 205.378 168.728 209.626 168.728 214.683Z" fill="#D7E0ED"/>
<path d="M165.106 212.055C165.106 218.933 159.471 224.596 152.628 224.596C150.817 224.596 149.006 224.192 147.396 223.383C145.182 221.158 143.773 217.921 143.773 214.482C143.773 207.605 149.408 201.941 156.251 201.941C158.062 201.941 159.873 202.345 161.483 203.155C163.898 205.582 165.106 208.616 165.106 212.055Z" fill="#EAEEF9"/>
<path d="M219.443 213.267C219.443 220.144 213.808 225.808 206.966 225.808C203.544 225.808 200.324 224.392 198.111 222.167C195.897 219.942 194.488 216.706 194.488 213.267C194.488 206.389 200.123 200.725 206.966 200.725C208.777 200.725 210.588 201.13 212.198 201.939C216.424 203.76 219.443 208.21 219.443 213.267Z" fill="#D7E0ED"/>
<path d="M215.821 210.639C215.821 217.517 210.186 223.18 203.343 223.18C201.532 223.18 199.721 222.776 198.111 221.967C195.897 219.742 194.488 216.505 194.488 213.066C194.488 206.189 200.123 200.525 206.966 200.525C208.777 200.525 210.588 200.929 212.198 201.739C214.412 204.166 215.821 207.2 215.821 210.639Z" fill="#D7E0ED"/>
<path d="M189.955 198.541C189.955 205.419 184.32 211.083 177.477 211.083C174.056 211.083 170.836 209.667 168.622 207.442C166.409 205.217 165 201.98 165 198.541C165 191.664 170.635 186 177.477 186C179.289 186 181.1 186.405 182.71 187.214C187.137 189.237 189.955 193.484 189.955 198.541Z" fill="#D7E0ED"/>
<path d="M186.532 196.114C186.532 202.992 180.898 208.656 174.055 208.656C172.244 208.656 170.433 208.251 168.823 207.442C166.609 205.217 165.2 201.98 165.2 198.541C165.2 191.664 170.835 186 177.678 186C179.489 186 181.3 186.405 182.91 187.214C185.124 189.439 186.532 192.675 186.532 196.114Z" fill="#EAEEF9"/>
<path d="M213.203 185.555C213.203 192.433 207.568 198.097 200.725 198.097C197.304 198.097 194.084 196.681 191.871 194.456C189.657 192.231 188.248 188.994 188.248 185.555C188.248 178.678 193.883 173.014 200.725 173.014C202.537 173.014 204.348 173.418 205.958 174.228C210.385 176.25 213.203 180.498 213.203 185.555Z" fill="#D7E0ED"/>
<path d="M209.781 182.928C209.781 189.806 204.146 195.47 197.303 195.47C195.492 195.47 193.681 195.065 192.071 194.256C189.857 192.031 188.448 188.794 188.448 185.355C188.448 178.478 194.083 172.814 200.926 172.814C202.737 172.814 204.548 173.219 206.158 174.028C208.372 176.455 209.781 179.489 209.781 182.928Z" fill="#EAEEF9"/>
<path d="M134.315 210.235C134.315 215.089 130.491 218.933 125.661 218.933C123.246 218.933 121.033 217.921 119.624 216.303C118.014 214.685 117.209 212.662 117.209 210.235C117.209 205.38 121.033 201.537 125.863 201.537C127.271 201.537 128.479 201.739 129.485 202.346C132.303 203.762 134.315 206.796 134.315 210.235Z" fill="#D7E0ED"/>
<path d="M131.9 208.414C131.9 213.269 128.076 217.112 123.246 217.112C121.838 217.112 120.63 216.91 119.624 216.303C118.014 214.685 117.209 212.662 117.209 210.235C117.209 205.38 121.033 201.537 125.863 201.537C127.271 201.537 128.479 201.739 129.485 202.346C130.894 203.964 131.9 206.189 131.9 208.414Z" fill="#EAEEF9"/>
<path d="M225.678 198.297C225.678 203.152 221.855 206.995 217.025 206.995C214.61 206.995 212.396 205.984 210.987 204.366C209.377 202.747 208.572 200.725 208.572 198.297C208.572 193.442 212.396 189.599 217.226 189.599C218.635 189.599 219.842 189.801 220.848 190.408C223.666 191.824 225.678 194.858 225.678 198.297Z" fill="#D7E0ED"/>
<path d="M223.263 196.677C223.263 201.532 219.44 205.375 214.61 205.375C213.201 205.375 211.993 205.173 210.987 204.566C209.377 202.948 208.572 200.925 208.572 198.498C208.572 193.643 212.396 189.8 217.226 189.8C218.635 189.8 219.842 190.002 220.848 190.609C222.257 192.025 223.263 194.25 223.263 196.677Z" fill="#EAEEF9"/>
<path d="M75.5475 205.379C75.5475 210.234 71.7238 214.077 66.8938 214.077C64.4788 214.077 62.2651 213.066 60.8564 211.448C59.2464 209.829 58.4414 207.807 58.4414 205.379C58.4414 200.524 62.2651 196.681 67.0951 196.681C68.5038 196.681 69.7113 196.883 70.7175 197.49C73.535 198.906 75.5475 201.738 75.5475 205.379Z" fill="#D7E0ED"/>
<path d="M73.1325 203.559C73.1325 208.413 69.3088 212.257 64.4788 212.257C63.0701 212.257 61.8626 212.055 60.8564 211.448C59.2464 209.829 58.4414 207.807 58.4414 205.379C58.4414 200.524 62.2651 196.681 67.0951 196.681C68.5038 196.681 69.7113 196.883 70.7175 197.49C72.1263 199.109 73.1325 201.131 73.1325 203.559Z" fill="#EAEEF9"/>
<path d="M16.5844 216.709C16.5844 221.564 12.7607 225.407 7.93071 225.407C5.51574 225.407 3.30201 224.396 1.89327 222.778C0.283289 221.16 -0.521702 219.137 -0.521702 216.709C-0.72295 212.057 3.10076 208.011 7.93071 208.011C9.33945 208.011 10.5469 208.214 11.5532 208.82C14.5719 210.236 16.5844 213.271 16.5844 216.709Z" fill="#D7E0ED"/>
<path d="M14.1694 215.091C14.1694 219.946 10.3457 223.789 5.51574 223.789C4.107 223.789 2.89951 223.587 1.89327 222.98C0.283289 221.362 -0.521702 219.339 -0.521702 216.912C-0.72295 212.057 3.10076 208.011 7.93071 208.011C9.33945 208.011 10.5469 208.214 11.5532 208.82C13.1632 210.439 14.1694 212.664 14.1694 215.091Z" fill="#EAEEF9"/>
<path d="M21.817 203.559C21.817 208.414 17.9933 212.257 13.1634 212.257C10.7484 212.257 8.53465 211.246 7.12591 209.627C5.51593 208.009 4.71094 205.986 4.71094 203.559C4.71094 198.704 8.53465 194.861 13.3646 194.861C14.7733 194.861 15.9808 195.063 16.9871 195.67C19.8045 197.086 21.817 200.12 21.817 203.559Z" fill="#D7E0ED"/>
<path d="M19.402 201.938C19.402 206.793 15.5783 210.636 10.7484 210.636C9.33964 210.636 8.13215 210.434 7.12591 209.827C5.51593 208.209 4.71094 206.186 4.71094 203.759C4.71094 198.904 8.53465 195.061 13.3646 195.061C14.7733 195.061 15.9808 195.263 16.9871 195.87C18.3958 197.286 19.402 199.511 19.402 201.938Z" fill="#EAEEF9"/>
<path d="M53.0104 200.323C53.0104 205.177 49.1867 209.021 44.3567 209.021C41.9417 209.021 39.728 208.009 38.3193 206.391C36.7093 204.773 35.9043 202.75 35.9043 200.323C35.9043 195.468 39.728 191.625 44.558 191.625C45.9667 191.625 47.1742 191.827 48.1804 192.434C50.9979 193.85 53.0104 196.884 53.0104 200.323Z" fill="#D7E0ED"/>
<path d="M50.5954 198.702C50.5954 203.557 46.7717 207.4 41.9417 207.4C40.533 207.4 39.3255 207.198 38.3193 206.591C36.7093 204.973 35.9043 202.95 35.9043 200.523C35.9043 195.668 39.728 191.824 44.558 191.824C45.9667 191.824 47.1742 192.027 48.1804 192.634C49.5892 194.05 50.5954 196.275 50.5954 198.702Z" fill="#EAEEF9"/>
<path d="M177.18 184.748C177.18 186.771 175.57 188.389 173.558 188.389C172.552 188.389 171.546 187.985 170.942 187.378C170.338 186.771 169.936 185.759 169.936 184.748C169.936 182.725 171.546 181.107 173.558 181.107C174.162 181.107 174.564 181.309 175.168 181.512C176.375 182.118 177.18 183.332 177.18 184.748Z" fill="#D7E0ED"/>
<path d="M176.174 184.141C176.174 186.164 174.564 187.782 172.552 187.782C171.948 187.782 171.546 187.58 170.942 187.378C170.338 186.771 169.936 185.759 169.936 184.748C169.936 182.725 171.546 181.107 173.558 181.107C174.162 181.107 174.564 181.309 175.168 181.512C175.772 182.118 176.174 183.13 176.174 184.141Z" fill="#EAEEF9"/>
<path d="M229.507 219.336C229.507 221.359 227.897 222.977 225.884 222.977C224.878 222.977 223.872 222.572 223.268 221.966C222.664 221.359 222.262 220.347 222.262 219.336C222.262 217.313 223.872 215.695 225.884 215.695C226.488 215.695 226.89 215.897 227.494 216.099C228.702 216.706 229.507 217.92 229.507 219.336Z" fill="#D7E0ED"/>
<path d="M228.5 218.729C228.5 220.752 226.89 222.37 224.878 222.37C224.274 222.37 223.872 222.168 223.268 221.966C222.664 221.359 222.262 220.347 222.262 219.336C222.262 217.313 223.872 215.695 225.884 215.695C226.488 215.695 226.89 215.897 227.494 216.099C228.098 216.706 228.5 217.718 228.5 218.729Z" fill="#EAEEF9"/>
<path d="M141.159 187.172C141.159 189.195 139.549 190.813 137.537 190.813C136.53 190.813 135.524 190.408 134.92 189.801C134.317 189.195 133.914 188.183 133.914 187.172C133.914 185.149 135.524 183.531 137.537 183.531C138.14 183.531 138.543 183.733 139.147 183.935C140.354 184.542 141.159 185.756 141.159 187.172Z" fill="#D7E0ED"/>
<path d="M140.153 186.565C140.153 188.588 138.543 190.206 136.53 190.206C135.927 190.206 135.524 190.004 134.92 189.801C134.317 189.195 133.914 188.183 133.914 187.172C133.914 185.149 135.524 183.531 137.537 183.531C138.14 183.531 138.543 183.733 139.147 183.935C139.75 184.542 140.153 185.554 140.153 186.565Z" fill="#EAEEF9"/>
<path d="M59.45 210.84C59.45 212.863 57.84 214.481 55.8275 214.481C54.8213 214.481 53.8151 214.076 53.2113 213.469C52.6076 212.863 52.2051 211.851 52.2051 210.84C52.2051 208.817 53.8151 207.199 55.8275 207.199C56.4313 207.199 56.8338 207.401 57.4375 207.603C58.4438 208.21 59.45 209.424 59.45 210.84Z" fill="#D7E0ED"/>
<path d="M58.4438 210.233C58.4438 212.256 56.8338 213.874 54.8213 213.874C54.2176 213.874 53.8151 213.672 53.2113 213.469C52.6076 212.863 52.2051 211.851 52.2051 210.84C52.2051 208.817 53.8151 207.199 55.8275 207.199C56.4313 207.199 56.8338 207.401 57.4375 207.603C58.0413 208.21 58.4438 209.222 58.4438 210.233Z" fill="#EAEEF9"/>
<path d="M70.9188 179.887C70.9188 181.91 69.3088 183.528 67.2963 183.528C66.2901 183.528 65.2838 183.124 64.6801 182.517C64.0763 181.91 63.6738 180.899 63.6738 179.887C63.6738 177.865 65.2838 176.246 67.2963 176.246C67.9 176.246 68.3025 176.449 68.9063 176.651C70.1138 177.055 70.9188 178.471 70.9188 179.887Z" fill="#D7E0ED"/>
<path d="M69.9125 179.081C69.9125 181.103 68.3025 182.722 66.2901 182.722C65.6863 182.722 65.2838 182.519 64.6801 182.317C64.0763 181.71 63.6738 180.699 63.6738 179.687C63.6738 177.665 65.2838 176.046 67.2963 176.046C67.9 176.046 68.3025 176.249 68.9063 176.451C69.51 177.26 69.9125 178.069 69.9125 179.081Z" fill="#EAEEF9"/>
<path d="M184.423 173.011C184.423 174.023 183.618 174.63 182.813 174.63C182.411 174.63 182.008 174.427 181.606 174.225C181.404 174.023 181.203 173.416 181.203 173.011C181.203 172 182.008 171.393 182.813 171.393C183.014 171.393 183.216 171.393 183.618 171.595C184.021 171.798 184.423 172.404 184.423 173.011Z" fill="#D7E0ED"/>
<path d="M184.021 172.609C184.021 173.62 183.216 174.227 182.411 174.227C182.209 174.227 182.008 174.227 181.606 174.025C181.404 173.823 181.203 173.216 181.203 172.811C181.203 171.8 182.008 171.193 182.813 171.193C183.014 171.193 183.216 171.193 183.618 171.395C183.819 171.8 184.021 172.204 184.021 172.609Z" fill="#EAEEF9"/>
<path d="M229.101 181.508C229.101 182.52 228.296 183.127 227.491 183.127C227.088 183.127 226.686 182.924 226.283 182.722C226.082 182.52 225.881 181.913 225.881 181.508C225.881 180.497 226.686 179.89 227.491 179.89C227.692 179.89 227.893 179.89 228.296 180.092C228.698 180.295 229.101 180.902 229.101 181.508Z" fill="#D7E0ED"/>
<path d="M228.698 181.306C228.698 182.318 227.893 182.924 227.088 182.924C226.887 182.924 226.686 182.924 226.283 182.722C226.082 182.52 225.881 181.913 225.881 181.508C225.881 180.497 226.686 179.89 227.491 179.89C227.692 179.89 227.893 179.89 228.296 180.092C228.497 180.295 228.698 180.699 228.698 181.306Z" fill="#EAEEF9"/>
<path d="M39.929 197.691C39.929 198.702 39.124 199.309 38.319 199.309C37.9165 199.309 37.514 199.107 37.1115 198.904C36.9102 198.702 36.709 198.095 36.709 197.691C36.709 196.679 37.514 196.073 38.319 196.073C38.5202 196.073 38.7215 196.073 39.124 196.275C39.5265 196.275 39.929 196.882 39.929 197.691Z" fill="#D7E0ED"/>
<path d="M39.5265 197.289C39.5265 198.3 38.7215 198.907 37.9165 198.907C37.7152 198.907 37.514 198.907 37.1115 198.705C36.9102 198.502 36.709 197.895 36.709 197.491C36.709 196.479 37.514 195.873 38.319 195.873C38.5202 195.873 38.7215 195.873 39.124 196.075C39.3252 196.479 39.5265 196.884 39.5265 197.289Z" fill="#EAEEF9"/>
<path d="M194.288 195.671C194.288 196.682 193.483 197.289 192.678 197.289C192.276 197.289 191.873 197.086 191.471 196.884C191.27 196.682 191.068 196.075 191.068 195.671C191.068 194.659 191.873 194.052 192.678 194.052C192.88 194.052 193.081 194.052 193.483 194.255C193.886 194.457 194.288 195.064 194.288 195.671Z" fill="#D7E0ED"/>
<path d="M193.886 195.468C193.886 196.48 193.081 197.086 192.276 197.086C192.075 197.086 191.873 197.086 191.471 196.884C191.27 196.682 191.068 196.075 191.068 195.671C191.068 194.659 191.873 194.052 192.678 194.052C192.88 194.052 193.081 194.052 193.483 194.255C193.685 194.659 193.886 195.064 193.886 195.468Z" fill="#EAEEF9"/>
<path d="M42.546 171.8C42.546 172.609 41.9422 173.216 41.1373 173.216C40.7348 173.216 40.3323 173.014 40.131 172.812C39.9298 172.609 39.7285 172.205 39.7285 171.8C39.7285 170.991 40.3323 170.384 41.1373 170.384C41.3385 170.384 41.5397 170.384 41.741 170.587C42.1435 170.789 42.546 171.193 42.546 171.8Z" fill="#D7E0ED"/>
<path d="M42.1435 171.598C42.1435 172.407 41.5397 173.014 40.7348 173.014C40.5335 173.014 40.3323 173.014 40.131 172.812C39.9298 172.609 39.7285 172.205 39.7285 171.8C39.7285 170.991 40.3323 170.384 41.1373 170.384C41.3385 170.384 41.5397 170.384 41.741 170.587C41.9422 170.789 42.1435 171.193 42.1435 171.598Z" fill="#EAEEF9"/>
<path d="M210.185 210.839C210.185 220.75 202.135 228.842 192.274 228.842C187.243 228.842 182.816 226.819 179.596 223.582C176.376 220.346 174.363 215.896 174.363 210.839C174.363 200.927 182.413 192.835 192.274 192.835C195.092 192.835 197.507 193.442 199.922 194.656C205.959 197.286 210.185 203.556 210.185 210.839Z" fill="#D7E0ED"/>
<path d="M205.154 207.197C205.154 217.109 197.104 225.201 187.243 225.201C184.426 225.201 182.011 224.594 179.596 223.582C176.376 220.346 174.363 215.896 174.363 210.839C174.363 200.927 182.413 192.835 192.274 192.835C195.092 192.835 197.507 193.442 199.922 194.656C203.142 197.69 205.154 202.14 205.154 207.197Z" fill="#EAEEF9"/>
</g>
<path d="M7.89489 118.182C10.5374 117.318 11.9833 114.465 11.1244 111.809C10.2656 109.153 7.42716 107.7 4.78466 108.563C2.14217 109.426 0.696248 112.279 1.55511 114.935C2.41398 117.592 5.25239 119.045 7.89489 118.182Z" fill="#EAEEF9"/>
<path d="M17.1054 66.8145C18.4795 66.3656 19.2314 64.8821 18.7848 63.5009C18.3381 62.1197 16.8621 61.364 15.488 61.8129C14.1139 62.2618 13.3621 63.7454 13.8087 65.1265C14.2553 66.5077 15.7313 67.2634 17.1054 66.8145Z" fill="#EAEEF9"/>
<path d="M7.9321 167.679C8.59898 167.679 9.13958 167.135 9.13958 166.465C9.13958 165.795 8.59898 165.251 7.9321 165.251C7.26522 165.251 6.72461 165.795 6.72461 166.465C6.72461 167.135 7.26522 167.679 7.9321 167.679Z" fill="#F39C57"/>
<path d="M228.296 154.125C229.185 154.125 229.906 153.4 229.906 152.506C229.906 151.613 229.185 150.888 228.296 150.888C227.406 150.888 226.686 151.613 226.686 152.506C226.686 153.4 227.406 154.125 228.296 154.125Z" fill="url(#paint0_linear_99770_12151)"/>
<path d="M227.963 130.534C231.081 127.67 231.299 122.808 228.45 119.674C225.6 116.54 220.763 116.322 217.645 119.185C214.527 122.049 214.31 126.911 217.159 130.045C220.008 133.179 224.845 133.398 227.963 130.534Z" fill="#EAEEF9"/>
<path d="M227.721 80.9617C229.034 79.7559 229.126 77.7087 227.926 76.3892C226.726 75.0697 224.69 74.9775 223.377 76.1833C222.064 77.3892 221.973 79.4364 223.172 80.7559C224.372 82.0754 226.409 82.1676 227.721 80.9617Z" fill="#EAEEF9"/>
<path d="M97.74 48.4014C95.125 60.3755 92.51 74.3939 75.6575 89.8726C73.6236 91.6249 72.752 94.2534 72.752 96.5898V104.183H106.457L105.295 41.1001L97.74 48.4014Z" fill="#EAEEF9"/>
<path d="M136.674 48.4019C139.289 60.376 141.904 74.3944 158.756 89.8731C160.79 91.6254 161.662 94.2539 161.662 96.5903V104.184H127.957L129.119 41.1006L136.674 48.4019Z" fill="#EAEEF9"/>
<path d="M137.229 41.1376C137.229 61.5586 137.229 104.472 137.229 104.472H97.1846C97.1846 104.472 97.1846 61.5586 97.1846 41.1376C97.1846 20.7165 106.018 10.9499 117.207 -0.000488281C121.918 4.73483 126.04 9.17419 129.574 14.2055C134.285 21.0125 137.229 29.0033 137.229 41.1376Z" fill="url(#paint1_linear_99770_12151)"/>
<path d="M117.21 42.2702C120.74 42.2702 123.602 39.3935 123.602 35.845C123.602 32.2965 120.74 29.4199 117.21 29.4199C113.679 29.4199 110.817 32.2965 110.817 35.845C110.817 39.3935 113.679 42.2702 117.21 42.2702Z" fill="white" stroke="url(#paint2_linear_99770_12151)" stroke-width="6.03394" stroke-miterlimit="10"/>
<path d="M102.969 111.776H91.9274C91.0557 111.776 90.4746 111.192 90.4746 110.316V87.5361C90.4746 83.7394 93.6707 80.5269 97.448 80.5269C101.225 80.5269 104.421 83.7394 104.421 87.5361V110.316C104.712 110.9 103.84 111.776 102.969 111.776Z" fill="url(#paint3_linear_99770_12151)"/>
<path d="M142.196 111.776H131.155C130.283 111.776 129.702 111.192 129.702 110.316V87.5361C129.702 83.7394 132.898 80.5269 136.676 80.5269C140.453 80.5269 143.649 83.7394 143.649 87.5361V110.316C143.649 110.9 143.068 111.776 142.196 111.776Z" fill="url(#paint4_linear_99770_12151)"/>
<path d="M124.762 119.998C124.762 124.379 116.917 134.893 116.917 134.893C116.917 134.893 109.072 124.379 109.072 119.998C109.072 115.617 112.559 112.113 116.917 112.113C121.276 112.113 124.762 115.617 124.762 119.998Z" fill="#F39C57"/>
<path d="M141.617 118.492C141.617 121.12 136.968 126.961 136.968 126.961C136.968 126.961 132.319 120.828 132.319 118.492C132.319 116.155 134.353 113.819 136.968 113.819C139.583 114.111 141.617 116.155 141.617 118.492Z" fill="#F39C57"/>
<path d="M101.809 118.492C101.809 121.12 97.1597 126.961 97.1597 126.961C97.1597 126.961 92.5107 120.828 92.5107 118.492C92.5107 116.155 94.5446 113.819 97.1597 113.819C99.7747 114.111 101.809 116.155 101.809 118.492Z" fill="#F39C57"/>
<path d="M118.663 47.2339C118.663 46.6498 118.082 46.0657 117.501 46.0657C116.92 46.0657 116.339 46.6498 116.339 47.2339V104.768H118.663V47.2339Z" fill="#EAEEF9"/>
<path d="M108.553 187.903C111.554 187.903 113.987 185.458 113.987 182.442C113.987 179.425 111.554 176.98 108.553 176.98C105.552 176.98 103.119 179.425 103.119 182.442C103.119 185.458 105.552 187.903 108.553 187.903Z" fill="#F4F7FC"/>
<path d="M45.9669 182.442C48.9678 182.442 51.4006 179.997 51.4006 176.981C51.4006 173.964 48.9678 171.519 45.9669 171.519C42.966 171.519 40.5332 173.964 40.5332 176.981C40.5332 179.997 42.966 182.442 45.9669 182.442Z" fill="#F4F7FC"/>
<path d="M23.8237 187.687C25.9355 187.687 27.6474 185.966 27.6474 183.843C27.6474 181.721 25.9355 180 23.8237 180C21.7119 180 20 181.721 20 183.843C20 185.966 21.7119 187.687 23.8237 187.687Z" fill="#F4F7FC"/>
<path d="M35.0965 185.883C36.2079 185.883 37.1089 184.977 37.1089 183.86C37.1089 182.743 36.2079 181.837 35.0965 181.837C33.985 181.837 33.084 182.743 33.084 183.86C33.084 184.977 33.985 185.883 35.0965 185.883Z" fill="url(#paint5_linear_99770_12151)"/>
<path d="M239.565 175.365C240.565 175.365 241.376 174.55 241.376 173.545C241.376 172.539 240.565 171.724 239.565 171.724C238.565 171.724 237.754 172.539 237.754 173.545C237.754 174.55 238.565 175.365 239.565 175.365Z" fill="#F39C57"/>
<path d="M190.46 196.199C191.238 196.199 191.868 195.565 191.868 194.783C191.868 194.001 191.238 193.367 190.46 193.367C189.682 193.367 189.051 194.001 189.051 194.783C189.051 195.565 189.682 196.199 190.46 196.199Z" fill="url(#paint6_linear_99770_12151)"/>
<defs>
<linearGradient id="paint0_linear_99770_12151" x1="229.701" y1="153.373" x2="227.052" y2="151.653" gradientUnits="userSpaceOnUse">
<stop stop-color="#83A6FF"/>
<stop offset="1" stop-color="#5A78FF"/>
</linearGradient>
<linearGradient id="paint1_linear_99770_12151" x1="124.711" y1="65.423" x2="101.232" y2="57.8772" gradientUnits="userSpaceOnUse">
<stop offset="0.0113208" stop-color="#C2D1FF"/>
<stop offset="1" stop-color="white"/>
</linearGradient>
<linearGradient id="paint2_linear_99770_12151" x1="116.511" y1="33.4008" x2="119.969" y2="38.9319" gradientUnits="userSpaceOnUse">
<stop stop-color="#FD892D"/>
<stop offset="1" stop-color="#E76C0C"/>
</linearGradient>
<linearGradient id="paint3_linear_99770_12151" x1="100.101" y1="100.096" x2="92.1628" y2="97.1134" gradientUnits="userSpaceOnUse">
<stop offset="0.0113208" stop-color="#C2D1FF"/>
<stop offset="1" stop-color="white"/>
</linearGradient>
<linearGradient id="paint4_linear_99770_12151" x1="139.289" y1="100.096" x2="131.376" y2="97.1346" gradientUnits="userSpaceOnUse">
<stop offset="0.0113208" stop-color="#C2D1FF"/>
<stop offset="1" stop-color="white"/>
</linearGradient>
<linearGradient id="paint5_linear_99770_12151" x1="32.9711" y1="183.804" x2="37.152" y2="183.804" gradientUnits="userSpaceOnUse">
<stop stop-color="#83A6FF"/>
<stop offset="1" stop-color="#5A78FF"/>
</linearGradient>
<linearGradient id="paint6_linear_99770_12151" x1="189.109" y1="194.708" x2="191.768" y2="194.708" gradientUnits="userSpaceOnUse">
<stop stop-color="#83A6FF"/>
<stop offset="1" stop-color="#5A78FF"/>
</linearGradient>
</defs>
</svg>
