<svg width="36" height="50" viewBox="0 0 36 50" fill="none" xmlns="http://www.w3.org/2000/svg">
<path d="M17.5536 0C10.5674 0 4.91361 5.55171 4.91361 12.4117V17.0635C2.46033 17.4997 0 18.0811 0 18.8357V43.1123C0 43.1123 0 43.7837 0.768413 44.1022C3.55303 45.2098 14.5082 49.017 17.0249 49.8892C17.3492 50.0069 17.4409 50.0069 17.5255 50.0069C17.6453 50.0069 17.7017 50.0069 18.026 49.8892C20.5427 49.017 31.5261 45.2098 34.3107 44.1022C35.0227 43.8114 35.0509 43.14 35.0509 43.14V18.8357C35.0509 18.0811 32.6258 17.472 30.1655 17.0635V12.4117C30.2007 5.55171 24.5117 0 17.5536 0ZM17.5536 5.93244C21.6707 5.93244 24.1592 8.37602 24.1592 12.4187V16.4613C19.5417 16.1429 15.6009 16.1429 10.9552 16.4613V12.4187C10.9552 8.3691 13.4437 5.93244 17.5536 5.93244ZM17.5255 22.4145C23.2709 22.4145 28.0929 22.8506 28.0929 23.6328V38.7789C28.0929 39.0143 28.0647 39.042 27.8532 39.125C27.6488 39.215 18.0542 42.6139 18.0542 42.6139C18.0542 42.6139 17.6664 42.7316 17.5536 42.7316C17.4338 42.7316 17.0531 42.5862 17.0531 42.5862C17.0531 42.5862 7.45854 39.1873 7.2541 39.0973C7.04966 39.0073 7.01441 38.9797 7.01441 38.7512V23.6052C6.95801 22.8229 11.78 22.4145 17.5255 22.4145Z" fill="white"/>
</svg>
