<svg width="58" height="50" viewBox="0 0 58 50" fill="none" xmlns="http://www.w3.org/2000/svg">
<g clip-path="url(#clip0_99770_12615)">
<path fill-rule="evenodd" clip-rule="evenodd" d="M10.6209 0.245571L0.0454311 22.2593C0.00518854 22.3412 -0.00756408 22.4337 0.00903821 22.5233C0.0256405 22.6128 0.0707267 22.6948 0.137703 22.7572L28.6994 49.8798C28.7805 49.9569 28.8886 50 29.001 50C29.1134 50 29.2215 49.9569 29.3026 49.8798L57.8643 22.7589C57.9313 22.6965 57.9764 22.6145 57.993 22.525C58.0096 22.4354 57.9968 22.3429 57.9566 22.261L47.3811 0.247264C47.347 0.173333 47.2921 0.110703 47.223 0.0668612C47.1539 0.023019 47.0736 -0.000181357 46.9915 3.27706e-05H11.0139C10.9314 -0.000983524 10.8505 0.021658 10.7807 0.0652261C10.711 0.108794 10.6555 0.171428 10.6209 0.245571V0.245571V0.245571Z" fill="#50AF95"/>
<path fill-rule="evenodd" clip-rule="evenodd" d="M32.6698 24.52C32.4648 24.5353 31.4054 24.5979 29.0422 24.5979C27.1625 24.5979 25.828 24.542 25.3598 24.52C18.0959 24.2034 12.6741 22.9503 12.6741 21.4499C12.6741 19.9496 18.0959 18.6982 25.3598 18.3765V23.272C25.8348 23.3059 27.195 23.3855 29.0746 23.3855C31.3302 23.3855 32.4597 23.2923 32.663 23.2737V18.3799C39.9115 18.6999 45.3214 19.953 45.3214 21.4499C45.3214 22.9469 39.9132 24.2 32.663 24.5183L32.6698 24.52ZM32.6698 17.8736V13.4928H42.7856V6.8125H15.244V13.4928H25.3581V17.8719C17.1373 18.2461 10.9551 19.8599 10.9551 21.7937C10.9551 23.7275 17.1373 25.3396 25.3581 25.7155V39.7535H32.6681V25.7105C40.8701 25.3362 47.0421 23.7241 47.0421 21.792C47.0421 19.8599 40.8752 18.2478 32.6681 17.8719L32.6698 17.8736Z" fill="white"/>
</g>
<defs>
<clipPath id="clip0_99770_12615">
<rect width="58" height="50" fill="white"/>
</clipPath>
</defs>
</svg>
