<svg width="37" height="546" viewBox="0 0 37 546" fill="none" xmlns="http://www.w3.org/2000/svg">
<g filter="url(#filter0_d_101913_8321)">
<path d="M-27.5916 3.60034C-29.5406 5.80483 -23.1334 9.12764 -19.6862 10.5135C1.75846 13.7569 -11.7762 34.6907 -16.0408 39.4157C-32.4929 57.3996 -18.9126 73.9789 -13.4482 83.2583C-7.98384 92.5377 -7.62774 104.865 -13.097 112.071C-26.1203 124.302 -18.7849 135.116 -14.8148 140C-3.10237 155.304 -9.97273 182.647 -12.2032 185.4C-18.6334 198.199 -24.6869 225.013 -15.9331 233.993C-7.17921 242.973 -8.63883 258.307 -11.2223 265.868C-13.8058 273.428 -13.1283 278.352 -11.0309 281.572C-2.00166 296.26 -6.20943 322.532 -10.4503 329.203C-25.8197 351.587 -15.8374 360.033 -7.60444 376.937C0.628543 393.841 -6.40331 424.821 -9.18151 433.292C-11.9597 441.763 -14.6272 459.319 -14.5766 463.473C-14.5259 467.626 -11.0182 485.237 -14.1858 495.53C-16.7199 503.764 -15.056 514.189 -13.9074 518.372C-12.3049 520.386 -8.87637 525.866 -7.98234 531.67C-6.8648 538.925 -0.482206 539.107 2.5714 536.344C17.8492 519.958 15.2745 509.103 12.0775 505.724C7.02252 496.266 1.3479 473.118 19.0889 456.182C36.8298 439.247 32.5493 417.899 28.1914 409.342C25.6154 406.258 21.9479 396.93 27.8861 384.293C35.3088 368.496 19.9808 360.505 14.9628 354.076C9.94477 347.647 12.9034 337.096 14.6938 332.012C20.6666 315.454 17.1081 310.565 14.1749 289.442C11.2418 268.32 12.9927 259.991 16.4009 252.55C36.9975 203.103 15.344 182.728 12.2271 180.3C9.1102 177.871 0.763192 168.497 8.07665 160.62C15.3901 152.742 14.8963 145.998 9.4192 135.681C3.94214 125.363 10.4673 120.351 14.553 117.835C29.7421 107.68 24.5914 91.4916 20.1174 84.6665C6.80628 56.4013 -1.13244 63.6374 4.94957 39.1598C9.16841 13.7963 2.6814 5.04861 -8.88071 2.07421C-20.4428 -0.900185 -25.1554 0.844731 -27.5916 3.60034Z" fill="#FFFEFD"/>
</g>
<defs>
<filter id="filter0_d_101913_8321" x="-31.9531" y="0.522949" width="67.9824" height="545.47" filterUnits="userSpaceOnUse" color-interpolation-filters="sRGB">
<feFlood flood-opacity="0" result="BackgroundImageFix"/>
<feColorMatrix in="SourceAlpha" type="matrix" values="0 0 0 0 0 0 0 0 0 0 0 0 0 0 0 0 0 0 127 0" result="hardAlpha"/>
<feOffset dy="4"/>
<feGaussianBlur stdDeviation="2"/>
<feComposite in2="hardAlpha" operator="out"/>
<feColorMatrix type="matrix" values="0 0 0 0 0 0 0 0 0 0 0 0 0 0 0 0 0 0 0.15 0"/>
<feBlend mode="normal" in2="BackgroundImageFix" result="effect1_dropShadow_101913_8321"/>
<feBlend mode="normal" in="SourceGraphic" in2="effect1_dropShadow_101913_8321" result="shape"/>
</filter>
</defs>
</svg>
