<svg width="48" height="48" viewBox="0 0 48 48" fill="none" xmlns="http://www.w3.org/2000/svg">
<path d="M24 48C37.2548 48 48 37.2548 48 24C48 10.7452 37.2548 0 24 0C10.7452 0 0 10.7452 0 24C0 37.2548 10.7452 48 24 48Z" fill="white"/>
<path d="M23.5566 37.3347L23.4511 37.33V37.3384C23.4511 37.3384 23.4864 37.3379 23.5566 37.3347Z" fill="white"/>
<path d="M16.021 34.0517C16.021 34.0517 15.0604 35.6616 14.4318 37.2424C14.5115 37.2899 14.5901 37.3369 14.673 37.3833C17.3463 38.907 20.3647 39.7221 23.4417 39.7511C26.5186 39.7801 29.5519 39.0221 32.2534 37.549C32.3829 37.4787 32.5112 37.4062 32.6382 37.3316C32.5004 36.9764 32.3437 36.618 32.1837 36.276C32.1621 36.2295 32.1399 36.1831 32.1183 36.1371C32.0222 35.935 31.9256 35.7392 31.8317 35.5534L31.7932 35.4779C31.6401 35.1776 31.4955 34.9073 31.3709 34.6862C31.3609 34.6677 31.3509 34.6492 31.3408 34.6334C31.1439 34.2761 31.0125 34.056 31.0125 34.056C31.0125 34.056 30.4847 32.0503 32.7015 32.1558C32.9931 32.1751 33.2797 32.2405 33.5508 32.3495C32.6123 31.6386 31.658 31.0247 30.9597 30.8363C29.1652 30.3518 24.2987 31.5853 23.5176 31.7901C22.7322 31.5847 17.8668 30.3518 16.0754 30.8363C15.3771 31.0247 14.4228 31.6386 13.4843 32.3495C13.7547 32.2392 14.0408 32.1724 14.332 32.1516C16.5488 32.046 16.021 34.0517 16.021 34.0517Z" fill="#DDE6F0"/>
<path d="M31.0138 34.0513C31.0138 34.0513 31.1452 34.2714 31.3421 34.6287C31.3521 34.6461 31.3622 34.6646 31.3722 34.6815C31.4947 34.9042 31.6393 35.1744 31.7945 35.4732L31.833 35.5487C31.8791 35.6395 31.9254 35.7322 31.9718 35.8268C32.0209 35.9266 32.0705 36.029 32.1196 36.1324C32.1412 36.1783 32.1634 36.2248 32.185 36.2712C32.2568 36.4254 32.3281 36.5827 32.3962 36.7415C32.4173 36.7901 32.4384 36.8386 32.459 36.8877C32.4796 36.9368 32.4964 36.9754 32.5144 37.0197C32.557 37.1228 32.5983 37.2255 32.6384 37.3279C32.6427 37.339 32.6474 37.3501 32.6511 37.3612C32.6828 37.4404 32.7123 37.5195 32.7408 37.5982C32.7509 37.6256 32.7609 37.651 32.7704 37.6805C32.7904 37.7358 32.8094 37.7906 32.8274 37.8452L33.1969 37.576C33.1676 37.5091 33.1322 37.4449 33.0913 37.3844C33.0461 37.3174 32.9971 37.2531 32.9446 37.1918C34.0382 36.5362 35.0592 35.7666 35.9906 34.8958L36.0824 34.8087L36.2566 34.6414L36.2598 34.6382L36.2233 34.6049C35.9827 34.3833 35.6866 34.1151 35.3551 33.8253C34.8183 33.3566 34.1891 32.8299 33.5521 32.3475C33.2812 32.2375 32.9945 32.1713 32.7028 32.1511C30.486 32.0456 31.0138 34.0513 31.0138 34.0513Z" fill="#4D4D55"/>
<path d="M10.9078 34.5134C10.9796 34.5857 11.0524 34.6564 11.1253 34.7245C12.127 35.6874 13.2364 36.5315 14.4315 37.2401C15.0601 35.6566 16.0208 34.0494 16.0208 34.0494C16.0208 34.0494 16.5486 32.0437 14.3318 32.1493C14.0402 32.1686 13.7536 32.234 13.4825 32.343C12.5034 33.0862 11.5423 33.9333 10.9078 34.5134Z" fill="#4D4D55"/>
<path d="M27.5949 39.3103C27.5947 39.3154 27.5947 39.3205 27.5949 39.3256C27.6058 39.5076 27.6446 39.6869 27.71 39.8571C28.5408 41.0183 29.7547 39.9626 29.7547 39.9626C29.7547 39.9626 31.6021 40.6488 32.0243 39.0126C32.0243 39.0126 33.6447 39.0126 33.2383 37.6867C33.2272 37.6508 33.214 37.6155 33.1987 37.5811C33.1694 37.5142 33.1341 37.4501 33.0932 37.3895C33.048 37.3208 32.9988 37.2547 32.9459 37.1916C32.7926 37.0088 32.6062 36.8566 32.3964 36.743C31.2226 36.1096 29.6434 36.8385 29.5758 36.8422C29.4998 36.8485 27.5305 37.8229 27.5949 39.3103Z" fill="#4D4D55"/>
<path d="M14.9897 39.0132C14.9897 39.0132 13.3693 39.0132 13.7758 37.6873C13.8089 37.581 13.8577 37.4801 13.9204 37.3881C15.0204 35.7518 17.3565 36.8402 17.4388 36.8444C17.5211 36.8486 19.976 38.0679 19.3041 39.8577C18.4733 41.0189 17.2593 39.9633 17.2593 39.9633C17.2593 39.9633 15.412 40.6494 14.9897 39.0132Z" fill="#4D4D55"/>
<path d="M32.0963 35.8407L32.0963 35.8407L32.0946 35.8413C27.9187 37.3213 21.5185 38.4332 15.2709 35.8405C11.5882 34.3832 10.1496 32.0866 9.83657 29.8831C9.52539 27.6925 10.3277 25.6019 11.1229 24.5335C11.1234 24.5274 11.124 24.5218 11.1245 24.5165C11.1258 24.5026 11.127 24.4908 11.127 24.4768V24.463L11.134 24.4512C13.2447 20.8991 15.4086 17.5247 17.0455 15.3808C17.8626 14.3107 18.5528 13.5412 19.0418 13.2122C19.1645 13.1296 19.2775 13.0728 19.3788 13.0468C19.4806 13.0207 19.5747 13.025 19.6541 13.0705C19.7331 13.1158 19.7888 13.197 19.8246 13.3063C19.8547 13.3983 19.8719 13.5134 19.8765 13.6516C21.5443 12.8323 22.9699 12.6135 24.2224 12.7118C25.4615 12.8091 26.528 13.2165 27.4879 13.6538C27.4976 12.2935 27.7599 10.7158 28.1565 9.51315C28.3584 8.9008 28.5964 8.38182 28.856 8.03811C29.1136 7.69716 29.4076 7.51095 29.7175 7.61424C30.0055 7.71024 30.5004 8.02344 31.0933 8.63295C31.6875 9.2437 32.3829 10.1548 33.0711 11.4517C34.4463 14.0434 35.7926 18.1763 36.2426 24.5335L36.2591 24.5555L36.2594 24.5559C37.0541 25.6364 37.848 27.7297 37.5258 29.9178C37.2028 32.1109 35.7599 34.391 32.0963 35.8407Z" fill="white" stroke="#4D4D55" stroke-width="0.1" stroke-miterlimit="10"/>
<path d="M11.1745 24.5292C12.9322 23.7375 16.278 22.3388 18.3681 22.4902C18.3681 22.4902 21.203 15.4017 23.5761 14.9082C25.9512 15.4017 28.7845 22.4902 28.7845 22.4902C30.9734 22.3319 34.5425 23.8177 36.2183 24.5851L36.1929 24.5514C35.2956 11.831 30.8092 8.03077 29.7008 7.6613C28.5924 7.29183 27.5368 10.9865 27.5368 13.7312C25.5839 12.8339 23.2087 12.0422 19.8265 13.7312C19.8265 10.9865 18.7708 7.29183 17.6624 7.6613C16.554 8.03077 12.084 11.869 11.1745 24.5292Z" fill="#4D4D55"/>
<path d="M28.5398 14.4702C28.5398 14.4702 28.8565 10.5116 30.3344 11.1449C31.8123 11.7783 34.0291 16.7925 34.2402 21.0678C32.2345 18.376 28.5398 14.4702 28.5398 14.4702Z" fill="white"/>
<path d="M18.9331 14.4702C18.9331 14.4702 18.6164 10.5116 17.1385 11.1449C15.6607 11.7783 13.4438 16.7925 13.2327 21.0678C15.2384 18.376 18.9331 14.4702 18.9331 14.4702Z" fill="white"/>
<path d="M16.873 29.8819C17.348 29.143 18.3509 28.1929 19.8815 27.2429C19.9871 28.4041 21.7843 29.4148 23.4707 29.3061C25.157 29.4148 26.9543 28.4035 27.0598 27.2429C28.5905 28.1929 29.5933 29.143 30.0684 29.8819C27.2393 24.9569 23.5235 25.2937 23.4707 25.299C23.3683 25.29 19.6836 24.9897 16.873 29.8819Z" fill="#4D4D55"/>
<path d="M29.4746 27.7642C27.9255 27.7642 26.6696 26.5084 26.6696 24.9592C26.6696 23.41 27.9255 22.1542 29.4746 22.1542C31.0238 22.1542 32.2797 23.41 32.2797 24.9592C32.2797 26.5084 31.0238 27.7642 29.4746 27.7642Z" fill="white" stroke="#4D4D55" stroke-width="0.2" stroke-miterlimit="10"/>
<path d="M17.8653 27.7642C16.3161 27.7642 15.0602 26.5084 15.0602 24.9592C15.0602 23.41 16.3161 22.1542 17.8653 22.1542C19.4144 22.1542 20.6703 23.41 20.6703 24.9592C20.6703 26.5084 19.4144 27.7642 17.8653 27.7642Z" fill="white" stroke="#4D4D55" stroke-width="0.2" stroke-miterlimit="10"/>
<path d="M27.8533 25.8708C27.4452 25.8708 27.1144 25.54 27.1144 25.1319C27.1144 24.7238 27.4452 24.3929 27.8533 24.3929C28.2615 24.3929 28.5923 24.7238 28.5923 25.1319C28.5923 25.54 28.2615 25.8708 27.8533 25.8708Z" fill="#007EAA"/>
<path d="M19.4832 25.8708C19.0751 25.8708 18.7443 25.54 18.7443 25.1319C18.7443 24.7238 19.0751 24.3929 19.4832 24.3929C19.8913 24.3929 20.2222 24.7238 20.2222 25.1319C20.2222 25.54 19.8913 25.8708 19.4832 25.8708Z" fill="#007EAA"/>
<path d="M20.0566 33.652C20.0566 33.652 23.2626 34.8011 26.9821 33.6336C26.9821 33.6336 27.1256 33.5919 27.3399 33.5053C28.0842 33.206 29.6803 32.3652 29.0691 30.8388C28.3375 29.6723 27.1557 30.0106 26.6237 30.2445C26.4888 30.3044 26.3608 30.3789 26.2421 30.4667C25.8124 30.7834 23.1407 32.0185 20.823 30.4667C20.7049 30.3788 20.5775 30.3043 20.443 30.2445C19.9099 30.0106 18.7281 29.6723 17.9966 30.8388C17.2112 32.8049 20.0566 33.652 20.0566 33.652Z" fill="#4D4D55"/>
<path d="M20.0546 33.6528C20.0546 33.6528 23.2605 34.8018 26.98 33.6343C26.98 33.6343 27.1236 33.5926 27.3379 33.506C27.3379 33.506 26.1672 32.2535 23.4674 32.3448C20.7677 32.4362 20.0546 33.6528 20.0546 33.6528Z" fill="#F57878"/>
<path d="M21.6587 26.4307C21.6411 26.1836 21.9926 25.9572 22.4439 25.9251C22.8952 25.893 23.2753 26.0673 23.2929 26.3144C23.3105 26.5616 22.9589 26.788 22.5076 26.8201C22.0563 26.8522 21.6762 26.6779 21.6587 26.4307Z" fill="white"/>
<path d="M32.9574 30.541C31.3687 30.541 30.0808 29.903 30.0808 29.1159C30.0808 28.3288 31.3687 27.6908 32.9574 27.6908C34.5461 27.6908 35.834 28.3288 35.834 29.1159C35.834 29.903 34.5461 30.541 32.9574 30.541Z" fill="#FFC2D8"/>
<path d="M13.8759 30.5686C12.2872 30.5686 10.9993 29.9305 10.9993 29.1435C10.9993 28.3564 12.2872 27.7184 13.8759 27.7184C15.4645 27.7184 16.7524 28.3564 16.7524 29.1435C16.7524 29.9305 15.4645 30.5686 13.8759 30.5686Z" fill="#FFC2D8"/>
<path d="M47.5 24C47.5 36.9787 36.9787 47.5 24 47.5C11.0213 47.5 0.5 36.9787 0.5 24C0.5 11.0213 11.0213 0.5 24 0.5C36.9787 0.5 47.5 11.0213 47.5 24Z" stroke="black" stroke-opacity="0.097"/>
</svg>
