<svg width="44" height="44" viewBox="0 0 44 44" fill="none" xmlns="http://www.w3.org/2000/svg">
<rect width="44" height="44" rx="22" fill="#D87C30" fill-opacity="0.1"/>
<path fill-rule="evenodd" clip-rule="evenodd" d="M16.9102 30.3333L20.0452 31.1071V30.0952L20.3012 29.8571H22.0926V31.0476V31.881H20.1732L17.8059 30.9286L16.9102 30.3333Z" fill="#CDBDB2"/>
<path fill-rule="evenodd" clip-rule="evenodd" d="M27.147 30.3333L24.0759 31.1071V30.0952L23.82 29.8571H22.0285V31.0476V31.881H23.9479L26.3152 30.9286L27.147 30.3333Z" fill="#CDBDB2"/>
<path fill-rule="evenodd" clip-rule="evenodd" d="M20.3013 28.131L20.0454 30.0952L20.3653 29.8572H23.6923L24.0762 30.0952L23.8203 28.131L23.3084 27.8333L20.7492 27.8929L20.3013 28.131Z" fill="#393939"/>
<path fill-rule="evenodd" clip-rule="evenodd" d="M18.5737 14.8572L20.1093 18.1905L20.8131 27.8929H23.3083L24.0761 18.1905L25.4837 14.8572H18.5737Z" fill="#F89C35"/>
<path fill-rule="evenodd" clip-rule="evenodd" d="M11.8564 22.1786L10.0649 27L14.5436 26.7619H17.4228V24.6786L17.2948 20.3929L16.655 20.8691L11.8564 22.1786Z" fill="#F89D35"/>
<path fill-rule="evenodd" clip-rule="evenodd" d="M15.2466 22.7143L20.493 22.8333L19.9172 25.3333L17.4219 24.7381L15.2466 22.7143Z" fill="#D87C30"/>
<path fill-rule="evenodd" clip-rule="evenodd" d="M15.2466 22.7738L17.4219 24.6786V26.5834L15.2466 22.7738Z" fill="#EA8D3A"/>
<path fill-rule="evenodd" clip-rule="evenodd" d="M17.4219 24.7381L19.9811 25.3334L20.8129 27.8929L20.237 28.1905L17.4219 26.6429V24.7381Z" fill="#F89D35"/>
<path fill-rule="evenodd" clip-rule="evenodd" d="M17.422 26.6429L16.9102 30.3334L20.3012 28.131L17.422 26.6429Z" fill="#EB8F35"/>
<path fill-rule="evenodd" clip-rule="evenodd" d="M20.4928 22.8333L20.8127 27.8929L19.853 25.3036L20.4928 22.8333Z" fill="#EA8E3A"/>
<path fill-rule="evenodd" clip-rule="evenodd" d="M14.479 26.7024L17.4221 26.6429L16.9103 30.3334L14.479 26.7024Z" fill="#D87C30"/>
<path fill-rule="evenodd" clip-rule="evenodd" d="M11.4725 31.9405L16.9109 30.3333L14.4796 26.7024L10.0649 27L11.4725 31.9405Z" fill="#EB8F35"/>
<path fill-rule="evenodd" clip-rule="evenodd" d="M20.1091 18.1905L17.358 20.3333L15.2466 22.7143L20.493 22.8929L20.1091 18.1905Z" fill="#E8821E"/>
<path fill-rule="evenodd" clip-rule="evenodd" d="M16.9102 30.3334L20.3012 28.131L20.0452 30.0357V31.1072L17.7419 30.6905L16.9102 30.3334Z" fill="#DFCEC3"/>
<path fill-rule="evenodd" clip-rule="evenodd" d="M27.147 30.3334L23.82 28.131L24.0759 30.0357V31.1072L26.3792 30.6905L27.147 30.3334Z" fill="#DFCEC3"/>
<path fill-rule="evenodd" clip-rule="evenodd" d="M19.0853 23.9048L19.7891 25.2738L17.2938 24.6786L19.0853 23.9048Z" fill="#393939"/>
<path fill-rule="evenodd" clip-rule="evenodd" d="M11.4077 12.0595L20.1091 18.1905L18.6376 14.8572L11.4077 12.0595Z" fill="#E88F35"/>
<path fill-rule="evenodd" clip-rule="evenodd" d="M11.4075 12.0595L10.2559 15.3333L10.8957 18.9048L10.4478 19.1429L11.0876 19.6786L10.5758 20.0953L11.2796 20.6905L10.8317 21.0476L11.8554 22.2381L16.654 20.8691C18.9999 19.123 20.1516 18.2302 20.1089 18.1905C20.0663 18.1508 17.1658 16.1072 11.4075 12.0595Z" fill="#8E5A30"/>
<path fill-rule="evenodd" clip-rule="evenodd" d="M32.2017 22.1786L33.9932 27L29.5145 26.7619H26.6353V24.6786L26.7633 20.3929L27.4031 20.8691L32.2017 22.1786Z" fill="#F89D35"/>
<path fill-rule="evenodd" clip-rule="evenodd" d="M28.8105 22.7143L23.5641 22.8333L24.1399 25.3333L26.6352 24.7381L28.8105 22.7143Z" fill="#D87C30"/>
<path fill-rule="evenodd" clip-rule="evenodd" d="M28.8105 22.7738L26.6352 24.6786V26.5834L28.8105 22.7738Z" fill="#EA8D3A"/>
<path fill-rule="evenodd" clip-rule="evenodd" d="M26.6353 24.7381L24.076 25.3334L23.2443 27.8929L23.8201 28.1905L26.6353 26.6429V24.7381Z" fill="#F89D35"/>
<path fill-rule="evenodd" clip-rule="evenodd" d="M26.6351 26.6429L27.147 30.3334L23.82 28.1905L26.6351 26.6429Z" fill="#EB8F35"/>
<path fill-rule="evenodd" clip-rule="evenodd" d="M23.5643 22.8333L23.2444 27.8929L24.2041 25.3036L23.5643 22.8333Z" fill="#EA8E3A"/>
<path fill-rule="evenodd" clip-rule="evenodd" d="M29.5786 26.7024L26.6355 26.6429L27.1473 30.3334L29.5786 26.7024Z" fill="#D87C30"/>
<path fill-rule="evenodd" clip-rule="evenodd" d="M32.5856 31.9405L27.1472 30.3333L29.5785 26.7024L33.9932 27L32.5856 31.9405Z" fill="#EB8F35"/>
<path fill-rule="evenodd" clip-rule="evenodd" d="M23.948 18.1905L26.6992 20.3333L28.8105 22.7143L23.5641 22.8929L23.948 18.1905Z" fill="#E8821E"/>
<path fill-rule="evenodd" clip-rule="evenodd" d="M24.9719 23.9048L24.2681 25.2738L26.7633 24.6786L24.9719 23.9048Z" fill="#393939"/>
<path fill-rule="evenodd" clip-rule="evenodd" d="M32.6494 12.0595L23.948 18.1905L25.4196 14.8572L32.6494 12.0595Z" fill="#E88F35"/>
<path fill-rule="evenodd" clip-rule="evenodd" d="M32.6486 12.0595L33.8003 15.3333L33.1605 18.9048L33.6083 19.1429L32.9685 19.6786L33.4804 20.0953L32.7766 20.6905L33.2245 21.0476L32.2008 22.2381L27.4022 20.8691C25.0562 19.123 23.9046 18.2302 23.9472 18.1905C23.9899 18.1508 26.8903 16.1072 32.6486 12.0595Z" fill="#8E5A30"/>
</svg>
